<?xml version="1.0" encoding="utf-8"?>
<!-- Generator: Adobe Illustrator 14.0.0, SVG Export Plug-In . SVG Version: 6.00 Build 43363)  -->
<!DOCTYPE svg PUBLIC "-//W3C//DTD SVG 1.1//EN" "http://www.w3.org/Graphics/SVG/1.1/DTD/svg11.dtd">
<svg version="1.1" id="icon" xmlns="http://www.w3.org/2000/svg" xmlns:xlink="http://www.w3.org/1999/xlink" x="0px" y="0px"
	 width="1024px" height="1024px" viewBox="0 0 1024 1024" enable-background="new 0 0 1024 1024" xml:space="preserve">
<path d="M629.575,601.651c9.836-45.773,15.408-98.106,15.408-153.699c0-110.484-19.464-196.042-53.142-269.977
	c-21.098-46.321-49.326-114.05-77.014-114.05c-27.421,0-56.854,68.503-77.83,114.05c-34.021,73.852-52.322,158.826-52.322,269.977
	c0,53.134,5.096,103.289,14.124,147.587l-99.006,138.184v226.352l135.8-141.471h11.328v28.293h130.155v-28.293h11.328
	l135.801,141.471V733.722L629.575,601.651z M514.828,558.299c-28.128,0-50.929-22.801-50.929-50.93
	c0-28.128,22.802-50.93,50.929-50.93c28.129,0,50.93,22.802,50.93,50.93C565.758,535.498,542.957,558.299,514.828,558.299z
	 M514.828,394.193c-28.128,0-50.929-22.801-50.929-50.93c0-28.126,22.802-50.929,50.929-50.929c28.129,0,50.93,22.803,50.93,50.929
	C565.758,371.391,542.957,394.193,514.828,394.193z"/>
</svg>
