<?xml version="1.0" encoding="utf-8"?>
<!-- Generator: Adobe Illustrator 14.0.0, SVG Export Plug-In . SVG Version: 6.00 Build 43363)  -->
<!DOCTYPE svg PUBLIC "-//W3C//DTD SVG 1.1//EN" "http://www.w3.org/Graphics/SVG/1.1/DTD/svg11.dtd">
<svg version="1.1" id="icon" xmlns="http://www.w3.org/2000/svg" xmlns:xlink="http://www.w3.org/1999/xlink" x="0px" y="0px"
	 width="1024px" height="1024px" viewBox="0 0 1024 1024" enable-background="new 0 0 1024 1024" xml:space="preserve">
<g>
	<path fill="#231F20" d="M860.133,393.26h-15.427c-58.338-144.664-185.825-245.292-333.301-245.292
		c-147.473,0-274.897,100.628-333.298,245.292h-15.429c-32.105,0-58.089,25.982-58.089,58.087v202.939
		c0,32.109,25.983,58.092,58.089,58.092h23.735h16.366L375.365,853.67h69.021v2.998c0,10.618,8.681,19.363,19.363,19.363h91.758
		c10.679,0,19.425-8.745,19.425-19.363v-33.855c0-10.617-8.746-19.236-19.425-19.236h-91.758c-10.682,0-19.363,8.619-19.363,19.236
		v2.998h-59.026L240.758,707.568c20.611-8.932,35.104-29.354,35.104-53.281V451.348c0-27.794-19.615-51.029-45.725-56.716
		c53.784-117.801,159.654-198.254,281.269-198.254c121.741,0,227.616,80.453,281.334,198.254
		c-26.109,5.687-45.725,28.922-45.725,56.716v202.939c0,31.982,25.796,57.845,57.717,58.092h0.437h31.294h23.671
		c32.171,0,58.092-25.982,58.092-58.092V451.348C918.225,419.242,892.304,393.26,860.133,393.26z"/>
	<path fill="#231F20" d="M945.96,487.513c-7.371,0-13.306,5.996-13.306,13.306v114.37c0,7.367,5.935,13.363,13.306,13.363
		c7.306,0,13.302-5.996,13.302-13.363v-114.37C959.262,493.509,953.266,487.513,945.96,487.513z"/>
	<path fill="#231F20" d="M77.98,487.513c-7.372,0-13.242,5.996-13.242,13.306v114.37c0,7.367,5.87,13.363,13.242,13.363
		c7.37,0,13.368-5.996,13.368-13.363v-114.37C91.348,493.509,85.35,487.513,77.98,487.513z"/>
</g>
</svg>
