<?xml version="1.0" encoding="utf-8"?>
<!-- Generator: Adobe Illustrator 14.0.0, SVG Export Plug-In . SVG Version: 6.00 Build 43363)  -->
<!DOCTYPE svg PUBLIC "-//W3C//DTD SVG 1.1//EN" "http://www.w3.org/Graphics/SVG/1.1/DTD/svg11.dtd">
<svg version="1.1" id="icon" xmlns="http://www.w3.org/2000/svg" xmlns:xlink="http://www.w3.org/1999/xlink" x="0px" y="0px"
	 width="1024px" height="1024px" viewBox="0 0 1024 1024" enable-background="new 0 0 1024 1024" xml:space="preserve">
<g>
	<path d="M570.576,438.922L570.576,438.922c17.937,0,24.4-12.103,14.449-26.997l-93.796-140.695
		c-9.951-14.956-3.422-26.997,14.449-26.997c17.937,0,24.4-12.106,14.449-27L426.332,76.537c-9.952-14.957-26.048-14.957-36,0
		l-93.796,140.695c-9.952,14.895-3.422,27,14.449,27c17.871,0,24.4,12.041,14.449,26.997l-93.796,140.695
		c-9.951,14.895-3.422,26.997,14.449,26.997c17.872,0,24.973,12.425,15.782,27.823L100.515,735.588
		c-9.191,15.336-2.093,27.822,15.778,27.822h584.079c17.934,0,24.97-12.486,15.779-27.822L554.795,466.745
		C545.604,451.347,552.64,438.922,570.576,438.922"/>
	<path d="M895.064,893.205H505.679c-17.871,0-32.451-14.514-32.451-32.446c0-17.937-14.576-32.451-32.447-32.451h-64.898
		c-17.871,0-32.447,14.515-32.447,32.451c0,17.933-14.579,32.446-32.45,32.446H181.19c-17.871,0-32.447,14.515-32.447,32.447v0.572
		c0,17.937,14.576,32.447,32.447,32.447l713.874-0.568c17.934,0,32.447-14.515,32.447-32.451
		C927.512,907.72,912.998,893.205,895.064,893.205"/>
</g>
</svg>
