<?xml version="1.0" encoding="utf-8"?>
<!-- Generator: Adobe Illustrator 14.0.0, SVG Export Plug-In . SVG Version: 6.00 Build 43363)  -->
<!DOCTYPE svg PUBLIC "-//W3C//DTD SVG 1.1//EN" "http://www.w3.org/Graphics/SVG/1.1/DTD/svg11.dtd">
<svg version="1.1" id="icon" xmlns="http://www.w3.org/2000/svg" xmlns:xlink="http://www.w3.org/1999/xlink" x="0px" y="0px"
	 width="1024px" height="1024px" viewBox="0 0 1024 1024" enable-background="new 0 0 1024 1024" xml:space="preserve">
<path d="M503.473,281.475l1.061,1.756l2.09,0.656l1.881,0.046c4.42-11.807-5.855-11.807-14.049-13.305l-4.131,0.888l0.696,3.135
	L503.473,281.475z M604.097,297.135l1.691,0.244C610,295,615.25,300.25,617,293.25c-5.25,0-8.75-1.75-14,0
	C603,293.25,603,296.75,604.097,297.135z M566.404,293.337l6.347-0.103C571.5,288,559.25,284.5,559.25,291.5
	C557.5,293.25,562.75,293.25,566.404,293.337z M441.999,193.5c-3.5,5.25-3.5-3.5-6.915-1.089l-1.459,0.693
	c-5.626,7.396-19.626,9.146-17.876,21.396C427.999,212.75,434.999,204,441.999,193.5z M484.91,258.479
	c-8.976-4.488-8.976,4.488-10.068,12.08l2.83,2.945C484.91,271.943,489.398,262.967,484.91,258.479z M447.249,188.25
	c0,1.331-1.015,3.673-2.27,5.489c1.791-1.276,4.02,0.114,4.02,1.511c0,7-10.5,1.75-10.5,8.75c1.75,0,3.5,0,1.75,1.75
	s-5.25,1.75-7,3.5h7c-0.875,2.625-3.938,3.062-6.562,3.938c-2.625,0.873-4.812,2.162-3.938,6.504
	c2.188-1.699,4.594-2.786,7.109-3.524c7.547-2.215,16.078-1.23,22.641-5.168c-1.75,0-1.75-1.75-3.5-1.75c3.5-1.75,7-3.5,5.25-8.75
	c-1.75,0-1.75,1.75-3.5,1.75c3.5-7-3.5-15.75,3.434-20.331l1.458-2.297c-1.391-0.122-4.891-0.122-6.641-0.122
	c1.75-1.75,3.5-1.75,5.25-3.5c-8.75,0-12.25,8.75-19.25,12.25C443.749,191.75,447.249,186.5,447.249,188.25z M443.749,195.25
	c0.42-0.419,0.837-0.941,1.23-1.511C444.528,194.061,444.103,194.544,443.749,195.25z M849.969,400.437l-3.972-1.357l-1.624,2.61
	l-0.088,5.603l0.208,1.998l0.807,0.519l1.846-1.445l1.907-0.498l0.926,1.54l1.648,5.227l3.219,6.064l1.73,0.181l-1.799-9.641
	l0.79,0.021l0.905,0.924l0.633-0.333l-0.068-2.175l-1.111-5.424l-3.346-10.892l-1.688-1.208l0.157,3.143l0.332,3.357l-0.455,1.603
	L849.969,400.437z M848.31,462.696l2.786,0.697l2.526-0.925l1.562-2.973l1.148-4.033l-0.82-1.132
	c-3.288,1.144-7.745,2.411-11.067,3.435l-2.211,3.215l-0.82,5.134l0.037,5.742l-0.793,6.207l-1.388,5.792l-0.257,5.191l0.924,4.865
	l0.379,5.694l-0.321,5.851l0.602,4.108l1.876,0.171l1.18-5.353l-0.557-10.796l1.062-3.102l1.221,3.208l0.807,4.207l2.149,2.257
	l2.181-2.517l0.086-6.273l-2.283-7.149l-0.096-2.304l0.844-2.501l2.574-5.19l-0.205-3.116l-2.387,1.522l-2.389,2.644l-2.109-1.551
	l-0.684-5.404l1.617-5.021L848.31,462.696z M852.628,519.839l-1.911,0.075l-5.93,3.265l-3.975-0.856l-1.877,2.041l-0.748,3.925
	l1.564,1.88l6.245-1.685l7.235-6.448L852.628,519.839z M840.717,515.223l-7.732,0.228l-3.817-0.495l-2.69,3.113l2.77,4.17
	l5.898,0.727l1.895-0.832l3.469-4.655C840.58,516.724,840.648,515.974,840.717,515.223z M861.34,440.914l-0.775-3.092l-0.697,1.477
	l-0.215,4.419l-0.021,4.706l0.469,8.716l-0.068,4.417l0.283,4.188l0.486,1.072l0.516-0.376l0.198-1.99l-0.116-2.231l-0.059-4.198
	l0.852-2.418l1.019-1.382l0.383-3.47l-1.723-5.315L861.34,440.914z M854.808,525.28l-4.201,4.69l-2.115,3.391l-1.008,5.317
	l1.254,2.936l2.112-1.481l3.992-6.733l8.066-10.201l-4.317-0.031L854.808,525.28z M875.334,470.293l-0.612,0.519l-0.618,4.569
	l-0.653,5.493l-0.79,2.468l-0.662-2.081l-0.229-5.542l0.257-6.347l0.096,0.005l-0.697-4.624l-1.107-2.407l-0.571,0.152l-1.162,1.552
	l-2.649-0.282l-0.676,0.507l-0.309,2.302l0.281,2.391l1.001,5.208l0.229,0.275l0.184,0.483l0.209,0.349l0.428,0.337l0.174,0.451
	l0.182,0.98l0.215,0.78l1.904-0.07l0.287,0.53l-0.219,1.936l-0.421,1.425l-0.749,0.13l-0.307,0.711l0.006,2.501l0.045,0.825
	l0.105,0.789l0.035,0.928l-0.093,3.393l0.021,1.474l0.291,0.249l0.365-0.682l0.376-3.238l0.358-1.052l0.355-0.582l0.336-0.06
	l0.331,0.451l0.126,1.589l0.052,2.601l-0.03,1.035l1.633,0.566l0.232,1.371l0.147,0.152l0.079,0.64l0.027,0.567l0.051,0.332
	l0.146-0.016l0.011,1.085l0.055,0.739l-0.604,6.989l-0.359,4.482l-0.253,2.37l-0.167,1.175l-0.127,1.081l0.037,0.401l-0.088,0.93
	l-0.517,0.612l-0.308,0.695l-0.414,2.094l-0.454,4.104l0.099,1.704l0.219-0.388l0.391-2l0.293-1.154l0.106,0.115l0.017,1.223
	l-0.662,4.318l-0.24,1.757l-0.074,0.651l0.115-0.605c3.053-16.695,4.949-33.574,5.688-50.507L875.334,470.293z M827.933,358.479
	l2.535,6.622l0.4,6.155l1.128,3.759l1.771,2.701l1.005-0.481l-0.335-6.062l0.42-2.625l2.701,0.373l2.942,2.101l1.097-3.351
	l-2.163-5.328l-3.202,0.089l-3.757-2.903l-2.509-7.162l-1.429-9.067l-3.101-6.605l-3.701-4.138l-1.268-0.283l-0.455,1.448
	l0.783,3.047l1.018,3.149l1.148,6.056l1.672,6.222L827.933,358.479z M839.646,377.504l-0.811,1.229l-0.01,1.47l0.906,4.665
	l1.168,0.7l1.043-0.584l0.574-0.248l0.253-1.016l-0.273-1.63l-0.399-1.676l-1.132-2.205L839.646,377.504z M844.753,377.991
	l2.447,10.65l0.991,1.206l0.551-0.821l-0.482-2.496l-0.77-2.758l-0.536-2.728l0.068-2.141l-0.185-1.445l-0.383-1.535l-1.275-2.206
	l-1.09-0.595l-0.984-0.017l-0.406,1.528l0.93,1.863L844.753,377.991z M827.355,492.085l3.76-2.789l1.582-7.017
	c0.004-1.8-0.006-3.599-0.023-5.396l0.557-2.344l1.777-4.766l0.65-3.048l0.656-6.233l1.992-3.605l1.477-3.965l-0.775-3.32
	l-3.36-5.646L834,440.25l0.93-6.621l2.112-5.846l-1.278-4.693l-8.552-6.95l-2.888,3.314l-0.848,9.936l-0.462,1.028
	c2.044,20.184,2.885,40.559,2.526,60.886L827.355,492.085z M750.471,604.039l-2.827-6.162l-6.117-0.624l-3.921,2.517l-1.935,3.964
	l-16.15,20.408l-17.186,9.625l-2.662,3.081l-1.951,3.55l-0.947,3.468l1.057,22.562l-8.266,20.928l-0.748,3.625l-0.619,7.454
	l0.564,3.114l6.453,7.306l9.539,1.579l9.852-7.154l5.318-16.505l21.096-43.834l6.221-27.098l1.537-3.151l1.107-3.327l0.277,0.395
	c0.215-1.88,0.424-3.76,0.622-5.643l-0.331,1.037L750.471,604.039z M562.043,151.5c2.744-0.001,4.549-0.002,5.636-0.002
	C566.079,151.498,563.484,151.499,562.043,151.5z M511.999,64C264.566,64,64,264.567,64,512c0,247.406,200.566,448,447.999,448
	C759.406,960,960,759.406,960,512C960,264.567,759.406,64,511.999,64z M511.999,880.266c-78.196,0-150.683-24.387-210.313-65.941
	c-0.07-0.126-0.112-0.24-0.094-0.303c0.031-0.11,0.298-0.165,0.592-0.119c0.294,0.045,0.585,0.012,0.648-0.072
	c0.063-0.087-0.401-0.525-1.034-0.979c-0.63-0.453-1.726-1.119-2.435-1.479c-0.708-0.352-1.608-0.747-2.001-0.863
	c-0.271-0.08-1.244-0.485-2.436-1.01c-19.57-14.303-37.679-30.481-54.054-48.284c-0.22-0.378-0.497-0.794-0.81-1.196
	c-0.702-0.894-1.832-2.042-2.513-2.553c-0.06-0.045-0.122-0.082-0.184-0.125c-1.983-2.219-3.939-4.461-5.869-6.727
	c0.952-0.174,1.403-0.868,1.006-1.76c-0.486-1.098-2.061-3.403-3.492-5.129c1.61-0.612,5.275-0.617,7.113-4.121
	c1.851-10.503-3.634-17.494-7.284-26.239c1.832-0.003,3.662,1.743,5.491,3.491c3.215-5.257,4.829-10.617,5.496-16.061
	c0.334-2.723,0.431-5.464,0.366-8.223c-0.295-15.979-13.098-29.958-9.409-43.965c5.533-21.01,16.561-40.281,20.652-62.33
	c0.969-2.03,2.097-4.011,3.205-5.997c2.215-3.974,4.347-7.98,4.94-12.489c0.721-2.771,1.083-7.563,0.767-10.662
	c-0.318-3.095-0.979-6.727-1.466-8.073c-0.488-1.345-1.523-3.35-2.298-4.455c-0.773-1.107-5.719-4.833-10.989-8.275
	c-5.269-3.443-9.614-6.271-9.656-6.28c-0.044-0.012-0.092-0.114-0.11-0.226c-0.018-0.111-0.248-0.489-0.512-0.839
	c-0.264-0.351-0.624-0.949-0.8-1.337c-0.175-0.384-0.473-0.721-0.66-0.747c-0.188-0.023-0.5-0.025-0.694-0.001
	c-0.195,0.022-0.533-0.043-0.755-0.147c-0.221-0.105-0.566-0.33-0.767-0.497c-0.201-0.169-0.986-0.424-1.746-0.569
	c-0.758-0.145-1.625-0.477-1.925-0.734c-0.3-0.258-0.696-0.482-0.881-0.496c-0.186-0.014-0.486,0.012-0.668,0.065
	c-0.182,0.048-2.837,0.028-5.899-0.041c-3.062-0.07-5.808,0.023-6.103,0.206c-0.293,0.188-0.584,1.012-0.647,1.831
	c-0.063,0.818-0.36,1.641-0.659,1.823c-0.302,0.185-0.818,0.34-1.147,0.349c-0.332,0.007-0.746-0.258-0.924-0.586
	c1.644-8.969-5.667-19.458-14.835-15.942c0,0-0.006,3.499-0.009,5.251c-7.327-1.738,1.847-8.754-3.646-10.496
	c-7.327-1.738-3.677,7.006-9.178,8.767c7.357-15.764,5.549-29.761-3.589-43.748c-5.476-12.242-20.125-17.468-20.442-33.634
	c-0.614-1.88-1.478-3.752-1.92-4.162c-0.44-0.408-1.578,0.027-2.526,0.969c-0.948,0.942-1.948,1.707-2.224,1.699
	c-0.275-0.007-0.499-0.529-0.495-1.16c0-0.629,0.33-3.012,0.73-5.297c0.09-0.521,0.165-1.028,0.226-1.511
	c37.699-163.353,184.055-285.13,358.864-285.13c19.306,0,38.262,1.493,56.763,4.356c-3.383,0.849-6.604,1.983-9.508,3.436
	c-1.539,0.384-3.073,0.785-4.611,1.465c-0.725,0.17-1.504,0.285-2.396,0.285c3.09,1.031,5.575-0.369,7.817-1.692
	c-0.574,0.054-1.097,0.161-1.603,0.283c0.379-0.105,0.744-0.242,1.131-0.34h0.567c0.153-0.091,0.312-0.182,0.462-0.271
	c0.071-0.018,0.143-0.04,0.215-0.057c2.352-0.547,4.758-0.984,7.164-1.422c1.781,0,3.559,0.449,5.109,0.434
	c-1.411,0.774-2.822,1.485-4.234,2.191C566.25,153.25,564.5,155,561,156.75h5.25c-1.75,1.75-1.75,1.75-3.5,3.5h1.75
	c-5.25,1.75-8.75,1.75-14,1.75c1.75-3.5,7,0,10.5-3.5c-15.75,0-29.75,3.5-45.281,7.584c-2.328,0.833-4.625,1.747-6.89,2.744
	c-2.716,1.196-5.385,2.514-8.001,3.957c-6.329,3.215-16.829,8.465-13.329,11.965s7,4.375,10.5,5.688
	c1.75,0.656,3.5,1.422,5.233,2.681c1.767,2.132,3.517,3.882,5.267,5.632C519,200.5,527.75,188.25,519,179.5
	c2.625-1.75,4.812-4.375,7.219-6.781s5.031-4.594,8.531-5.469c-5.25,1.75-5.25,8.75-3.5,10.5c3.5,2.625,7.438,0.875,11.594-1.094
	s8.531-4.156,12.906-2.406c-1.312,1.312-3.609,2.188-6.18,2.953s-5.414,1.422-7.82,2.297c-5.25,0-7,7-3.5,10.5
	c-1.75-1.75-5.25-1.75-7-1.75c-1.75,17.5-22.751,19.25-35.001,12.25c1.75,0,5.25,1.75,7-1.75c0-3.5-1.75-3.5-5.25-1.749
	c0-1.751,0-5.251,0-5.251c-7-1.75-7,7-7,12.25c-1.75,0-5.25-1.75-7-1.75c-14.583,10.208-27.95,15.555-43.142,21.105
	c-3.039,1.11-6.149,2.219-9.358,3.291c8.75,3.604,8.75,19.354,0,17.604C408.749,237.25,382.5,232,379,260
	c0,3.5-5.25,8.75-1.75,12.25c14,10.5,33.249,10.5,48.999,3.5c5.25-1.75,8.75-10.5,15.036-12.204
	c2.652-1.147,5.322-2.305,7.718-3.942c2.372-1.664,4.474-3.81,5.968-6.961c3.011-2.491,6.371-3.801,9.987-4.572
	c3.616-0.77,7.491-1,11.534-1.33c2.695-0.22,5.467-0.484,8.289-0.974c11.469,10.733,30.702,23.762,37.702,39.512
	c1.75-5.25,6.754-12.358,13.754-5.358c-7-12.25-32.987-23.42-34.737-40.92C519,251.25,536.5,260,548.75,281
	c1.75,1.75,7,3.5,10.5,1.75c5.246-3.5,3.938-6.125,2.188-8.75s-3.938-5.25-0.438-8.75c1.75-3.5,3.062-2.625,4.525-0.38
	C576.75,289.75,610,277.5,622.25,288c17.5,14-10.5,31.5-31.5,28c-12.25-3.5-22.75-5.25-32.505-8.939
	c-2.174-0.59-4.276-1.16-6.265-1.7c-2.438-0.205-5.605,0.179-7.035,0.853c-1.428,0.672-2.994,2.469-3.469,3.99
	c-0.482,1.522-0.844,3.594-0.807,4.604c0.034,1.011-0.967,2.491-2.225,3.292c-1.266,0.798-4.632,0.246-7.482-1.229
	c-2.857-1.475-5.848-2.853-6.651-3.062c-0.8-0.209-4.255-1.85-7.677-3.646c-1.709-0.897-4.057-1.845-6.458-2.65
	c-12.178-0.262-26.178-9.012-19.178-23.012c-11.375-4.375-23.625-5.25-35.656-3.719c-3.008,0.383-6.007,0.91-8.989,1.558
	C429.749,288,413.999,288,396.499,288c-12.249,0-20.999,14-26.568,25.168c-1.323,1.96-2.755,3.825-4.274,5.596
	c-6.074,7.084-13.407,12.783-21.406,15.875c-3.331,1.661-6.39,3.542-9.205,5.618c-22.522,16.602-29.425,45.638-35.94,73.217
	c-0.635,0.974-1.463,2.547-1.836,3.494c-0.375,0.948-0.503,3.219-0.285,5.048c0.219,1.827,0.114,4.893-0.233,6.812
	c-0.346,1.919-0.649,4.255-0.673,5.191c-0.023,0.936,0.356,2.132,0.843,2.655c0.488,0.525,1.49,1.006,2.226,1.07
	c2.463,2.376,4.42,5.034,6.079,7.819c1.659,2.788,3.02,5.703,4.287,8.619C323,499.75,373.75,496.25,409.557,482.011
	c2.936-0.622,5.843-1.238,8.647-1.833c2.804-0.594,5.508-1.166,8.034-1.7c6.166,0.816,11.368,2.085,11.555,2.819
	c0.186,0.734,0.603,1.696,0.919,2.139c0.319,0.443,0.914,1.103,1.323,1.467c0.407,0.365,0.976,1.046,1.266,1.515
	c0.287,0.468,0.69,1.274,0.899,1.791c0.205,0.516,1.14,1.489,2.078,2.163c0.935,0.675,5.522,1.153,10.177,1.078
	c6.793-0.449,10.293,3.051,13.793,8.301c7,15.75-5.25,33.25,9.68,44.976c0.692,0.646,2.172,2.598,3.996,5.224
	c1.825,2.627,3.996,5.928,6.07,9.265c4.151,6.681,8.159,16.509,8.904,21.841c0.749,5.329,2.201,11.09,3.23,12.803
	c1.025,1.709,1.367,5.955,0.755,9.438c-0.308,1.741-0.986,4.007-1.857,6.271c-8.027,10.933-13.277,24.933-11.527,37.183
	c7,21,21,40.25,25.297,62.188c0,0,0,0,0.014,2.377c0.603,1.875,1.716,3.936,2.481,4.577c0.766,0.643,1.621,1.488,1.9,1.876
	c0.277,0.392,0.807,0.968,1.17,1.278c0.365,0.311,0.803,0.634,0.967,0.715c0.164,0.082,1.237,2.037,2.383,4.346
	c1.145,2.307,3.298,5.694,4.781,7.524s3.217,5.282,3.846,7.672c0.632,2.391,0.84,4.799,0.461,5.355
	c-0.376,0.558-0.789,1.563-0.916,2.237c-0.127,0.677-0.004,1.916,0.277,2.76c0.279,0.841,1.572,2.748,2.874,4.235
	c1.302,1.49,3.069,3.227,3.927,3.864c0.855,0.634,3.586,1.249,6.064,1.361c2.478,0.113,5.239,0.007,6.135-0.237
	c0.893-0.244,2.219-0.982,2.939-1.643c0.725-0.661,1.863-1.917,2.533-2.796c0.67-0.877,8.996-1.861,18.504-2.188
	c8.525-4.113,19.887-9.601,28.407-13.716c4.778-4.908,9.406-10.447,10.288-12.304c0.879-1.857,4.061-5.146,7.075-7.304
	c3.011-2.158,5.961-6.599,6.552-9.868c0.588-3.266,2.037-7.015,3.207-8.324c4.084-4.988,12.834-4.988,12.834-10.238
	c3.5-19.25,10.5-35,23.369-51.375c1.657-2.734,3.243-5.512,4.74-8.328c8.986-16.896,14.756-35.193,13.422-54.161
	c-0.738-2.162-1.418-4.272-1.979-6.337c-10.094-37.207,20.367-60.007,55.654-75.378c0.896-2.187,1.802-4.506,2.725-6.914
	c2.748-7.225,5.605-15.254,8.306-22.924c0.899-2.557,1.78-5.073,2.636-7.506c4.877-5.077,3.127-12.077,3.127-17.327
	c-10.5,5.25-21,3.5-31.069,5.44c-2.358,0.195-4.628,0.385-6.72,0.561c-1.729-0.452-3.753-1.187-4.498-1.635
	c-0.745-0.447-5.814-3.281-11.088-5.678c-4.812-2.188-5.742-4.786-9.188-7c-1.723-1.108-4.553-7.916-6.562-9.625
	c-2.01-1.708-5.243-6.385-6.562-7.875c-6.354-8.644-11.812-16.188-17.062-26.688c-7-10.5-15.75-21-21.721-33.466
	c-1.682-2.269-3.418-4.497-5.199-6.682c-1.784-2.185-3.609-4.325-5.476-6.419c-4.354-4.183-6.104-5.933-9.201-9.526
	c-1.255-1.054-0.759-2.59,1.104-3.415C631,323,627.5,338.75,636.199,337.905c1.982,1.965,3.92,3.968,5.827,6.004
	c1.903,2.037,3.776,4.106,5.619,6.205c2.458,2.798,4.867,5.648,7.239,8.539C664.25,370.25,673,382.5,682.191,394.615
	c1.117,1.225,2.576,3.422,4.025,5.976c1.446,2.553,2.885,5.462,3.965,8.11c5.568,31.55,40.568,15.8,59.818,8.8
	c10.5-5.25,22.75-10.5,24.5-22.75c5.25-24.5-14-38.5-29.75-52.5c-1.75,14-17.5,14-22.552,3.504
	c-1.511-1.754-2.823-3.504-3.698-5.254c0,1.75-1.75,3.5-1.75,5.25c-3.5-8.75-10.5-17.5-15.75-24.5c8.75,0,15.75,5.25,25.238,9.389
	c2.895,1.293,5.787,2.595,8.686,3.883C752.31,342.25,769.951,349.601,792,347.5c4.375-0.875,7,2.625,8.531,7.656
	c0.766,2.516,1.258,5.414,1.562,8.335c0.304,2.92,0.443,5.858,0.495,8.465c1.966-2.742,3.739-5.609,5.288-8.578
	c1.548-2.971,2.857-6.031,3.94-9.163c6.087-17.56,5.168-37.348,0.103-55.974c43.025,60.271,68.346,134.055,68.346,213.757
	C880.265,715.383,715.383,880.266,511.999,880.266z M564.5,149.75c-1.203,0.602-2.402,0.99-3.605,1.32
	C562.141,150.348,563.32,149.75,564.5,149.75z M560.159,151.5c-0.03,0.019-0.065,0.038-0.096,0.057
	c0.301-0.028,0.604-0.057,0.937-0.057H560.159z"/>
</svg>
