<?xml version="1.0" encoding="utf-8"?>
<!-- Generator: Adobe Illustrator 14.0.0, SVG Export Plug-In . SVG Version: 6.00 Build 43363)  -->
<!DOCTYPE svg PUBLIC "-//W3C//DTD SVG 1.1//EN" "http://www.w3.org/Graphics/SVG/1.1/DTD/svg11.dtd">
<svg version="1.1" id="icon" xmlns="http://www.w3.org/2000/svg" xmlns:xlink="http://www.w3.org/1999/xlink" x="0px" y="0px"
	 width="1024px" height="1024px" viewBox="0 0 1024 1024" enable-background="new 0 0 1024 1024" xml:space="preserve">
<g>
	<polygon points="287.328,568.169 231.159,568.169 231.159,624.337 174.991,624.337 174.991,680.504 231.159,680.504 
		231.159,736.674 287.328,736.674 287.328,680.504 343.496,680.504 343.496,624.337 287.328,624.337 	"/>
	<polygon points="174.991,455.833 287.328,455.833 287.328,343.496 399.665,343.496 399.665,231.159 287.328,231.159 
		287.328,118.824 174.991,118.824 174.991,231.159 62.655,231.159 62.655,343.496 174.991,343.496 	"/>
	<path d="M736.673,203.075c0-77.561-62.86-140.421-140.419-140.421c-77.562,0-140.421,62.86-140.421,140.421v424.443
		c-34.666,35.433-56.167,83.758-56.167,137.239c0,108.605,88.036,196.588,196.589,196.588c108.604,0,196.587-87.982,196.587-196.588
		c0-53.481-21.502-101.807-56.168-137.239V203.075z M596.254,905.178c-5.816,0-11.518-0.658-17.005-1.646
		c-69.441-8.558-123.417-67.029-123.417-138.774c0-45.748,22.27-86.008,56.168-111.679V203.075
		c0-46.515,37.738-84.251,84.253-84.251c46.514,0,84.252,37.737,84.252,84.251v450.004c33.952,25.671,56.167,65.931,56.167,111.679
		C736.673,842.318,673.812,905.178,596.254,905.178z"/>
	<path d="M624.338,685.661V287.328H568.17v398.333C535.531,697.235,512,728.115,512,764.758c0,46.515,37.738,84.251,84.253,84.251
		c46.514,0,84.252-37.736,84.252-84.251C680.506,728.115,656.973,697.29,624.338,685.661z"/>
	<polygon points="905.178,231.159 905.178,174.991 849.011,174.991 849.011,231.159 792.841,231.159 792.841,287.328 
		849.011,287.328 849.011,343.496 905.178,343.496 905.178,287.328 961.346,287.328 961.346,231.159 	"/>
</g>
</svg>
