<?xml version="1.0" encoding="utf-8"?>
<!-- Generator: Adobe Illustrator 14.0.0, SVG Export Plug-In . SVG Version: 6.00 Build 43363)  -->
<!DOCTYPE svg PUBLIC "-//W3C//DTD SVG 1.1//EN" "http://www.w3.org/Graphics/SVG/1.1/DTD/svg11.dtd">
<svg version="1.1" id="icon" xmlns="http://www.w3.org/2000/svg" xmlns:xlink="http://www.w3.org/1999/xlink" x="0px" y="0px"
	 width="1024px" height="1024px" viewBox="0 0 1024 1024" enable-background="new 0 0 1024 1024" xml:space="preserve">
<g>
	<path d="M896.025,63.99H128.031c-35.329,0-64.042,28.686-64.042,64.013v768.024c0,35.327,28.712,63.984,64.042,63.984h768.051
		c35.271,0,63.93-28.657,63.93-63.984V128.003C960.011,92.676,931.352,63.99,896.025,63.99z M792.008,904.01H624.005V680.004
		h168.003V904.01z M904.01,904.01h-56.003V624.003H231.993V904.01H119.992V119.992h56V512h56V119.992h560.015V512h55.999V231.994
		h56.003V904.01z M904.01,175.993h-56.003v-56.001h56.003V175.993z"/>
	<rect x="231.993" y="512" width="560.015" height="56.003"/>
</g>
</svg>
