<?xml version="1.0" encoding="utf-8"?>
<!-- Generator: Adobe Illustrator 14.0.0, SVG Export Plug-In . SVG Version: 6.00 Build 43363)  -->
<!DOCTYPE svg PUBLIC "-//W3C//DTD SVG 1.1//EN" "http://www.w3.org/Graphics/SVG/1.1/DTD/svg11.dtd">
<svg version="1.1" id="icon" xmlns="http://www.w3.org/2000/svg" xmlns:xlink="http://www.w3.org/1999/xlink" x="0px" y="0px"
	 width="1024px" height="1024px" viewBox="0 0 1024 1024" enable-background="new 0 0 1024 1024" xml:space="preserve">
<g>
	<path fill="#231F20" d="M931.085,242.599H92.916c-29.934,0-29.934,14.966-29.934,29.934v478.937
		c0,29.932,14.968,29.932,29.934,29.932h123.3l34.084-136.512c0.877-3.333,3.858-5.671,7.249-5.671h508.9
		c3.508,0,6.431,2.338,7.249,5.671l34.142,136.512h123.244c29.932,0,29.932-14.966,29.932-29.932V272.532
		C961.016,242.599,946.051,242.599,931.085,242.599z M768.554,586.835H255.445c-66.182,0-119.734-53.643-119.734-119.734
		c0-66.094,53.552-119.736,119.734-119.736h513.109c66.183,0,119.732,53.642,119.732,119.736
		C888.287,533.193,834.737,586.835,768.554,586.835z"/>
	<path fill="#231F20" d="M255.445,364.496c-56.65,0-102.663,45.923-102.663,102.605c0,56.68,46.013,102.603,102.663,102.603
		c56.709,0,102.664-45.923,102.664-102.603C358.109,410.419,312.155,364.496,255.445,364.496z M323.498,490.076l-26.777-9.032
		l-8.535,14.791l21.28,18.738c-10.348,11.722-24.203,19.146-39.989,22.391l-5.496-27.125h-17.129l-5.378,27.125
		c-15.845-3.244-29.817-10.728-40.048-22.448l21.28-18.681l-8.594-14.849l-26.718,9.091c-2.456-7.278-4.677-14.82-4.677-22.975
		c0-8.157,2.222-15.699,4.677-23.036l26.718,9.032l8.594-14.791l-21.28-18.681c10.29-11.721,24.203-19.146,40.048-22.391
		l5.378,27.126h17.129l5.496-27.126c15.787,3.245,29.642,10.669,39.989,22.391l-21.28,18.681l8.535,14.849l26.777-9.032
		c2.514,7.279,4.677,14.82,4.677,22.978C328.175,475.256,326.011,482.798,323.498,490.076z"/>
	<path fill="#231F20" d="M768.554,364.496c-56.594,0-102.548,45.923-102.548,102.605c0,56.68,45.954,102.603,102.548,102.603
		c56.824,0,102.662-45.923,102.662-102.603C871.217,410.419,825.379,364.496,768.554,364.496z M836.607,490.076l-26.779-9.032
		l-8.535,14.791l21.397,18.738c-10.406,11.722-24.203,19.146-40.104,22.391l-5.495-27.125h-17.071l-5.378,27.125
		c-15.905-3.244-29.702-10.728-39.991-22.448l21.162-18.681l-8.535-14.849l-26.658,9.032c-2.455-7.278-4.677-14.761-4.677-22.917
		c0-8.157,2.222-15.699,4.677-22.978l26.658,8.974l8.535-14.791l-21.162-18.681c10.289-11.721,24.086-19.146,39.991-22.391
		l5.378,27.126h17.071l5.495-27.126c15.784,3.245,29.698,10.669,40.104,22.391l-21.397,18.681l8.535,14.849l26.779-9.032
		c2.572,7.279,4.677,14.82,4.677,22.978C841.284,475.256,839.179,482.798,836.607,490.076z"/>
	<path fill="#231F20" d="M394.473,499.196h235.17V366.63h-235.17V499.196z M545.573,381.595c-10.204,26.602-16.4,55.279-16.4,85.505
		c0,5.875,1.228,11.371,1.637,17.129h-88.98c0.584-5.758,1.754-11.254,1.754-17.129c0-31.016-8.185-59.751-21.399-85.505H545.573z"
		/>
	<path fill="#231F20" d="M263.454,654.184l-31.863,127.217h560.816l-31.803-127.217H263.454z M309.933,766.435
		c-12.394,0-22.449-10.056-22.449-22.451c0-12.394,10.055-22.449,22.449-22.449c12.396,0,22.451,10.056,22.451,22.449
		C332.384,756.379,322.328,766.435,309.933,766.435z M392.252,736.501c-8.245,0-14.968-6.724-14.968-14.967
		c0-8.242,6.723-14.966,14.968-14.966c8.302,0,14.966,6.724,14.966,14.966C407.218,729.778,400.553,736.501,392.252,736.501z
		 M511.986,706.569c-8.245,0-14.968-6.725-14.968-14.968s6.723-14.966,14.968-14.966c8.301,0,14.965,6.723,14.965,14.966
		S520.287,706.569,511.986,706.569z M646.715,736.501c-8.302,0-14.967-6.724-14.967-14.967c0-8.242,6.665-14.966,14.967-14.966
		c8.301,0,14.966,6.724,14.966,14.966C661.68,729.778,655.015,736.501,646.715,736.501z M714.065,766.435
		c-12.394,0-22.449-10.056-22.449-22.451c0-12.394,10.056-22.449,22.449-22.449s22.449,10.056,22.449,22.449
		C736.514,756.379,726.459,766.435,714.065,766.435z"/>
</g>
</svg>
