<?xml version="1.0" encoding="utf-8"?>
<!-- Generator: Adobe Illustrator 14.0.0, SVG Export Plug-In . SVG Version: 6.00 Build 43363)  -->
<!DOCTYPE svg PUBLIC "-//W3C//DTD SVG 1.1//EN" "http://www.w3.org/Graphics/SVG/1.1/DTD/svg11.dtd">
<svg version="1.1" id="icon" xmlns="http://www.w3.org/2000/svg" xmlns:xlink="http://www.w3.org/1999/xlink" x="0px" y="0px"
	 width="1024px" height="1024px" viewBox="0 0 1024 1024" enable-background="new 0 0 1024 1024" xml:space="preserve">
<g>
	<path fill="#231F20" d="M735.563,368.281H288.439c-70.239,0-127.749,57.481-127.749,127.75v31.939
		c0,70.236,57.51,127.749,127.749,127.749h447.124c70.238,0,127.749-57.513,127.749-127.749V496.03
		C863.312,425.762,805.802,368.281,735.563,368.281z M304.409,607.812c-52.896,0-95.812-42.916-95.812-95.812
		s42.915-95.813,95.812-95.813c52.896,0,95.81,42.917,95.81,95.813S357.304,607.812,304.409,607.812z M719.594,607.812
		c-52.896,0-95.812-42.916-95.812-95.812s42.915-95.813,95.812-95.813c52.896,0,95.811,42.917,95.811,95.813
		S772.49,607.812,719.594,607.812z"/>
	<path fill="#231F20" d="M895.25,255.876h-31.938v-47.282c0-8.826-8.356-15.967-15.97-15.967H735.563
		c-7.485,0-15.969,7.141-15.969,15.967v47.282h-31.938v-47.282c0-8.826-8.357-15.967-15.969-15.967H559.906
		c-7.484,0-15.969,7.141-15.969,15.967v47.282h-31.938v-47.282c0-8.826-8.356-15.967-15.965-15.967H384.251
		c-7.485,0-15.969,7.141-15.969,15.967v47.282h-31.935v-47.282c0-8.826-8.36-15.967-15.969-15.967H160.69
		c-7.485,0-15.969,7.141-15.969,15.967v47.282h-15.969c-35.056,0-63.876,28.726-63.876,63.875v447.749
		c0,35.117,28.82,63.875,63.876,63.875H895.25c35.18,0,63.874-28.758,63.874-63.875V319.75
		C959.124,284.602,930.429,255.876,895.25,255.876z M751.532,233.326c0-6.924,1.872-9.387,6.86-9.387h66.121
		c5.117,0,6.86,2.463,6.86,9.387v22.549h-79.842V233.326z M575.876,233.326c0-6.924,1.871-9.387,6.86-9.387h66.121
		c5.116,0,6.859,2.463,6.859,9.387v22.549h-79.841V233.326z M400.219,233.326c0-6.924,1.81-9.387,6.864-9.387h66.18
		c5.054,0,6.802,2.463,6.802,9.387v22.549h-79.846V233.326z M176.659,233.326c0-6.924,1.81-9.387,6.86-9.387h114.091
		c5.05,0,6.798,2.463,6.798,9.387v22.549h-127.75V233.326z M915.958,733.377c0,29.88-25.947,54.208-57.762,54.208h-692.39
		c-31.691,0-57.638-24.328-57.638-54.208v-379.6c0-29.754,20.834-54.175,52.522-54.175h697.506c31.814,0,57.762,24.42,57.762,54.175
		V733.377z"/>
	<path fill="#231F20" d="M719.594,480.063c-17.59,0-31.938,14.316-31.938,31.937c0,17.622,14.349,31.938,31.938,31.938
		c17.589,0,31.938-14.316,31.938-31.938C751.532,494.379,737.183,480.063,719.594,480.063z"/>
	<path fill="#231F20" d="M304.409,480.063c-17.59,0-31.939,14.316-31.939,31.937c0,17.622,14.349,31.938,31.939,31.938
		c17.651,0,31.938-14.316,31.938-31.938C336.346,494.379,322.06,480.063,304.409,480.063z"/>
</g>
</svg>
