<?xml version="1.0" encoding="utf-8"?>
<!-- Generator: Adobe Illustrator 14.0.0, SVG Export Plug-In . SVG Version: 6.00 Build 43363)  -->
<!DOCTYPE svg PUBLIC "-//W3C//DTD SVG 1.1//EN" "http://www.w3.org/Graphics/SVG/1.1/DTD/svg11.dtd">
<svg version="1.1" id="icon" xmlns="http://www.w3.org/2000/svg" xmlns:xlink="http://www.w3.org/1999/xlink" x="0px" y="0px"
	 width="1024px" height="1024px" viewBox="0 0 1024 1024" enable-background="new 0 0 1024 1024" xml:space="preserve">
<g id="Small_Icons">
	<g id="Artboard_2">
		<path id="pencil_copy_2" d="M639.77,121.045l-48.598,84.2l112.215,64.8l48.6-84.205L639.77,121.045z M558.773,261.354
			L315.78,682.206l112.215,64.795L670.99,326.15L558.773,261.354z M690.816,75.691l74.922,43.286
			c41.682,24.045,55.52,76.564,31.725,117.784l-37.967,65.68l-32.398,56.11L451.706,835.594L282.452,947.303
			c-40.961,27.004-70.24,9.027-67.329-38.894l12.149-202.411l275.395-477.041l32.398-56.11l37.883-65.686
			C596.824,65.946,649.473,51.857,690.816,75.691z M274.689,883.015l120.908-79.818l-112.218-64.8L274.689,883.015z"/>
	</g>
</g>
</svg>
