<?xml version="1.0" encoding="utf-8"?>
<!-- Generator: Adobe Illustrator 14.0.0, SVG Export Plug-In . SVG Version: 6.00 Build 43363)  -->
<!DOCTYPE svg PUBLIC "-//W3C//DTD SVG 1.1//EN" "http://www.w3.org/Graphics/SVG/1.1/DTD/svg11.dtd">
<svg version="1.1" id="icon" xmlns="http://www.w3.org/2000/svg" xmlns:xlink="http://www.w3.org/1999/xlink" x="0px" y="0px"
	 width="1024px" height="1024px" viewBox="0 0 1024 1024" enable-background="new 0 0 1024 1024" xml:space="preserve">
<path d="M745.424,108.771C702.07,82.243,613.037,65.76,513.082,65.76c-98.624,0-184.369,14.805-229.382,39.595
	c-31.657,17.428-38.787,48.056-38.787,57.41c0,0.785,0.1,1.564,0.278,2.339c2.999,12.681,8.569,34.844,11.856,40.306
	c2.105,3.997,51.348,98.088,70.523,126.22c2.701,3.962,6.157,8.55,10.079,13.773c23.763,31.597,63.542,84.494,59.352,162.98
	c-4.607,86.291-27.009,297.75-30.852,333.627l-2.414,1.361c-1.33,0.744-2.462,1.776-3.336,3.018
	c-1.291,1.837-4.707,6.703-8.62,44.943c-0.049,0.387-0.06,0.795-0.06,1.192c0.119,6.722,5.601,65.716,164.124,65.716
	c156.893,0,173.873-65.915,174.508-68.716c0.121-0.545,0.219-1.103,0.24-1.658c0.812-13.048-3.873-31.001-7.012-39.263
	c-0.674-1.747-1.807-3.287-3.297-4.419l-1.986-1.549c-5.699-31.409-44.387-247.138-49.014-334.253
	c-4.189-78.486,35.59-131.384,59.342-162.98c3.932-5.224,7.367-9.812,10.068-13.773c19.186-28.132,68.438-122.223,70.166-125.6
	c6.453-10.471,9.611-36.969,10.168-42.177c0.039-0.357,0.059-0.72,0.059-1.088C779.086,153.471,773.049,125.692,745.424,108.771z
	 M324.333,110.121c45.628-15.252,112.954-24.025,188.749-24.025c76.441,0,145.594,9.672,191.094,25.962
	c1.865,1.847,2.938,3.659,2.938,5.388c0,15.223-73.818,36.441-194.031,36.441c-120.231,0-194.051-21.219-194.051-36.441
	C319.031,115.115,320.957,112.644,324.333,110.121z M383.774,377.06c12.929,3.624,26.076,6.474,39.303,8.599l-7.983,77.752
	C409.85,428.982,397.239,400.235,383.774,377.06z M555.385,521.629h-0.061l-50.261-130.533c41.184-0.681,79.205-7.065,108.312-12.23
	L555.385,521.629z M616.871,587.752c3.236,25.114,7.15,52.213,11.281,79.152c-4.529,2.165-11.48,5.214-20.637,8.382L616.871,587.752
	z M607.396,675.325c-22.262,7.706-57.275,15.978-100.708,13.455l51.437-120.828L607.396,675.325z M465.677,526.365l-42.262-141.084
	c25.004,4.001,50.226,5.878,74.505,5.878c2.15,0,4.29-0.021,6.424-0.053L465.677,526.365z M506.548,688.771
	c-24.735-1.439-52.191-6.435-81.574-17.001l39.134-103.847L506.548,688.771z M424.547,671.602c-6.554-2.363-13.167-4.976-19.9-7.914
	c2.661-28.032,5.223-56.085,7.389-81.784L424.547,671.602z M665.488,858.434c2.383,7.309,5.023,19.205,4.865,27.021
	c-2.402,6.226-24.627,52.45-154.51,52.45c-132.317,0-143.032-41.696-143.728-45.431c1.312-12.531,3.377-27.238,4.827-33.206
	l1.688-0.953c13.336,14.846,50.613,44.695,135.088,44.695c86.014,0,132.445-31.001,149.922-46.006L665.488,858.434z
	 M658.992,850.133c0.021,0.179,0.141,0.328,0.18,0.506c-16.086,13.764-61.586,44.745-145.453,44.745
	c-80.87,0-116.777-28.657-129.209-42.113c0.665-1.191,1.152-2.493,1.291-3.883c0.109-0.873,3.525-32.62,8.103-77.265
	c5.601,15.183,13.753,24.885,24.488,28.677c17.02,6.008,34.834-4.597,42.679-10.287c12.641,14.329,27.129,21.906,43.086,22.532
	c0.725,0.028,1.439,0.039,2.154,0.039c24.944,0,45.875-16.861,53.76-24.159c18.133,13.445,34.936,17.695,49.969,12.699
	c17.535-5.857,28.279-23.026,34.119-35.896C652.043,812.221,658.318,846.459,658.992,850.133z M631.388,687.866
	c3.178,20.129,6.395,39.8,9.453,58.151c-0.418,0.535-0.756,1.161-0.934,1.856c-0.078,0.377-9.572,36.254-33.086,44.099
	c-12.611,4.2-27.348-0.457-43.971-13.743c-2.045-1.639-5.064-1.45-6.893,0.507c-0.236,0.259-23.434,25.033-51.396,24.149
	c-14.27-0.566-27.308-8.163-38.767-22.581c-0.874-1.081-2.145-1.767-3.545-1.896c-1.371-0.079-2.75,0.328-3.813,1.241
	c-0.189,0.189-20.088,17.507-36.691,11.549c-11.499-4.081-19.443-18.52-23.554-42.898c-0.198-1.121-0.805-2.034-1.589-2.77
	c1.946-19.135,3.972-39.7,6.017-60.702c44.695,18.59,85.558,25.063,120.451,25.063C574.211,709.892,612.461,696.337,631.388,687.866
	z M616.771,437.215l-2.344-56.66c11.361-2.026,21.291-4.072,29.512-5.919C633.513,392.182,623.465,412.995,616.771,437.215z
	 M681.892,320.17c-2.543,3.754-5.818,8.073-9.533,12.998c-3.635,4.856-7.805,10.427-12.154,16.573
	c-24.131,6.346-177.787,43.712-293.868,0.388c-4.459-6.296-8.718-11.996-12.432-16.961c-3.714-4.925-6.971-9.244-9.523-12.998
	c-3.108-4.548-7.14-11.132-11.628-18.758c21.231-3.812,66.908-8.083,99.24,17.06c1.331,1.033,3.079,1.341,4.667,0.834
	c1.033-0.338,103.252-32.45,173-0.218c0.674,0.298,1.41,0.457,2.125,0.457c0.635,0,1.25-0.12,1.848-0.338
	c23.334-9.056,59.816-19.84,81.008-19.682C689.677,308.006,685.25,315.255,681.892,320.17z M700.222,289.873
	c-28.021-2.81-76.201,14.528-88.277,19.086c-67.742-30.028-159.118-5.104-175.84-0.129c-37.674-27.575-88.336-20.982-108.792-16.771
	c-14.23-24.806-31.479-56.894-42.232-77.142c29.065,11.653,92.577,28.311,225.162,34.716c5.859,0.282,11.816,0.417,17.855,0.417
	c80.016,0,173.516-23.624,214.586-37.918C732.455,231.392,714.879,264.185,700.222,289.873z M751.203,195.996
	c-0.08,0.128-1.311,2.447-3.217,6.091c-35.729,13.645-149.467,44.239-237.367,39.929c-148.651-7.188-209.224-27.412-231.318-37.987
	c-2.652-5.023-4.33-8.217-4.459-8.449c-0.685-1.312-1.896-5.075-3.307-9.976c42.014,22.308,139.566,40.014,238.548,40.014
	c106.946,0,206.385-17.035,244.438-39.069C753.447,190.747,752.316,194.145,751.203,195.996z M757.299,172.7
	c-17.654,16.136-107.857,42.748-247.215,42.748c-126.13,0-216.503-26.389-242.341-43.855c-0.844-3.268-1.668-6.578-2.433-9.775
	c0.616-5.794,6.296-26.588,28.201-38.657c4.677-2.562,9.911-5.006,15.531-7.345c-0.08,0.552-0.179,1.078-0.179,1.63
	c0,30.604,102.735,46.61,204.219,46.61c101.486,0,204.201-16.007,204.201-46.61c0-0.09-0.02-0.193-0.02-0.283
	c6.514,2.824,12.391,5.813,17.535,8.966c19.305,11.807,23.693,30.809,23.951,36.18C758.373,165.619,757.877,169.17,757.299,172.7z"
	/>
</svg>
