<?xml version="1.0" encoding="utf-8"?>
<!-- Generator: Adobe Illustrator 14.0.0, SVG Export Plug-In . SVG Version: 6.00 Build 43363)  -->
<!DOCTYPE svg PUBLIC "-//W3C//DTD SVG 1.1//EN" "http://www.w3.org/Graphics/SVG/1.1/DTD/svg11.dtd">
<svg version="1.1" id="icon" xmlns="http://www.w3.org/2000/svg" xmlns:xlink="http://www.w3.org/1999/xlink" x="0px" y="0px"
	 width="1024px" height="1024px" viewBox="0 0 1024 1024" enable-background="new 0 0 1024 1024" xml:space="preserve">
<g>
	<path d="M552.921,247.235c24.521,0,40.811-17.122,44.41-41.096l12.339-98.526c0-22.689-19.888-41.09-44.411-41.09H458.752
		c-24.531,0-44.418,18.401-44.418,41.09l12.338,98.526c3.086,26.825,19.888,41.096,44.412,41.096
		c18.837,0,22.952-5.714,43.514-5.714C536.695,241.521,540.352,247.235,552.921,247.235"/>
	<polygon points="606.919,518 398.83,628.094 393.015,662.986 611.792,547.24 	"/>
	<polygon points="586.212,393.769 423.54,479.833 401.991,609.131 604.271,502.113 	"/>
	<polygon points="426.702,460.862 583.562,377.875 579.153,351.428 431.961,429.304 	"/>
	<path d="M379.202,807.254l23.695,28.174l236.109-124.914L617.088,579.01L386.694,700.908l-7.492,44.951
		C377.339,755.021,363.575,790.293,379.202,807.254"/>
	<path d="M449.843,891.242l45.027,53.535c15.627,16.934,18.734,16.934,34.367,0l115.661-137.523
		c5.718-6.205,7.439-14.475,7.266-23.057L449.843,891.242z"/>
	<path d="M573.857,319.657l-8.154-48.92c-15.627-16.955-91.673-16.955-107.312,0l-20.109,120.647L573.857,319.657z"/>
	<path d="M644.898,745.859l-0.597-3.576L423.024,859.357l16.749,19.912l210.308-111.266
		C648.148,758.883,645.495,750.721,644.898,745.859"/>
</g>
</svg>
