<?xml version="1.0" encoding="utf-8"?>
<!-- Generator: Adobe Illustrator 14.0.0, SVG Export Plug-In . SVG Version: 6.00 Build 43363)  -->
<!DOCTYPE svg PUBLIC "-//W3C//DTD SVG 1.1//EN" "http://www.w3.org/Graphics/SVG/1.1/DTD/svg11.dtd">
<svg version="1.1" id="icon" xmlns="http://www.w3.org/2000/svg" xmlns:xlink="http://www.w3.org/1999/xlink" x="0px" y="0px"
	 width="1024px" height="1024px" viewBox="0 0 1024 1024" enable-background="new 0 0 1024 1024" xml:space="preserve">
<g>
	<path d="M890.682,420.915c0-195.578-158.568-354.146-354.15-354.146h-48.98c-195.663,0-354.232,158.567-354.232,354.146
		c0,4.078,0.51,8.148,0.681,12.14c-0.171,1.954-0.681,3.906-0.681,5.86v422.309c0,53.056,43.039,96.007,95.922,96.007
		c48.727,0,88.453-36.161,94.904-83.019c6.281,46.857,46.008,83.019,94.565,83.019c47.026,0,85.903-33.7,94.223-78.178
		c8.488,44.478,47.365,78.178,94.309,78.178c45.924,0,84.295-32.427,93.631-75.549c9.508,43.122,47.791,75.549,93.799,75.549
		c53.055,0,96.01-42.951,96.01-96.007V438.915c0-1.954-0.512-3.906-0.598-5.86C890.17,429.063,890.682,424.993,890.682,420.915
		 M349.95,685.086c-80.303,0-145.41-65.111-145.41-145.496c0-80.309,65.107-145.497,145.41-145.497
		c80.474,0,145.582,65.188,145.582,145.497C495.532,619.975,430.423,685.086,349.95,685.086 M674.049,685.086
		c-80.389,0-145.496-65.111-145.496-145.496c0-80.309,65.107-145.497,145.496-145.497c80.301,0,145.494,65.188,145.494,145.497
		C819.543,619.975,754.35,685.086,674.049,685.086"/>
</g>
</svg>
