<?xml version="1.0" encoding="utf-8"?>
<!-- Generator: Adobe Illustrator 14.0.0, SVG Export Plug-In . SVG Version: 6.00 Build 43363)  -->
<!DOCTYPE svg PUBLIC "-//W3C//DTD SVG 1.1//EN" "http://www.w3.org/Graphics/SVG/1.1/DTD/svg11.dtd">
<svg version="1.1" id="icon" xmlns="http://www.w3.org/2000/svg" xmlns:xlink="http://www.w3.org/1999/xlink" x="0px" y="0px"
	 width="1024px" height="1024px" viewBox="0 0 1024 1024" enable-background="new 0 0 1024 1024" xml:space="preserve">
<g>
	<path d="M147.782,399.915H91.773c-15.493,0-28.004,12.512-28.004,28.004v504.075c0,15.479,12.511,28.004,28.004,28.004
		l56.008-0.576c15.493,0,28.004-12.523,28.004-28.002V427.359C175.786,411.893,163.275,399.915,147.782,399.915z"/>
	<path d="M956.783,419.071c-3.883-7.069-10.912-12.922-20.893-17.394c-2.518-1.12-5.17-1.872-7.877-2.241
		c-23.791-3.05-136.109-27.472-332.496-27.472c25.436-79.089,28.334-92.216,28.334-168.079c0-84.013-51.686-139.105-84.066-139.884
		c-15.344,0-27.813,12.347-27.977,27.662c-1.258,110.458-54.779,249.917-198.942,309.29c-15.178,4.787-25.377,18.05-25.377,33.091
		l0.231,441.94c0,23.629,25.79,28.004,25.79,28.004c7.986,2.354,14.726,4.951,141.757,35.58c2.159,0.492,85.475,20.43,169.489,20.43
		h167.121c31.504,0,46.381-10.502,55.625-27.951c1.148-2.24,112.018-227.23,112.729-499.424
		C960.23,427.891,959.082,423.215,956.783,419.071z"/>
</g>
</svg>
