<?xml version="1.0" encoding="utf-8"?>
<!-- Generator: Adobe Illustrator 14.0.0, SVG Export Plug-In . SVG Version: 6.00 Build 43363)  -->
<!DOCTYPE svg PUBLIC "-//W3C//DTD SVG 1.1//EN" "http://www.w3.org/Graphics/SVG/1.1/DTD/svg11.dtd">
<svg version="1.1" id="icon" xmlns="http://www.w3.org/2000/svg" xmlns:xlink="http://www.w3.org/1999/xlink" x="0px" y="0px"
	 width="1024px" height="1024px" viewBox="0 0 1024 1024" enable-background="new 0 0 1024 1024" xml:space="preserve">
<path id="settings_1_" d="M927.229,446.759l-88.759-14.807c-6.451-26.374-15.857-51.585-28.107-75.099l56.821-70.452
	c12.085-14.889,11.536-36.312-1.205-50.682l-35.301-39.73c-12.796-14.355-34.015-17.391-50.202-7.165l-75.906,47.716
	c-33.386-23.326-71.204-40.551-112-50.546l-14.85-89.235C574.604,77.864,558.253,64,539.059,64h-53.198
	c-19.155,0-35.561,13.864-38.609,32.759l-14.93,89.263c-33.729,8.258-65.353,21.588-94.213,39.144l-72.188-51.518
	c-15.558-11.115-36.927-9.377-50.504,4.171l-37.583,37.61c-13.548,13.577-15.286,34.946-4.142,50.504l51.638,72.326
	c-17.391,28.642-30.584,60.086-38.841,93.514l-89.743,14.986c-18.866,3.116-32.757,19.469-32.757,38.663v53.156
	c0,19.194,13.891,35.547,32.757,38.663l89.743,14.986c6.781,27.507,16.625,53.784,29.709,78.147l-56.562,70.054
	c-12.044,14.875-11.538,36.312,1.203,50.669l35.274,39.73c12.797,14.382,34.028,17.363,50.216,7.163l77-48.37
	c32.581,22.285,69.44,38.664,108.993,48.37l14.93,89.25C450.3,946.137,466.706,960,485.861,960h53.198
	c19.194,0,35.545-13.863,38.661-32.759l14.875-89.25c33.308-8.147,64.531-21.245,93.134-38.5l75.196,53.705
	c15.531,11.156,36.915,9.406,50.478-4.185l37.597-37.597c13.533-13.536,15.366-34.893,4.127-50.478l-53.536-75.059
	c17.442-28.738,30.704-60.238,38.909-93.816l88.758-14.821c18.921-3.116,32.756-19.469,32.756-38.663v-53.156
	C959.987,466.228,946.152,449.875,927.229,446.759z M513.409,680c-92.764,0-168-75.25-168-168c0-92.764,75.236-168,168-168
	c92.748,0,167.998,75.236,167.998,168C681.407,604.75,606.157,680,513.409,680z"/>
</svg>
