<?xml version="1.0" encoding="utf-8"?>
<!-- Generator: Adobe Illustrator 14.0.0, SVG Export Plug-In . SVG Version: 6.00 Build 43363)  -->
<!DOCTYPE svg PUBLIC "-//W3C//DTD SVG 1.1//EN" "http://www.w3.org/Graphics/SVG/1.1/DTD/svg11.dtd">
<svg version="1.1" id="icon" xmlns="http://www.w3.org/2000/svg" xmlns:xlink="http://www.w3.org/1999/xlink" x="0px" y="0px"
	 width="1024px" height="1024px" viewBox="0 0 1024 1024" enable-background="new 0 0 1024 1024" xml:space="preserve">
<g>
	<path d="M512,63.955c-113.817,0-217.569,43.042-296.71,113.214l44.794,30.137c68.558-56.293,156.34-90.149,251.916-90.149
		c218.635,0,396.496,177.124,396.496,394.843c0,217.706-177.861,394.828-396.496,394.828
		c-218.663,0-396.524-177.122-396.524-394.828c0-108.936,44.575-207.696,116.414-279.194l-23.983-48.909
		C119.632,265.772,63.955,382.377,63.955,512c0,247.049,200.996,448.045,448.045,448.045S960.045,759.049,960.045,512
		C960.045,264.925,759.049,63.955,512,63.955z"/>
	<path d="M159.614,512c0,97.409,46.296,185.163,97.845,247.678l25.761-19.499l65.302-82.777l-14.984-28.003l-75.86,52.943
		C224.562,633.692,206.212,575.197,206.212,512c0-72.755,25.759-139.454,68.529-191.767l-19.936-40.679
		C196.312,340.729,159.614,422.194,159.614,512z"/>
	<path d="M282.043,253.821l-16.38-11.007l20.646,42.1l7.138,14.548l0,0l114.8,234.224c3.611,16.161,10.612,30.271,20.895,42.058
		c18.158,20.812,44.411,32.762,72.058,32.762h0.026c23.026,0,45.26-8.312,62.68-23.436c19.359-16.846,30.982-40.227,32.679-65.782
		c1.723-25.487-6.537-50.099-23.327-69.364c-10.473-11.992-23.79-20.948-38.203-25.926l-217.788-146.48l0.028-0.013l-35.222-23.696
		L282.043,253.821z"/>
	<path d="M683.736,631.641l-6.153,28.905l69.541,77.911l25.762,21.221c51.548-62.515,94.646-150.269,94.646-247.665
		c0-189.633-165.528-343.375-355.532-343.375c-76.98,0-149.147,25.542-208.107,68.134l35.715,24.022
		c48.54-33.02,107.061-52.478,170.067-52.875c56.99,0.369,111.655,16.504,159.211,43.973
		c88.301,53.258,147.562,149.64,147.562,260.12c0,62.719-18.952,120.886-51.631,169.289L683.736,631.641z"/>
</g>
</svg>
