<?xml version="1.0" encoding="utf-8"?>
<!-- Generator: Adobe Illustrator 14.0.0, SVG Export Plug-In . SVG Version: 6.00 Build 43363)  -->
<!DOCTYPE svg PUBLIC "-//W3C//DTD SVG 1.1//EN" "http://www.w3.org/Graphics/SVG/1.1/DTD/svg11.dtd">
<svg version="1.1" id="icon" xmlns="http://www.w3.org/2000/svg" xmlns:xlink="http://www.w3.org/1999/xlink" x="0px" y="0px"
	 width="1024px" height="1024px" viewBox="0 0 1024 1024" enable-background="new 0 0 1024 1024" xml:space="preserve">
<g>
	<path d="M162.102,840.796c-7.537,0-13.632,6.122-13.632,13.632s6.095,13.632,13.632,13.632s13.632-6.122,13.632-13.632
		S169.639,840.796,162.102,840.796z"/>
	<path d="M427.092,464.356c0,7.51,6.095,13.604,13.632,13.604s13.632-6.095,13.632-13.604c0-7.537-6.095-13.632-13.632-13.632
		S427.092,456.819,427.092,464.356z"/>
	<path d="M524.338,533.713c7.496,0,13.591-6.122,13.591-13.632c0-7.537-6.095-13.632-13.591-13.632
		c-7.564,0-13.659,6.095-13.659,13.632C510.679,527.591,516.773,533.713,524.338,533.713z"/>
	<path d="M932.761,89.441c-41.957-15.101-89.056-23.073-136.264-23.073c-68.24,0-129.08,16.516-175.88,47.779
		c-35.617,23.835-60.758,57.819-85.11,90.743l-10.026,13.468c-32.107,42.664-68.567,91.069-93.273,120.728
		c-15.291,18.447-38.419,43.018-65.166,71.451c-58.854,62.554-139.447,148.208-204.178,240.529
		c-61.982,88.457-103.721,191.308-94.987,234.107l2.014,9.904l8.489,6.448c36.651,27.862,64.296,45.412,138.794,53.738l21.469,2.367
		l9.469-17.931l4.952-9.605c13.495-26.175,36.133-69.981,72.757-118.931c17.795-23.699,42.555-49.575,66.526-74.607l14.774-15.482
		c80.975-85.491,182.587-157.541,183.594-158.248l1.47-1.034l1.333-1.225c0.136-0.108,8.408-7.237,36.705-26.828
		c13.659-9.496,18.639-23.427,20.57-34.012C822.073,351.385,925.85,220.808,951.29,121.82l5.986-23.562L932.761,89.441z
		 M881.39,104.025c-44.024,143.991-217.266,289.207-287.52,347.325l-29.494-19.128c84.838-69.655,222.544-183.172,277.751-334.918
		c-1.823-0.217-3.619-0.408-5.442-0.625C851.949,98.339,866.941,100.761,881.39,104.025z M456.314,356.064
		c24.38-29.305,59.316-75.614,94.103-121.87c27.346-36.433,52.188-73.52,88.049-97.463c44.569-29.794,101.627-42.474,158.031-42.474
		c10.53,0,20.896,0.979,31.264,1.877c-54.99,146.849-190.084,257.889-273.044,325.993l-2.585,2.122l-99.109-64.35
		C454.083,358.649,455.308,357.262,456.314,356.064z M611.965,511.456c-31.372,21.74-39.671,29.223-39.671,29.223
		s-103.953,73.301-188.029,162.058c-28.298,29.849-60.785,62.445-83.369,92.593c-43.072,57.466-67.614,108.51-80.104,132.236
		c-65.52-7.319-88.702-21.359-123.148-47.562c-6.259-30.719,29.386-126.305,90.688-213.81
		c81.302-115.911,187.172-220.231,246.107-285.152l184.872,120.074C617.814,505.361,615.556,508.952,611.965,511.456z
		 M633.052,476.791l-26.965-17.495c73.329-60.704,244.802-206.082,288.935-352.114c9.17,2.449,18.176,5.143,26.72,8.218
		C887.702,248.18,710.054,410.021,633.052,476.791z"/>
</g>
</svg>
