<?xml version="1.0" encoding="utf-8"?>
<!-- Generator: Adobe Illustrator 14.0.0, SVG Export Plug-In . SVG Version: 6.00 Build 43363)  -->
<!DOCTYPE svg PUBLIC "-//W3C//DTD SVG 1.1//EN" "http://www.w3.org/Graphics/SVG/1.1/DTD/svg11.dtd">
<svg version="1.1" id="icon" xmlns="http://www.w3.org/2000/svg" xmlns:xlink="http://www.w3.org/1999/xlink" x="0px" y="0px"
	 width="1024px" height="1024px" viewBox="0 0 1024 1024" enable-background="new 0 0 1024 1024" xml:space="preserve">
<path d="M1436,160"/>
<g>
	<path d="M897.49,283.497c-23.994-12.901-56.783-24.116-97.452-33.335c-77.427-17.55-179.721-27.215-288.038-27.215
		s-210.612,9.666-288.038,27.215c-40.67,9.219-73.458,20.434-97.453,33.335c-49.166,26.435-59.486,59.636-59.486,82.833
		c0,58.846,11.843,115.946,35.199,169.716c22.505,51.811,54.687,98.304,95.651,138.191c40.863,39.79,88.431,71.022,141.384,92.831
		c54.756,22.551,112.875,33.985,172.744,33.985c59.869,0,117.988-11.435,172.744-33.985
		c52.953-21.809,100.521-53.041,141.383-92.831c40.965-39.888,73.147-86.381,95.651-138.191
		c23.356-53.77,35.199-110.87,35.199-169.716C956.978,343.133,946.657,309.932,897.49,283.497z M873.766,507.074
		c0,0.739-0.04,1.479-0.1,2.222c-3.049,7.303-6.32,14.493-9.812,21.562c-15.159,18.518-47.113,36.533-91.67,50.926
		c-69.338,22.396-161.74,34.73-260.184,34.73c-98.444,0-190.845-12.335-260.183-34.73c-44.558-14.393-76.512-32.408-91.67-50.926
		c-3.492-7.068-6.764-14.259-9.812-21.562c-0.06-0.742-0.1-1.483-0.1-2.222h-0.816c-12.783-31.196-21.441-64.428-25.323-99.059
		c5.222,3.979,11.276,7.782,18.168,11.396c21.368,11.203,51.331,21.127,89.058,29.494c75.215,16.681,174.895,25.868,280.677,25.868
		s205.462-9.187,280.678-25.868c37.727-8.367,67.689-18.291,89.058-29.494c6.893-3.614,12.946-7.416,18.168-11.395
		c-3.881,34.63-12.54,67.861-25.322,99.058H873.766z M512,441.926c-102.471,0-200.738-9.032-272.85-24.932
		c6.856-7.096,16.832-10.994,27.104-9.924l11.004,1.148l1.034-11.016c1.59-16.949,15.646-29.73,32.694-29.73
		c13.639,0,26.008,8.584,30.779,21.359l5.42,14.514l11.871-9.955c9.829-8.241,22.309-12.78,35.142-12.78
		c11.259,0,22.082,3.404,31.299,9.844l12.181,8.51l4.52-14.156c3.14-9.833,12.189-16.44,22.521-16.44
		c3.886,0,7.59,0.915,11.008,2.72l10.557,5.573l4.642-10.999c5.15-12.204,17.036-20.089,30.28-20.089
		c13.639,0,26.007,8.584,30.779,21.359l5.421,14.513l11.872-9.954c9.827-8.241,22.308-12.78,35.141-12.78
		c14.831,0,28.723,5.846,39.113,16.461l6.153,6.286l7.465-4.654c5.198-3.241,11.194-4.955,17.342-4.955
		c8.346,0,16.304,3.142,22.409,8.846l6.228,5.817l7.168-4.607c10.234-6.578,22.084-10.055,34.269-10.055
		c26.469,0,49.959,16.586,59.262,40.644C730.426,431.246,624.998,441.926,512,441.926z M827.995,417.12
		c-8.485-38.968-43.423-67.166-83.429-67.166c-13.718,0-27.123,3.277-39.204,9.536c-9.045-6.193-19.75-9.536-30.869-9.536
		c-7.381,0-14.636,1.484-21.36,4.337c-13.688-11.323-30.703-17.476-48.713-17.476c-13.514,0-26.745,3.594-38.331,10.284
		c-10.1-14.391-26.823-23.422-44.882-23.422c-18.486,0-35.382,9.217-45.425,24.162c-3.61-0.904-7.331-1.368-11.062-1.368
		c-15.334,0-29.204,7.56-37.529,19.7c-10.244-4.904-21.455-7.457-32.992-7.457c-13.512,0-26.745,3.594-38.332,10.284
		c-10.098-14.391-26.821-23.423-44.881-23.423c-24.96,0-46.071,16.445-52.635,39.601c-20.808,1.727-39.24,15.413-46.729,35.145
		l-0.434,1.143c-55.854-14.972-89.421-34.183-89.421-55.133c0-47.798,174.713-86.545,390.232-86.545
		c215.519,0,390.232,38.747,390.232,86.545C902.232,385.307,874.691,402.855,827.995,417.12z M512,746.309
		c-134.31,0-252.768-66.072-322.973-166.654c15.839,8.34,34.57,16.025,56.059,22.967c71.455,23.08,166.246,35.791,266.914,35.791
		s195.459-12.711,266.914-35.791c21.488-6.941,40.221-14.627,56.058-22.967C764.767,680.236,646.31,746.309,512,746.309z"/>
	<circle cx="595.66" cy="409.079" r="8.759"/>
	<circle cx="639.456" cy="413.459" r="14.6"/>
	<circle cx="604.42" cy="378.422" r="5.84"/>
</g>
</svg>
