<?xml version="1.0" encoding="utf-8"?>
<!-- Generator: Adobe Illustrator 14.0.0, SVG Export Plug-In . SVG Version: 6.00 Build 43363)  -->
<!DOCTYPE svg PUBLIC "-//W3C//DTD SVG 1.1//EN" "http://www.w3.org/Graphics/SVG/1.1/DTD/svg11.dtd">
<svg version="1.1" xmlns="http://www.w3.org/2000/svg" xmlns:xlink="http://www.w3.org/1999/xlink" x="0px" y="0px" width="1024px"
	 height="1024px" viewBox="0 0 1024 1024" enable-background="new 0 0 1024 1024" xml:space="preserve">
<g id="icon">
	<path d="M684.006,351.189c-14.969-22.504-38.49-42.718-83.894-72.097c-9.088-5.88-14.104-10.575-15.338-14.353
		c-1.273-3.9-0.217-11.172,1.12-20.38c4.44-30.59,11.154-76.818-45.106-135.417l-36.235-37.741
		c-5.354-5.576-13.654-7.151-20.676-3.918c-7.023,3.23-11.229,10.556-10.478,18.25l5.081,52.073
		c2.861,29.321-2.872,48.453-18.586,62.032c-15.421,13.325-39.024,20.455-59.848,26.745c-2.48,0.75-4.91,1.483-7.275,2.211
		c-19.033,5.856-31.982,15.987-38.487,30.109c-6.423,13.945-4.56,27.127-1.516,36.893c-3.318,1.488-7.097,3.477-10.778,6.12
		c-10.583,7.598-16.81,17.978-18.009,30.018c-0.703,7.067,0.01,19.69,10.657,31.627c-4.562,4.568-7.968,9.237-10.641,14.418
		c-8.836,17.128-5.147,32.512-2.943,41.703c1.25,5.212,2.241,9.348,1.976,15.841c-0.082,0.967-0.136,1.947-0.162,2.924
		c-0.076,1.654-0.065,3.358,0.03,5.074c0.902,41.122,16.831,80.585,45.022,111.852c3.651,28.246,16.543,54.875,36.842,76.044
		l76.313,295.864c7.286,28.247,25.617,31.297,33.16,31.297s25.872-3.05,33.159-31.297l76.311-295.856
		c20.308-21.172,33.204-47.809,36.854-76.062c29.107-32.276,45.062-73.082,45.062-115.601
		C705.619,406.024,701.943,378.161,684.006,351.189z M482.453,248.382c12.634-15.439,25.639-31.357,34.547-49.412
		c-2.527,13.526-6.637,26.998-10.699,40.311c-7.238,23.717-14.074,46.118-10.386,66.21c4.265,23.233,22.064,39.526,54.415,49.808
		c38.965,12.384,60.186,37.509,56.765,67.209c-3.087,26.812-28.884,57.435-78.227,61.312l0.103,1.296
		c-4.852,0.134-9.765,0.205-14.735,0.205c-21.397,0-41.776-1.281-60.318-3.593c7.444-3.566,14.221-8.35,20.062-14.286
		c26.454-26.88,33.115-77.38-11.634-129.608C436.45,307.613,452.267,285.271,482.453,248.382z M359.179,441.9
		c0-0.034-0.003-0.067-0.003-0.102c-0.063-0.721-0.085-1.46-0.03-2.236c0-0.301,0.016-0.6,0.039-0.899
		c0.006-0.081,0.015-0.161,0.021-0.242c0.011-0.119,0.02-0.238,0.032-0.357c0,0,0-0.001,0-0.001
		c0.039-0.706,0.065-1.394,0.087-2.074c0.006-0.203,0.011-0.401,0.016-0.601c0.012-0.501,0.02-0.996,0.024-1.483
		c0.001-0.187,0.003-0.376,0.003-0.562c0-0.641-0.004-1.273-0.019-1.89c-0.001-0.065-0.004-0.128-0.006-0.194
		c-0.014-0.556-0.033-1.102-0.058-1.64c-0.008-0.19-0.018-0.378-0.028-0.568c-0.022-0.431-0.048-0.856-0.077-1.276
		c-0.011-0.17-0.022-0.343-0.035-0.512c-0.042-0.558-0.088-1.107-0.14-1.645c-0.01-0.107-0.022-0.211-0.033-0.318
		c-0.044-0.441-0.091-0.876-0.142-1.304c-0.021-0.179-0.042-0.355-0.065-0.532c-0.046-0.375-0.095-0.744-0.146-1.109
		c-0.021-0.151-0.041-0.304-0.062-0.453c-0.071-0.488-0.144-0.968-0.221-1.438c-0.021-0.125-0.042-0.246-0.062-0.37
		c-0.061-0.36-0.121-0.716-0.185-1.066c-0.03-0.167-0.06-0.332-0.091-0.497c-0.061-0.326-0.122-0.646-0.185-0.964
		c-0.026-0.136-0.053-0.273-0.08-0.407c-0.085-0.425-0.172-0.843-0.26-1.253c-0.03-0.143-0.061-0.281-0.091-0.421
		c-0.063-0.289-0.126-0.574-0.189-0.856c-0.036-0.163-0.073-0.324-0.11-0.486c-0.062-0.27-0.123-0.536-0.184-0.8
		c-0.033-0.139-0.064-0.279-0.097-0.417c-0.085-0.359-0.168-0.712-0.251-1.06c-0.112-0.467-0.222-0.927-0.329-1.375
		c-3.107-12.983-4.091-18.804,22.721-34.836c40.714-24.346-50.815-33.421-6.352-48.847c54.686-18.973-16.333-49.001,30.853-63.52
		c19.134-5.888,42.595-12.19,63.093-24.113c-13.567,16.599-26.149,32.414-31.994,49.59c-7.295,21.441-2.71,41.354,14.018,60.877
		c37.257,43.485,33.114,84.104,12.481,105.071c-20.248,20.573-59.121,26.031-100.383-8.078
		C359.85,445.207,359.348,443.632,359.179,441.9z M514.234,910.311l-69.763-270.466c20.639,12.384,44.68,19.035,69.763,19.035
		c25.081,0,49.121-6.65,69.761-19.032L514.234,910.311z M514.234,640.731c-48.478,0-89.695-28.63-104.868-68.55
		c3.227,1.842,6.67,3.597,10.325,5.258c25.412,11.547,58.988,17.906,94.543,17.906c35.556,0,69.13-6.359,94.542-17.906
		c3.662-1.664,7.105-3.424,10.338-5.271C603.942,612.095,562.716,640.731,514.234,640.731z M625.334,539.321
		c0,0.006-0.001,0.013-0.001,0.02c-5.423,5.521-13.555,10.931-23.692,15.539c-23.188,10.533-54.229,16.337-87.406,16.337
		s-64.219-5.804-87.407-16.337c-10.136-4.607-18.263-10.013-23.684-15.53c0-0.007,0-0.014,0-0.021
		c-18.873-17.863-32.71-40.264-39.428-65.256c11.696,7.46,27.882,13.699,48.408,18.632c29.299,7.042,64.608,10.764,102.111,10.764
		c38.778,0,76.429-4.166,106.013-11.73c18.703-4.782,33.575-10.705,44.528-17.705C658.059,499.039,644.211,521.449,625.334,539.321z
		 M669.269,440.761c-0.158,2.129-0.749,4.038-1.725,5.75c-7.148,13.844-35.326,25.646-74.61,32.487
		c1.146-0.893,2.271-1.806,3.374-2.746c16.351-13.939,26.584-32.288,28.816-51.666c3.467-30.107-12.917-68.663-69.297-86.582
		c-55.313-17.58-46.106-47.753-32.168-93.425c7.516-24.627,16.216-53.154,13.235-82.48c43.07,68.899-24.94,103.183,43.499,147.467
		c60.79,39.335,80.994,60.997,86.827,97.115c0.584,3.616,1.023,7.377,1.346,11.315c0.005,0.047,0.008,0.094,0.012,0.142
		c0.105,1.296,0.199,2.611,0.279,3.947c0.001,0.011,0.002,0.021,0.002,0.033c0.159,2.628,0.271,5.339,0.344,8.133
		c0.006,0.183,0.011,0.366,0.016,0.55c0.032,1.297,0.056,2.613,0.073,3.949c0.003,0.212,0.004,0.427,0.006,0.641
		c0.016,1.371,0.023,2.757,0.023,4.17C669.321,439.963,669.304,440.362,669.269,440.761z"/>
</g>
<g id="Layer_2">
</g>
</svg>
