<?xml version="1.0" encoding="utf-8"?>
<!-- Generator: Adobe Illustrator 14.0.0, SVG Export Plug-In . SVG Version: 6.00 Build 43363)  -->
<!DOCTYPE svg PUBLIC "-//W3C//DTD SVG 1.1//EN" "http://www.w3.org/Graphics/SVG/1.1/DTD/svg11.dtd">
<svg version="1.1" id="icon" xmlns="http://www.w3.org/2000/svg" xmlns:xlink="http://www.w3.org/1999/xlink" x="0px" y="0px"
	 width="1024px" height="1024px" viewBox="0 0 1024 1024" enable-background="new 0 0 1024 1024" xml:space="preserve">
<path d="M1436,160"/>
<path d="M65.432,177.384v288.012h41.689c122.485,0,213.278,94.557,277.568,289.076c16.93,51.227,53.82,83.394,103.875,90.577
	l0.917,0.121c7.61,0.92,15.111,1.406,22.293,1.445h0.376h0.076c7.181-0.039,14.682-0.525,22.292-1.445l0.918-0.121
	c50.054-7.184,86.944-39.351,103.874-90.577c64.291-194.519,155.084-289.076,277.568-289.076h41.689V177.384H65.432z
	 M585.928,736.829c-10.293,31.146-29.37,48.335-58.314,52.543c-5.398,0.647-10.648,0.99-15.613,1.021
	c-4.964-0.03-10.215-0.373-15.61-1.021c-28.947-4.206-48.023-21.396-58.317-52.543c-7.813-23.642-15.989-45.89-24.55-66.802
	L512,589.869l98.478,80.158C601.918,690.939,593.741,713.188,585.928,736.829z M512,554.855l-109.612,89.22
	c-6.594-14.662-13.404-28.604-20.445-41.832l94.754-77.125V316.83h70.605v208.288l94.753,77.126
	c-7.04,13.229-13.85,27.169-20.442,41.831L512,554.855z M655.563,578.223l-81.105-66.016V316.83h327.888v92.7
	c-69.566,3.444-131.055,31.788-182.948,84.381C696.315,517.305,675.106,545.3,655.563,578.223z M574.458,289.674H449.542H121.655
	v-56.066h780.691v56.066H574.458z M449.542,316.83v195.377l-81.105,66.016c-19.543-32.923-40.752-60.918-63.835-84.312
	c-51.893-52.594-113.381-80.937-182.947-84.381v-92.7H449.542z"/>
</svg>
