<?xml version="1.0" encoding="utf-8"?>
<!-- Generator: Adobe Illustrator 14.0.0, SVG Export Plug-In . SVG Version: 6.00 Build 43363)  -->
<!DOCTYPE svg PUBLIC "-//W3C//DTD SVG 1.1//EN" "http://www.w3.org/Graphics/SVG/1.1/DTD/svg11.dtd">
<svg version="1.1" id="icon" xmlns="http://www.w3.org/2000/svg" xmlns:xlink="http://www.w3.org/1999/xlink" x="0px" y="0px"
	 width="1024px" height="1024px" viewBox="0 0 1024 1024" enable-background="new 0 0 1024 1024" xml:space="preserve">
<g>
	<path d="M626.535,256.635l0.156-72.204L375.325,63.118l-0.239,109.847L265.724,330.643v522.459l221.367,107.78L758.276,854.81
		V321.53L626.535,256.635z M670.456,322.215l-86.266-11.485l16.012-23.089L670.456,322.215z M689.165,344.582l-175.227,67.451
		l57.633-83.107L689.165,344.582z M414.593,125.822l172.641,83.319l-0.109,50.239l-172.641-83.319L414.593,125.822z
		 M477.749,911.722l-172.621-83.309v-472.81l172.621,83.309V911.722z M484.301,420.198L309.942,336.05l97.975-141.28l174.359,84.147
		L484.301,420.198z M718.872,827.833l-221.421,85.233V439.491l221.421-85.233V827.833z"/>
	<path d="M614.471,731.207c62.935-24.273,44.425-129.969-6.91-185.015C563.135,629.761,551.535,755.481,614.471,731.207z"/>
</g>
</svg>
