<?xml version="1.0" encoding="utf-8"?>
<!-- Generator: Adobe Illustrator 14.0.0, SVG Export Plug-In . SVG Version: 6.00 Build 43363)  -->
<!DOCTYPE svg PUBLIC "-//W3C//DTD SVG 1.1//EN" "http://www.w3.org/Graphics/SVG/1.1/DTD/svg11.dtd">
<svg version="1.1" id="icon" xmlns="http://www.w3.org/2000/svg" xmlns:xlink="http://www.w3.org/1999/xlink" x="0px" y="0px"
	 width="1024px" height="1024px" viewBox="0 0 1024 1024" enable-background="new 0 0 1024 1024" xml:space="preserve">
<path d="M805.233,63.863L653.086,248.298c-41.757-23.773-91.696-35.617-142.944-35.617c-51.609,0-100.07,12.018-142.026,36.165
	L219.203,63.863l-0.104,463.282c-0.748,12.104,0,24.435,0,37.27c0,177.253,72.321,329.374,175.791,394.853
	c-58.27-75.131-108.722-156.678-85.348-235.878c133.931-5.392,148.087-6.104,148.087-6.104l47.305,38.557l58.178-38.557
	c97.409,0.695,143.383,2.713,143.383,2.713c6.035,49.635-2.592,158.486-85.869,240.139
	c104.156-65.043,177.912-217.704,177.912-395.704c0-12.47-0.547-24.521-0.547-36.296L805.233,63.863z M444.568,586.294
	c-13.983,5.6-45.296,24.052-59.844,28.521c-14.548,4.487-34.67,7.27-42.504,0s-33.009-31.321-38.035-36.904
	c-5.035-5.617-8.392-50.365,21.252-48.104c30.191,2.278,111.861,35.791,116.896,37.461
	C447.368,568.955,458.551,580.693,444.568,586.294z M711.833,577.911c-5.026,5.583-30.208,29.635-38.026,36.904
	c-7.852,7.27-27.956,4.487-42.504,0c-14.539-4.47-45.861-22.922-59.844-28.521c-14-5.601-2.8-17.339,2.227-19.026
	c5.035-1.67,86.704-35.183,116.904-37.461C720.242,527.546,716.885,572.294,711.833,577.911z"/>
</svg>
