<?xml version="1.0" encoding="utf-8"?>
<!-- Generator: Adobe Illustrator 14.0.0, SVG Export Plug-In . SVG Version: 6.00 Build 43363)  -->
<!DOCTYPE svg PUBLIC "-//W3C//DTD SVG 1.1//EN" "http://www.w3.org/Graphics/SVG/1.1/DTD/svg11.dtd">
<svg version="1.1" id="icon" xmlns="http://www.w3.org/2000/svg" xmlns:xlink="http://www.w3.org/1999/xlink" x="0px" y="0px"
	 width="1024px" height="1024px" viewBox="0 0 1024 1024" enable-background="new 0 0 1024 1024" xml:space="preserve">
<path d="M464.23,782.694c0,0,0,15.923-31.846,15.923c-29.896,0-66.01-18.702-88.862-32.702l-118.14-78.76l47.77-47.77
	L97.997,607.539l47.77,159.232l47.77-47.771L512,957.85l318.463-238.849l47.77,47.771l47.77-159.232l-175.155,31.847l47.77,47.77
	L680.48,765.914c-22.854,14-58.967,32.703-88.864,32.703c-31.847,0-31.847-15.923-31.847-15.923V464.23h334.387l-95.539-95.539
	H559.769v-57.039c46.683-18.898,79.616-64.658,79.616-118.117c0-70.353-57.032-127.385-127.386-127.385
	c-70.353,0-127.385,57.032-127.385,127.385c0,53.459,32.934,99.219,79.616,118.117v57.039H225.383l-95.54,95.539H464.23
	 M511.999,145.767c26.383,0,47.77,21.387,47.77,47.77s-21.387,47.77-47.77,47.77c-26.381,0-47.769-21.387-47.769-47.77
	S485.618,145.767,511.999,145.767z"/>
</svg>
