<?xml version="1.0" encoding="utf-8"?>
<!-- Generator: Adobe Illustrator 14.0.0, SVG Export Plug-In . SVG Version: 6.00 Build 43363)  -->
<!DOCTYPE svg PUBLIC "-//W3C//DTD SVG 1.1//EN" "http://www.w3.org/Graphics/SVG/1.1/DTD/svg11.dtd">
<svg version="1.1" id="icon" xmlns="http://www.w3.org/2000/svg" xmlns:xlink="http://www.w3.org/1999/xlink" x="0px" y="0px"
	 width="1024px" height="1024px" viewBox="0 0 1024 1024" enable-background="new 0 0 1024 1024" xml:space="preserve">
<g>
	<path d="M688.244,319.514v-25.797c17.071-29.872,20.129-61.084,20.381-64.522c0-37.326-26.115-112.039-124.84-128.474
		c-51.912-8.663-71.468-17.134-85.735-23.248c-14.84-6.37-27.644-11.847-57.452-11.847c-129.682,0-267.9,12.61-267.9,163.568
		c0,43.313,15.413,93.823,58.982,94.014V902.45c0,0,12.609,55.924,228.281,55.924c215.546,0,228.283-55.924,228.283-55.924v-75.542
		c91.083-5.225,163.059-59.428,163.059-126.37V445.82C851.302,379.006,779.327,324.736,688.244,319.514 M632.447,804.613
		c0,0-3.185,55.926-172.486,55.926c-169.428,0-169.874-55.926-169.874-55.926V283.845c9.108,11.337,25.16,19.873,55.733,21.273
		v445.355c0,15.73-7.262,28.536-16.306,28.536c-9.045,0-16.306-12.806-16.306-28.536v28.536c0,18.025,14.585,32.61,32.611,32.61
		c17.962,0,32.612-14.585,32.612-32.61V372.826c5.604,15.096,15.923,29.044,37.069,36.114l14.397,4.715
		c16.176,5.159,24.585,8.343,30.062,12.229v357.202c0,15.731-7.323,28.533-16.306,28.533c-9.045,0-16.305-12.802-16.305-28.533
		v28.533c0,18.025,14.584,32.613,32.61,32.613c17.964,0,32.611-14.588,32.611-32.613V589.453
		c11.339,26.75,27.898,46.88,52.356,46.88c6.245,0,17.326-1.275,29.174-6.753v120.894c0,15.73-7.261,28.536-16.306,28.536
		s-16.305-12.806-16.305-28.536v28.536c0,18.025,14.52,32.61,32.61,32.61c17.963,0,32.612-14.585,32.612-32.61V596.715
		c8.663-16.435,14.906-38.92,14.906-71.849c0-88.28,5.348-134.397,10.826-159.108V804.613z M648.626,264.735
		c-5.86,11.593-14.65,23.059-27.645,29.555c-6.368,3.313-11.849,8.791-16.943,15.415c-17.452,23.439-26.878,69.681-29.936,148.153
		c-0.893,20.383-1.399,42.103-1.399,67.008c0,14.395-1.912,60.128-25.863,62.484c-12.673-11.019-29.555-77.389-29.555-132.04
		c0-35.286-8.786-54.014-24.713-66.497c-9.17-7.134-20.571-12.355-34.269-17.197c-4.33-1.529-8.66-3.058-13.376-4.522l-12.482-4.014
		l-1.466-0.51c-1.465-0.509-2.546-1.209-3.629-2.165c-4.013-3.058-5.86-9.936-7.518-29.809
		c-2.037-23.822-6.114-73.632-66.115-73.632c-21.019,0-25.924-3.693-27.26-6.751c-3.504-8.409-11.657-28.153-42.359-28.153
		c-34.968,0-44.648,29.045-49.362,42.93c-1.147,3.567-2.93,8.917-2.166,9.556c-4.903-3.313-10.893-24.905-10.955-45.352
		c0-85.734,55.223-114.65,218.982-114.65c19.745,0,25.479,2.482,38.09,7.897c16.562,7.134,39.3,16.879,97.072,26.496
		c80.385,13.376,83.694,73.697,84.075,78.09C659.835,227.283,657.925,246.264,648.626,264.735 M791.301,668.752
		c0,35.543-18.724,101.466-103.057,108.474V385.374c101.911,6.178,103.057,74.651,103.057,110.574V668.752z"/>
</g>
</svg>
