<?xml version="1.0" encoding="utf-8"?>
<!-- Generator: Adobe Illustrator 14.0.0, SVG Export Plug-In . SVG Version: 6.00 Build 43363)  -->
<!DOCTYPE svg PUBLIC "-//W3C//DTD SVG 1.1//EN" "http://www.w3.org/Graphics/SVG/1.1/DTD/svg11.dtd">
<svg version="1.1" id="icon" xmlns="http://www.w3.org/2000/svg" xmlns:xlink="http://www.w3.org/1999/xlink" x="0px" y="0px"
	 width="1024px" height="1024px" viewBox="0 0 1024 1024" enable-background="new 0 0 1024 1024" xml:space="preserve">
<g>
	<path d="M896.002,282.04c-13.609,31.156-69.766,41.344-99.969,44.641c-0.406-1.242-0.844-2.461-1.266-3.711
		c81.672-31.695,79.219-154.827,79.219-154.827c-2.453,45.242-70.5,83.038-101.312,97.851c-0.844-1.867-1.75-3.68-2.641-5.57
		c41.516-48.733,59.953-153.835,59.953-153.835c-4.5,33.117-59.047,77.219-89.594,99.555
		c-50.547-79.477-119.25-130.703-198.639-140.469C356.692,42.923,139.74,253.961,128.271,587.827
		c-6.797,198.468,114.125,345.983,299.217,368.748c185.029,22.75,379.217-66.343,400.342-313.451
		c7.953-93.093,1.719-180.632-15.875-258.17C867.299,363.993,896.002,282.04,896.002,282.04z M755.705,633.608
		c-3.391,36.062-11.797,70.187-23.969,101.765c12.156-35.422,18.953-74.203,18.953-114.89c0-91.968-34.344-174.187-88.391-229.85
		c3.391,9.344,5.453,19.758,5.453,30.929c0,19.117-5.562,36.398-14.547,48.93c18.172,33.711,28.875,74.54,28.875,118.585
		c0,115.577-73.25,209.249-163.561,209.249c-27.766,0-53.829-8.859-76.75-24.438c0.203,2.828,0.328,5.672,0.328,8.562
		c0,53.25-30.891,96.406-68.984,96.406c-3.688,0-7.281-0.531-10.812-1.297c39.046,29.25,85.046,46.422,134.483,46.422
		c39.329,0,76.438-11,109.672-30.078c-46.078,29.531-99.235,44.516-154.422,39.562c-150.953-13.562-259.702-169.781-242.921-348.952
		c16.781-179.163,152.734-313.42,303.655-299.866C663.721,298.204,772.471,454.445,755.705,633.608z"/>
	<path d="M242.896,620.483c0,80.968,26.688,154.343,69.937,208.765c-5.531-13.859-8.703-29.812-8.703-46.797
		c0-53.25,30.875-96.422,68.984-96.422c0.156,0,0.312,0.031,0.469,0.031c-11.875-28.984-18.64-61.968-18.64-96.983
		c0-115.585,73.25-209.249,163.578-209.249c19.391,0,37.922,4.547,55.203,12.484c7.609-22.625,23.656-38.484,42.514-39.602
		C580.629,329.977,539.988,317,496.785,317C356.583,317,242.896,452.867,242.896,620.483z"/>
</g>
</svg>
