<?xml version="1.0" encoding="utf-8"?>
<!-- Generator: Adobe Illustrator 14.0.0, SVG Export Plug-In . SVG Version: 6.00 Build 43363)  -->
<!DOCTYPE svg PUBLIC "-//W3C//DTD SVG 1.1//EN" "http://www.w3.org/Graphics/SVG/1.1/DTD/svg11.dtd">
<svg version="1.1" id="icon" xmlns="http://www.w3.org/2000/svg" xmlns:xlink="http://www.w3.org/1999/xlink" x="0px" y="0px"
	 width="1024px" height="1024px" viewBox="0 0 1024 1024" enable-background="new 0 0 1024 1024" xml:space="preserve">
<g>
	<path d="M430.484,154.156c2.5,12.016,14.609,21.844,26.891,21.844h109.25c12.281,0,24.391-9.828,26.891-21.844l13.219-68.305
		C609.234,73.836,601.25,64,588.953,64H435.047c-12.297,0-20.297,9.836-17.781,21.852L430.484,154.156z"/>
	<path d="M441.188,192c-12.281,0-22.344,10.047-22.344,22.336v19.328c0,12.289,10.062,22.336,22.344,22.336h141.609
		c12.266,0,22.328-10.047,22.328-22.336v-19.328c0-12.289-10.062-22.336-22.328-22.336H441.188z"/>
	<path d="M722.922,372.641l-88.891-87.266c-8.109-8.258-19.359-13.391-31.859-13.375H421.844c-12.344,0-23.516,4.992-31.625,13.07
		l-89.078,87.508C293.031,380.641,288,391.82,288,404.227v511.117C288,939.906,308.094,960,332.656,960h358.688
		C715.906,960,736,939.906,736,915.344V404.227C736,392.797,731.641,381.359,722.922,372.641z M642.766,708.688
		c6.25,6.25,6.25,16.375,0,22.625l-48,48c-6.266,6.25-16.375,6.25-22.625,0L512,719.188l-60.125,60.125
		c-6.25,6.25-16.375,6.25-22.625,0l-48-48c-6.25-6.25-6.25-16.375,0-22.625l60.125-60.125l-60.125-60.141
		c-6.25-6.25-6.25-16.375,0-22.625l48-48.008c6.25-6.234,16.375-6.234,22.609,0L512,577.938l60.141-60.148
		c6.25-6.234,16.359-6.234,22.625,0l48,48.008c6.25,6.25,6.25,16.375,0,22.625l-60.141,60.141L642.766,708.688z"/>
</g>
</svg>
