<?xml version="1.0" encoding="utf-8"?>
<!-- Generator: Adobe Illustrator 14.0.0, SVG Export Plug-In . SVG Version: 6.00 Build 43363)  -->
<!DOCTYPE svg PUBLIC "-//W3C//DTD SVG 1.1//EN" "http://www.w3.org/Graphics/SVG/1.1/DTD/svg11.dtd">
<svg version="1.1" id="icon" xmlns="http://www.w3.org/2000/svg" xmlns:xlink="http://www.w3.org/1999/xlink" x="0px" y="0px"
	 width="1024px" height="1024px" viewBox="0 0 1024 1024" enable-background="new 0 0 1024 1024" xml:space="preserve">
<g>
	<path d="M160.029,383.954c-52.988,0-96.066,43.015-96.066,96.081c0,52.973,43.078,95.988,96.066,95.988
		s96.003-43.016,96.003-95.988C256.032,426.969,213.017,383.954,160.029,383.954z"/>
	<path d="M888.793,577.742H656.114l52.332-138.847c5.096-11.738,7.94-24.681,7.94-38.311c0-53.348-43.219-96.613-96.566-96.66
		H368.417c-53.27,0-96.629,43.281-96.629,96.66v0.078v271.583h0.016c0.031,26.446,21.523,47.829,47.877,47.829
		c26.478,0,47.892-21.383,47.923-47.829V491.648c0.281,0.016,0.562,0.047,0.813,0.047h171.296l-45.938,129.141
		c-0.219,0.484-0.344,1.016-0.547,1.517l-0.672,1.892l0.078,0.016c-2.86,7.689-4.627,15.896-4.627,24.57
		c0,39.28,31.934,71.245,71.166,71.245h329.62c39.295,0,71.244-31.854,71.244-71.167
		C960.037,609.598,928.088,577.742,888.793,577.742z"/>
</g>
</svg>
