<?xml version="1.0" encoding="utf-8"?>
<!-- Generator: Adobe Illustrator 14.0.0, SVG Export Plug-In . SVG Version: 6.00 Build 43363)  -->
<!DOCTYPE svg PUBLIC "-//W3C//DTD SVG 1.1//EN" "http://www.w3.org/Graphics/SVG/1.1/DTD/svg11.dtd">
<svg version="1.1" id="icon" xmlns="http://www.w3.org/2000/svg" xmlns:xlink="http://www.w3.org/1999/xlink" x="0px" y="0px"
	 width="1024px" height="1024px" viewBox="0 0 1024 1024" enable-background="new 0 0 1024 1024" xml:space="preserve">
<g>
	<path d="M606.778,738.18c-0.492,0.493-11.928,12.421-33.991,15.211c-21.053,2.627-46.275-7.934-50.078-28.287
		c-0.055-0.273-0.384-0.383-0.452-0.657c21.243-8.59,42.281-33.704,42.281-44.483c0-26.865-20.396-32.117-55.594-32.117
		c-44.757,0-55.7,6.285-55.7,32.117c0,12.688,21.366,36.003,42.65,43.991c-0.144,0.438-0.629,0.657-0.711,1.088
		c-3.967,20.962-28.924,31.03-49.463,28.349c-21.94-2.79-33.321-14.718-33.704-15.102c-5.171-5.744-14.069-6.244-19.78-1.039
		c-5.745,5.144-6.245,14.007-1.067,19.752c0.739,0.82,18.302,20.025,50.967,24.185c3.386,0.438,6.812,0.656,10.287,0.656
		c21.387,0,42.842-8.974,56.657-25.06c14.12,16.031,35.965,25.06,57.276,25.06c3.406,0,6.703-0.219,9.999-0.656
		c32.774-4.159,50.379-23.364,51.104-24.185c5.129-5.69,4.705-14.39-0.999-19.588C620.936,732.216,611.977,732.6,606.778,738.18z
		 M508.944,713.559c-18.33,0-41.447-27.036-41.693-33.596c0-13.569,0-18.11,41.693-18.11c41.587,0,41.587,8.371,41.614,17.782
		C549.245,686.584,525.854,713.559,508.944,713.559z"/>
	<path d="M619.254,687.404c4.049,0,7.331-3.398,7.331-7.332c0-4.104-3.282-7.387-7.331-7.387c-3.994,0-7.332,3.283-7.332,7.387
		C611.922,684.006,615.26,687.404,619.254,687.404z"/>
	<path d="M600.814,722.969c3.98,0,7.277-3.337,7.277-7.331c0-4.049-3.297-7.332-7.277-7.332c-3.994,0-7.332,3.283-7.332,7.332
		C593.482,719.632,596.82,722.969,600.814,722.969z"/>
	<path d="M634.026,715.638c0,3.994,3.283,7.331,7.332,7.331c3.98,0,7.277-3.337,7.277-7.331c0-4.049-3.297-7.332-7.277-7.332
		C637.31,708.306,634.026,711.589,634.026,715.638z"/>
	<path d="M401.21,672.686c-3.994,0-7.332,3.283-7.332,7.387c0,3.934,3.337,7.332,7.332,7.332c3.987,0,7.277-3.398,7.277-7.332
		C408.487,675.969,405.197,672.686,401.21,672.686z"/>
	<path d="M390.048,715.638c0-4.049-3.344-7.332-7.277-7.332c-4.049,0-7.332,3.283-7.332,7.332c0,3.994,3.283,7.331,7.332,7.331
		C386.704,722.969,390.048,719.632,390.048,715.638z"/>
	<path d="M423.26,722.969c3.988,0,7.332-3.337,7.332-7.331c0-4.049-3.344-7.332-7.332-7.332c-3.939,0-7.332,3.283-7.332,7.332
		C415.929,719.632,419.321,722.969,423.26,722.969z"/>
	<path d="M407.584,568.892c0.191-2.188,4.507-53.84-32.72-82.456c-14.035-10.751-30.811-16.223-49.791-16.223
		c-22.987,0-40.927,8.159-41.7,8.48c-2.4,1.129-3.987,3.502-4.076,6.156c-0.048,2.106-1.122,51.76,34.04,77.477
		c16.086,11.654,35.072,17.562,56.356,17.562h0.027c18.904,0,32.665-4.869,33.239-5.033
		C405.533,573.926,407.338,571.572,407.584,568.892z M363.457,526.952c-9.746,0-17.673-7.906-17.673-17.591
		c0-9.794,7.927-17.618,17.673-17.618c9.739,0,17.666,7.824,17.666,17.618C381.123,519.046,373.196,526.952,363.457,526.952z"/>
	<path d="M747.342,478.256c-0.712-0.328-18.713-8.48-41.748-8.48c-18.986,0-35.729,5.471-49.805,16.223
		c-37.192,28.616-32.87,80.268-32.664,82.456c0.232,2.681,2.023,5.04,4.609,5.964c0.588,0.164,14.39,5.033,33.308,5.033
		c21.353,0,40.271-5.909,56.37-17.618c35.072-25.661,34.074-75.315,34.033-77.395C751.391,481.758,749.804,479.378,747.342,478.256z
		 M726.823,526.952c-9.753,0-17.728-7.906-17.728-17.591c0-9.794,7.975-17.618,17.728-17.618c9.739,0,17.618,7.824,17.618,17.618
		C744.441,519.046,736.562,526.952,726.823,526.952z"/>
	<path d="M952.578,636.465c-21.791-6.751-43.225-11.244-64.058-14.062c15.785-54.763,14.376-120.708-16.866-201.488
		c52.636-95.478,29.807-268.898,28.78-276.585c-1.259-9.547-7.387-17.755-16.142-21.722c-8.822-4.049-18.999-3.201-27.029,2.106
		L685.021,238.412c-49.094-22.078-114.479-35.482-175.202-35.482c-61.39,0-123.717,12.919-173.72,35.701L150.998,124.276
		c-8.07-5.061-18.172-5.636-26.674-1.505c-8.563,4.049-14.534,12.147-15.812,21.558c-0.958,7.195-22.461,171.341,36.296,277.051
		c-27.57,81.033-28.623,146.698-12.892,201.488c-19.711,2.852-39.942,7.222-60.474,13.597c-3.7,1.148-5.752,5.033-4.624,8.754
		c1.177,3.721,5.171,5.801,8.775,4.597c20.552-6.368,40.858-10.629,60.651-13.316c4.507,12.878,9.924,25.162,16.189,36.857
		c-22.563,6.292-44.976,14.808-67.21,25.593c-3.475,1.696-4.925,5.854-3.222,9.356c1.197,2.469,3.693,3.939,6.292,3.939
		c1.033,0,2.079-0.219,3.057-0.711c22.577-10.93,45.352-19.41,68.284-25.546c5.752,9.494,12.044,18.61,18.802,27.379
		c-20.053,9.418-40.284,22.364-60.022,40.078c-2.873,2.572-3.126,7.004-0.547,9.904c1.395,1.531,3.303,2.298,5.225,2.298
		c1.668,0,3.331-0.596,4.678-1.806c19.67-17.666,39.75-30.388,59.557-39.409c37.535,44.702,86.758,80.343,135.831,112.29
		c38.574,25.113,114.108,67.244,186.66,67.244c57.194,0,132.141-26.592,190.96-67.792c42.35-29.717,93.303-65.487,132.875-113.062
		c20.778,9.096,41.885,22.166,62.554,40.729c1.382,1.21,3.022,1.806,4.719,1.806c1.915,0,3.83-0.767,5.185-2.298
		c2.585-2.9,2.353-7.332-0.479-9.904c-20.737-18.596-42.021-32.008-63.046-41.515c6.524-8.569,12.612-17.536,18.261-26.852
		c24.116,6.196,48.081,14.951,71.814,26.455c0.984,0.492,2.023,0.711,3.063,0.711c2.571,0,5.089-1.471,6.278-3.939
		c1.71-3.502,0.232-7.66-3.214-9.356c-23.392-11.333-46.987-20.142-70.733-26.516c6.183-11.545,11.654-23.651,16.141-36.413
		c20.915,2.646,42.432,7.051,64.223,13.795c3.721,1.148,7.592-0.876,8.754-4.597C958.323,641.498,956.244,637.613,952.578,636.465z
		 M831.097,374.461c-17.659-18.33-35.894-31.407-41.296-22.597c-5.745,9.329,8.863,48.669,22.816,74.057
		c0.547,0.985,1.148,1.012,1.75,1.696c0.15,0.492,0,1.04,0.219,1.532c7.004,16.715,12.134,32.336,16.47,47.492
		c-19.766-13.733-56.534-28.726-56.534-9.301c0.123,22.789,52.431,89.678,66.26,112.275c-1.888,13.713-5.321,26.64-9.821,39.047
		c-100.252,0.431-176.21,35.845-186.538,43.628c-3.063,2.298-3.721,6.676-1.367,9.794c1.367,1.806,3.447,2.791,5.581,2.791
		c1.478,0,2.954-0.438,4.199-1.423c9.151-6.853,79.638-38.67,172.298-40.517c-4.541,9.979-9.903,19.581-15.99,28.869
		c-49.135-4.691-98.789,0.93-148.524,17.119c-2.353,0.766-4.158,1.367-5.485,1.751c-3.707,1.039-5.841,4.924-4.801,8.645
		c1.025,3.721,4.924,5.745,8.631,4.815c1.478-0.383,3.461-1.04,5.978-1.86c45.153-14.76,90.239-20.505,134.928-17.297
		c-4.938,6.565-10.163,13.022-15.799,19.314c-51.925-8.57-96.75,1.272-119.785,6.354l-4.542,0.985
		c-3.775,0.82-6.183,4.541-5.361,8.316c0.807,3.775,4.65,6.183,8.316,5.362l4.65-0.985c22.297-4.979,60.707-13.446,105.313-7.906
		c-28.876,29.32-64.756,56.315-104.068,83.906c-49.229,34.47-113.028,57.614-158.773,57.614c-42.431,0-99.308-21.175-156.081-58.162
		c-39.238-25.545-76.39-52.034-106.373-82.777c46.241-6.545,86.271,2.202,109.3,7.277l4.712,1.033
		c3.714,0.82,7.517-1.587,8.317-5.362c0.82-3.775-1.587-7.496-5.362-8.316l-4.65-1.04c-23.555-5.144-69.995-15.313-123.492-5.636
		c-5.554-6.319-10.738-12.857-15.621-19.581c45.851-3.769,92.14,1.806,138.511,16.9c2.51,0.82,4.514,1.478,5.964,1.86
		c3.611,0.875,7.605-1.149,8.645-4.815c1.06-3.721-1.094-7.605-4.822-8.645c-1.306-0.384-3.146-0.985-5.437-1.751
		c-50.906-16.552-101.654-22.092-151.855-16.825c-5.875-9.315-11.073-19.041-15.512-29.231
		c94.042,1.245,165.944,33.664,175.185,40.585c1.265,0.985,2.715,1.423,4.192,1.423c2.134,0,4.233-0.985,5.608-2.791
		c2.325-3.118,1.696-7.496-1.423-9.794c-10.464-7.845-87.681-43.813-189.164-43.642c-5.307-15.115-9.096-31.146-10.847-48.443
		c19.144-28.069,60.043-82.757,60.132-102.865c0-17.919-31.243-6.511-51.624,6.155c3.611-14.554,7.934-29.574,13.788-45.523
		c0.41-1.094,0.137-2.271,0.41-3.393c13.734-25.415,27.823-63.551,22.153-72.716c-5.308-8.646-22.946,3.83-40.325,21.612
		c-23.637-57.369-25.518-131.098-23.548-177.414l159.193,98.351c8.344,5.253,18.904,5.554,27.686,1.012
		c5.581-2.927,12.147-5.225,18.241-7.852c12.29,20.163,34.313,49.435,41.782,58.053c13.042,15.074,46.008-60.761,34.251-80.103
		c9.849-1.724,19.615-3.365,29.628-4.377c-14.089,34.005,12.393,115.257,30.23,98.405c16.432-15.539,55.184-70.528,58.098-97.038
		c13.911,1.806,27.809,4.11,41.2,7.195c-7.975,25.88,0.725,69.871-0.15,84.48c-0.93,15.102,55.303-25.716,77.859-57.8
		c8.029,2.626,16.784,2.346,23.965-2.414l146.473-96.709C852.012,249.738,850.479,323.658,831.097,374.461z"/>
</g>
</svg>
