<?xml version="1.0" encoding="utf-8"?>
<!-- Generator: Adobe Illustrator 14.0.0, SVG Export Plug-In . SVG Version: 6.00 Build 43363)  -->
<!DOCTYPE svg PUBLIC "-//W3C//DTD SVG 1.1//EN" "http://www.w3.org/Graphics/SVG/1.1/DTD/svg11.dtd">
<svg version="1.1" id="icon" xmlns="http://www.w3.org/2000/svg" xmlns:xlink="http://www.w3.org/1999/xlink" x="0px" y="0px"
	 width="1024px" height="1024px" viewBox="0 0 1024 1024" enable-background="new 0 0 1024 1024" xml:space="preserve">
<g>
	<path d="M753.497,136.56c-9.979-6.406-20.067-12.678-30.59-18.319c-62.814-33.698-134.624-52.918-210.909-52.918
		C265.322,65.323,65.32,265.324,65.32,512s200.002,446.678,446.678,446.678c246.68,0,446.682-200.002,446.682-446.678
		C958.679,354.393,876.833,216.086,753.497,136.56z M511.998,930.763C280.7,930.763,93.239,743.3,93.239,512
		c0-231.273,187.461-418.762,418.759-418.762c53.108,0,103.766,10.332,150.492,28.3c5.946,154.718,11.942,309.383,17.885,464.072
		c18.651-0.435,37.187-0.435,55.837,0c5.343-138.77,10.631-277.565,15.977-416.335C860.094,245.067,930.76,370.179,930.76,512
		C930.76,743.3,743.355,930.763,511.998,930.763z"/>
	<path d="M511.998,428.248c-46.238,0-83.752,37.515-83.752,83.752c0,46.238,37.514,83.752,83.752,83.752S595.75,558.239,595.75,512
		C595.75,465.763,558.236,428.248,511.998,428.248z M511.998,539.919c-15.376,0-27.915-12.515-27.915-27.919
		c0-15.403,12.539-27.917,27.915-27.917c15.434,0,27.919,12.514,27.919,27.917C539.917,527.405,527.431,539.919,511.998,539.919z"/>
	<path d="M766.583,340.188l-10.308,267.561l-20.609-0.435c-18.266-0.654-36.479-0.547-54.69,0l-20.609,0.435l-14.341-371.678
		c-40.569-19.766-85.88-31.161-134.027-31.161c-169.574,0-307.091,137.46-307.091,307.091
		c0,169.578,137.517,307.093,307.091,307.093c169.578,0,307.093-137.515,307.093-307.093
		C819.091,448.342,799.735,389.236,766.583,340.188z M511.998,623.671c-61.614,0-111.67-50.057-111.67-111.671
		c0-61.642,50.056-111.669,111.67-111.669c61.672,0,111.671,50.027,111.671,111.669C623.669,573.615,573.67,623.671,511.998,623.671
		z"/>
</g>
</svg>
