<?xml version="1.0" encoding="utf-8"?>
<!-- Generator: Adobe Illustrator 14.0.0, SVG Export Plug-In . SVG Version: 6.00 Build 43363)  -->
<!DOCTYPE svg PUBLIC "-//W3C//DTD SVG 1.1//EN" "http://www.w3.org/Graphics/SVG/1.1/DTD/svg11.dtd">
<svg version="1.1" id="icon" xmlns="http://www.w3.org/2000/svg" xmlns:xlink="http://www.w3.org/1999/xlink" x="0px" y="0px"
	 width="1024px" height="1024px" viewBox="0 0 1024 1024" enable-background="new 0 0 1024 1024" xml:space="preserve">
<g>
	<path d="M606.761,738.173c-0.491,0.486-11.928,12.413-33.964,15.204c-21.066,2.626-46.304-7.934-50.079-28.288
		c-0.096-0.273-0.424-0.383-0.424-0.656c21.216-8.59,42.227-33.704,42.227-44.484c0-26.865-20.341-32.117-55.587-32.117
		c-44.744,0-55.7,6.292-55.7,32.117c0,12.694,21.339,36.003,42.678,43.992c-0.164,0.437-0.657,0.656-0.766,1.094
		c-3.939,20.956-28.89,31.024-49.463,28.343c-21.886-2.791-33.267-14.718-33.705-15.102c-5.143-5.745-14.007-6.238-19.752-1.039
		c-5.745,5.144-6.238,14.007-1.04,19.752c0.711,0.82,18.274,20.026,50.94,24.185c3.392,0.438,6.839,0.656,10.286,0.656
		c21.394,0,42.842-8.973,56.631-25.06c14.127,16.032,36.013,25.06,57.352,25.06c3.379,0,6.676-0.219,9.958-0.656
		c32.761-4.158,50.394-23.364,51.091-24.185c5.157-5.683,4.706-14.39-0.971-19.588C620.945,732.203,611.973,732.586,606.761,738.173
		z M508.933,713.544c-18.33,0-41.474-27.029-41.693-33.596c0-13.562,0-18.11,41.693-18.11c41.581,0,41.581,8.372,41.581,17.782
		C549.214,686.569,525.851,713.544,508.933,713.544z"/>
	<path d="M619.236,687.39c4.049,0,7.346-3.393,7.346-7.331c0-4.104-3.297-7.387-7.346-7.387c-3.98,0-7.332,3.282-7.332,7.387
		C611.904,683.997,615.256,687.39,619.236,687.39z"/>
	<path d="M600.812,722.956c3.98,0,7.263-3.339,7.263-7.333c0-4.049-3.282-7.332-7.263-7.332c-3.995,0-7.347,3.283-7.347,7.332
		C593.465,719.617,596.816,722.956,600.812,722.956z"/>
	<path d="M634.01,715.623c0,3.994,3.296,7.333,7.331,7.333c3.994,0,7.277-3.339,7.277-7.333c0-4.049-3.283-7.332-7.277-7.332
		C637.306,708.291,634.01,711.574,634.01,715.623z"/>
	<path d="M401.198,672.672c-3.994,0-7.332,3.282-7.332,7.387c0,3.938,3.338,7.331,7.332,7.331c3.995,0,7.277-3.393,7.277-7.331
		C408.476,675.954,405.193,672.672,401.198,672.672z"/>
	<path d="M390.036,715.623c0-4.049-3.338-7.332-7.277-7.332c-4.049,0-7.332,3.283-7.332,7.332c0,3.994,3.283,7.333,7.332,7.333
		C386.698,722.956,390.036,719.617,390.036,715.623z"/>
	<path d="M423.249,722.956c3.994,0,7.332-3.339,7.332-7.333c0-4.049-3.338-7.332-7.332-7.332c-3.939,0-7.332,3.283-7.332,7.332
		C415.917,719.617,419.309,722.956,423.249,722.956z"/>
	<path d="M407.6,568.876c0.164-2.188,4.487-53.84-32.72-82.457c-14.062-10.752-30.859-16.223-49.791-16.223
		c-22.981,0-40.927,8.159-41.694,8.481c-2.407,1.122-4.049,3.501-4.103,6.156c-0.055,2.106-1.149,51.761,34.033,77.478
		c16.086,11.654,35.072,17.563,56.357,17.563h0.054c18.877,0,32.61-4.87,33.212-5.034
		C405.521,573.909,407.326,571.557,407.6,568.876z M363.444,526.937c-9.739,0-17.673-7.906-17.673-17.591
		c0-9.794,7.934-17.619,17.673-17.619c9.74,0,17.673,7.825,17.673,17.619C381.118,519.03,373.184,526.937,363.444,526.937z"/>
	<path d="M747.339,478.239c-0.725-0.328-18.713-8.48-41.747-8.48c-18.987,0-35.744,5.472-49.806,16.223
		c-37.192,28.616-32.884,80.268-32.665,82.456c0.233,2.682,2.025,5.035,4.61,5.965c0.588,0.164,14.376,5.034,33.308,5.034
		c21.339,0,40.271-5.91,56.356-17.619c35.074-25.661,34.089-75.315,34.048-77.395C751.389,481.742,749.788,479.361,747.339,478.239z
		 M726.82,526.937c-9.752,0-17.727-7.906-17.727-17.591c0-9.794,7.975-17.619,17.727-17.619c9.74,0,17.619,7.825,17.619,17.619
		C744.439,519.03,736.561,526.937,726.82,526.937z"/>
	<path d="M952.564,636.449c-22.406-6.941-44.443-11.503-65.822-14.3c15.689-54.723,14.239-120.587-16.949-201.252
		c52.637-95.479,29.82-268.9,28.767-276.587c-1.244-9.548-7.372-17.756-16.127-21.723c-8.809-4.049-18.986-3.201-27.044,2.107
		L683.144,238.394c-49.066-22.078-114.451-35.483-175.195-35.483c-61.392,0-123.712,12.913-173.722,35.702L149.123,124.256
		c-8.043-4.979-18.001-5.581-26.702-1.505c-8.535,4.049-14.499,12.147-15.757,21.559c-0.985,7.194-22.489,171.342,36.276,277.053
		c-27.618,81.143-28.629,146.883-12.83,201.737c-19.137,2.852-38.767,7.174-58.683,13.35c-3.721,1.15-5.745,5.034-4.596,8.755
		c1.148,3.722,5.143,5.8,8.754,4.596c19.944-6.175,39.642-10.367,58.874-13.076c4.542,12.975,10.027,25.333,16.36,37.097
		c-22.023,6.252-43.896,14.582-65.604,25.115c-3.502,1.696-4.924,5.854-3.229,9.355c1.204,2.47,3.666,3.94,6.293,3.94
		c1.039,0,2.079-0.22,3.063-0.712c22.051-10.677,44.279-19.041,66.658-25.149c5.827,9.59,12.201,18.789,19.055,27.632
		c-19.616,9.364-39.382,22.119-58.683,39.43c-2.845,2.571-3.064,7.004-0.547,9.904c1.423,1.531,3.338,2.297,5.253,2.297
		c1.641,0,3.337-0.595,4.706-1.805c19.219-17.264,38.834-29.793,58.19-38.773c37.48,44.401,86.491,79.857,135.339,111.654
		c38.52,25.114,114.082,67.246,186.635,67.246c57.188,0,132.135-26.592,190.954-67.793c42.528-29.841,93.728-65.796,133.369-113.658
		c21.217,9.11,42.816,22.352,63.936,41.324c1.382,1.21,3.01,1.805,4.706,1.805c1.929,0,3.829-0.766,5.197-2.297
		c2.585-2.9,2.354-7.333-0.492-9.904c-21.202-19.013-42.979-32.583-64.455-42.131c6.456-8.501,12.476-17.399,18.056-26.646
		c24.678,6.217,49.176,15.108,73.442,26.865c0.972,0.492,2.024,0.712,3.051,0.712c2.571,0,5.103-1.471,6.292-3.94
		c1.711-3.501,0.233-7.659-3.214-9.355c-23.938-11.593-48.082-20.519-72.389-26.927c6.142-11.497,11.571-23.535,16.031-36.242
		c21.448,2.619,43.567,7.092,65.987,14.033c3.721,1.149,7.591-0.874,8.754-4.596C958.323,641.483,956.244,637.6,952.564,636.449z
		 M815.447,402.403c-5.403,7.852-6.457,17.919-2.736,26.729c32.939,78.551,35.004,138.964,16.634,189.507
		c-99.46,0.801-174.666,35.894-184.939,43.636c-3.051,2.299-3.72,6.676-1.354,9.794c1.354,1.806,3.434,2.784,5.58,2.784
		c1.479,0,2.955-0.431,4.2-1.416c9.097-6.818,78.845-38.308,170.713-40.482c-4.528,9.924-9.89,19.451-15.95,28.684
		c-48.628-4.432-97.749,1.26-146.98,17.27c-2.352,0.768-4.171,1.369-5.484,1.752c-3.721,1.04-5.841,4.924-4.814,8.646
		c1.039,3.72,4.924,5.744,8.646,4.808c1.477-0.376,3.459-1.033,5.977-1.854c44.621-14.588,89.215-20.341,133.411-17.365
		c-4.911,6.511-10.164,12.878-15.759,19.13c-51.31-8.139-95.506,1.573-118.323,6.607l-4.526,0.985
		c-3.775,0.82-6.184,4.54-5.377,8.315c0.821,3.776,4.651,6.184,8.331,5.362l4.651-0.984c22.021-4.925,59.804-13.256,103.727-8.112
		c-28.945,29.396-64.934,56.453-104.329,84.112c-49.243,34.471-113.056,57.615-158.794,57.615
		c-42.405,0-99.309-21.175-156.104-58.162c-39.163-25.505-76.369-51.892-106.395-82.504c47.042-7.079,87.86,1.859,111.209,7.003
		l4.706,1.032c3.72,0.821,7.496-1.586,8.317-5.362c0.82-3.775-1.587-7.495-5.363-8.315l-4.651-1.04
		c-23.829-5.205-71.075-15.581-125.381-5.309c-5.636-6.367-10.957-12.92-15.908-19.697c46.563-4.13,93.591,1.354,140.688,16.688
		c2.517,0.82,4.542,1.478,5.964,1.854c3.611,0.876,7.605-1.142,8.645-4.808c1.094-3.722-1.094-7.605-4.815-8.646
		c-1.313-0.383-3.173-0.984-5.472-1.752c-51.651-16.797-103.153-22.282-154.093-16.605c-5.951-9.383-11.204-19.205-15.689-29.484
		c95.259,0.711,168.305,33.636,177.661,40.619c1.204,0.985,2.681,1.416,4.159,1.416c2.134,0,4.268-0.979,5.581-2.784
		c2.353-3.118,1.751-7.495-1.423-9.794c-10.492-7.914-88.858-44.395-191.56-43.629c-17.591-50.229-17.03-111.572,12.038-190.69
		c3.01-8.263,1.97-17.489-2.791-24.869c-38.191-58.983-40.873-152.273-38.574-207.044l159.222,98.352
		c8.317,5.17,18.932,5.553,27.686,1.012c43.718-22.843,104.453-36.468,162.342-36.468c57.79,0,122.299,14.281,164.252,36.414
		c9.028,4.787,20.025,4.24,28.507-1.396l146.474-96.709C850.738,260.334,848.167,354.965,815.447,402.403z"/>
</g>
</svg>
