<?xml version="1.0" encoding="utf-8"?>
<!-- Generator: Adobe Illustrator 14.0.0, SVG Export Plug-In . SVG Version: 6.00 Build 43363)  -->
<!DOCTYPE svg PUBLIC "-//W3C//DTD SVG 1.1//EN" "http://www.w3.org/Graphics/SVG/1.1/DTD/svg11.dtd">
<svg version="1.1" id="icon" xmlns="http://www.w3.org/2000/svg" xmlns:xlink="http://www.w3.org/1999/xlink" x="0px" y="0px"
	 width="1024px" height="1024px" viewBox="0 0 1024 1024" enable-background="new 0 0 1024 1024" xml:space="preserve">
<g>
	<path fill="#231F20" d="M737.293,737.34c-62.222,0-112.67,50.448-112.67,112.67s50.448,112.67,112.67,112.67
		s112.67-50.448,112.67-112.67S799.514,737.34,737.293,737.34z"/>
	<path fill="#231F20" d="M455.619,737.34c-62.221,0-112.669,50.448-112.669,112.67s50.448,112.67,112.669,112.67
		c62.223,0,112.671-50.448,112.671-112.67S517.842,737.34,455.619,737.34z"/>
	<path fill="#231F20" d="M952.127,253.707c-10.728-14.718-27.674-23.382-45.827-23.382H327.215L283.698,99.803
		c-7.647-22.996-29.158-38.482-53.418-38.482H117.663c-31.139,0-56.333,25.169-56.333,56.335c0,31.165,25.195,56.335,56.333,56.335
		h72.015l156.13,468.504c7.704,22.996,29.214,38.513,53.475,38.513H793.63c24.372,0,45.771-15.517,53.475-38.513l112.67-338.037
		C965.494,287.294,962.635,268.423,952.127,253.707z"/>
</g>
</svg>
