<?xml version="1.0" encoding="utf-8"?>
<!-- Generator: Adobe Illustrator 14.0.0, SVG Export Plug-In . SVG Version: 6.00 Build 43363)  -->
<!DOCTYPE svg PUBLIC "-//W3C//DTD SVG 1.1//EN" "http://www.w3.org/Graphics/SVG/1.1/DTD/svg11.dtd">
<svg version="1.1" id="icon" xmlns="http://www.w3.org/2000/svg" xmlns:xlink="http://www.w3.org/1999/xlink" x="0px" y="0px"
	 width="1024px" height="1024px" viewBox="0 0 1024 1024" enable-background="new 0 0 1024 1024" xml:space="preserve">
<g>
	<path fill="#404041" d="M849.5,173.951h-675c-62.075,0-112.501,50.316-112.501,112.499v393.752
		c0,62.181,50.426,112.499,112.501,112.499h675c62.076,0,112.5-50.318,112.5-112.499V286.45
		C962,224.268,911.576,173.951,849.5,173.951z M905.752,612.142L694.81,371.375l-295.31,182.813L542.76,736.451h-11.15
		L343.251,497.938L118.25,606.592V286.45c0-31.119,25.158-56.25,56.25-56.25h675c31.092,0,56.252,25.131,56.252,56.25V612.142z"/>
	<path fill="#404041" d="M336.219,272.939c-42.738,0-77.344,34.661-77.344,77.343c0,42.683,34.606,77.344,77.344,77.344
		c42.735,0,77.344-34.661,77.344-77.344C413.564,307.6,378.954,272.939,336.219,272.939z"/>
</g>
</svg>
