<?xml version="1.0" encoding="utf-8"?>
<!-- Generator: Adobe Illustrator 14.0.0, SVG Export Plug-In . SVG Version: 6.00 Build 43363)  -->
<!DOCTYPE svg PUBLIC "-//W3C//DTD SVG 1.1//EN" "http://www.w3.org/Graphics/SVG/1.1/DTD/svg11.dtd">
<svg version="1.1" id="icon" xmlns="http://www.w3.org/2000/svg" xmlns:xlink="http://www.w3.org/1999/xlink" x="0px" y="0px"
	 width="1024px" height="1024px" viewBox="0 0 1024 1024" enable-background="new 0 0 1024 1024" xml:space="preserve">
<g>
	<path fill="#404041" d="M512,483.326L512,483.326L512,483.326L512,483.326L512,483.326L512,483.326L512,483.326L512,483.326
		L512,483.326z M512,483.326L512,483.326L512,483.326L512,483.326L512,483.326L512,483.326L512,483.326L512,483.326L512,483.326
		L512,483.326L512,483.326L512,483.326z"/>
	<rect x="512" y="483.326" fill="#404041" width="0" height="0"/>
</g>
<g>
	<path fill="#404041" d="M849.498,202.626H174.5c-62.074,0-112.5,50.345-112.5,112.5v393.75c0,62.182,50.426,112.5,112.5,112.5
		h674.998c62.183,0,112.502-50.318,112.502-112.5v-393.75C962,252.971,911.68,202.626,849.498,202.626 M484.806,652.295h56.194
		v112.498h-56.194V652.295z M905.748,708.875c0,31.092-25.157,56.25-56.25,56.25h-111.62V539.794h112.499L695.688,436.689v-79.706
		h-56.247v42.187L512.93,314.796L175.433,539.794h112.5v225.331H174.5c-31.092,0-56.251-25.158-56.251-56.25v-393.75
		c0-31.091,25.159-56.25,56.251-56.25h674.998c31.093,0,56.25,25.159,56.25,56.25V708.875z"/>
</g>
</svg>
