<?xml version="1.0" encoding="utf-8"?>
<!-- Generator: Adobe Illustrator 14.0.0, SVG Export Plug-In . SVG Version: 6.00 Build 43363)  -->
<!DOCTYPE svg PUBLIC "-//W3C//DTD SVG 1.1//EN" "http://www.w3.org/Graphics/SVG/1.1/DTD/svg11.dtd">
<svg version="1.1" id="icon" xmlns="http://www.w3.org/2000/svg" xmlns:xlink="http://www.w3.org/1999/xlink" x="0px" y="0px"
	 width="1024px" height="1024px" viewBox="0 0 1024 1024" enable-background="new 0 0 1024 1024" xml:space="preserve">
<g>
	<path fill="#231F20" d="M512,64.544C265.274,64.544,64.544,265.271,64.544,512c0,246.727,200.73,447.456,447.456,447.456
		c246.727,0,447.456-200.729,447.456-447.456C959.456,265.271,758.726,64.544,512,64.544z M512,922.578
		c-226.393,0-410.579-184.186-410.579-410.578c0-226.393,184.186-410.579,410.579-410.579
		c226.393,0,410.578,184.186,410.578,410.579C922.578,738.393,738.392,922.578,512,922.578z"/>
	<circle fill="#231F20" cx="655.85" cy="386.004" r="27.348"/>
	<path fill="#231F20" d="M764.142,364.281c-16.552-52.197-65.436-90.141-123.043-90.141c-53.681,0-74.972,15.039-97.56,44.66
		l-19.67,30.968L406.913,528.595H271.461l-90.638,141.366h133.63h34.09h136.238l46.184,71.457h43.907l-46.501-71.947
		c9.609-0.785,18.821-1.93,27.658-3.399l48.69,75.347h42.985l-53.624-84.177c130.851-40.493,159.358-159.431,164.098-185.641
		l106.577-59.587L764.142,364.281z M770.121,404.148L791.75,414.7l-23.971,12.712C769.22,419.857,770.062,412.1,770.121,404.148z
		 M248.268,633.084l12.994-20.262v3.17h61.827l22.126-36.878h-62.339l8.751-13.642h91.164l-44.217,67.611H248.268z M554.877,369.719
		l18.468-29.185c15.73-20.513,27.204-29.517,67.755-29.517c38.117,0,70.91,23.258,84.927,56.325l4.501,13.857
		c1.743,7.066,2.766,14.413,2.766,22.012c0,8.744-1.303,17.185-3.586,25.209c-2.918,9.227-6.619,16.76-9.083,21.212
		c-16.019,27.334-45.629,45.772-79.524,45.772c-7.966,0-16.141-1.124-24.309-3.364l-33.932-9.262l11.683,33.175
		c2.341,6.67,3.536,15.061,3.536,24.936c0,43.468-30.272,79.913-70.815,89.594l41.552-63.866l-43.662-0.525l-43.583,66.992h-28.969
		l98.237-150.975l-44.311,0.489l-97.92,150.485h-25.973L554.877,369.719z M615.113,609.329
		c12.496-19.864,19.843-43.288,19.843-68.439c0-3.018-0.079-5.942-0.252-8.772c26.304,1.311,50.994-5.488,71.969-17.956
		C692.34,545.78,665.322,584.617,615.113,609.329z"/>
</g>
</svg>
