<?xml version="1.0" encoding="utf-8"?>
<!-- Generator: Adobe Illustrator 14.0.0, SVG Export Plug-In . SVG Version: 6.00 Build 43363)  -->
<!DOCTYPE svg PUBLIC "-//W3C//DTD SVG 1.1//EN" "http://www.w3.org/Graphics/SVG/1.1/DTD/svg11.dtd">
<svg version="1.1" id="icon" xmlns="http://www.w3.org/2000/svg" xmlns:xlink="http://www.w3.org/1999/xlink" x="0px" y="0px"
	 width="1024px" height="1024px" viewBox="0 0 1024 1024" enable-background="new 0 0 1024 1024" xml:space="preserve">
<g>
	<path d="M512,64.544C265.274,64.544,64.544,265.271,64.544,512c0,246.727,200.73,447.456,447.456,447.456
		c246.727,0,447.456-200.729,447.456-447.456C959.456,265.271,758.726,64.544,512,64.544z M512,922.578
		c-226.393,0-410.579-184.186-410.579-410.578c0-226.393,184.186-410.579,410.579-410.579
		c226.393,0,410.578,184.186,410.578,410.579C922.578,738.393,738.392,922.578,512,922.578z"/>
	<path d="M511.993,249.775l-14.72,19.777C482.346,289.595,351.489,467.75,351.489,549.97c0,82.292,62.26,150.28,142.143,159.421
		v63.465h36.715v-63.465c79.89-9.141,142.157-77.129,142.157-159.421c0-82.22-130.865-260.375-145.792-280.417L511.993,249.775z
		 M493.632,672.253c-48.007-7.191-87.052-41.928-100.416-87.654l100.416,75.086V672.253z M493.632,613.843L389.68,536.125
		c1.506-8.029,4.137-16.998,7.679-26.685l96.272,71.981V613.843z M493.632,535.58l-81.359-60.826
		c3.699-7.665,7.707-15.522,11.958-23.48l69.401,51.893V535.58z M493.632,457.333l-51.276-38.342
		c4.402-7.507,8.904-14.978,13.45-22.369l37.826,28.284V457.333z M493.632,379.077L475.5,365.513
		c6.188-9.521,12.296-18.691,18.132-27.287V379.077z M530.346,338.197c5.843,8.604,11.952,17.78,18.153,27.316l-18.153,13.579
		V338.197z M530.346,424.919l37.848-28.305c4.553,7.398,9.056,14.869,13.45,22.376l-51.298,38.364V424.919z M530.346,503.182
		l69.423-51.907c4.251,7.958,8.252,15.809,11.958,23.473l-81.381,60.854V503.182z M530.346,581.443l96.286-72.01
		c3.542,9.686,6.174,18.662,7.679,26.691l-103.965,77.739V581.443z M530.346,659.706l100.423-75.101
		c-13.356,45.72-52.408,80.463-100.423,87.647V659.706z"/>
</g>
</svg>
