<?xml version="1.0" encoding="utf-8"?>
<!-- Generator: Adobe Illustrator 14.0.0, SVG Export Plug-In . SVG Version: 6.00 Build 43363)  -->
<!DOCTYPE svg PUBLIC "-//W3C//DTD SVG 1.1//EN" "http://www.w3.org/Graphics/SVG/1.1/DTD/svg11.dtd">
<svg version="1.1" id="icon" xmlns="http://www.w3.org/2000/svg" xmlns:xlink="http://www.w3.org/1999/xlink" x="0px" y="0px"
	 width="1024px" height="1024px" viewBox="0 0 1024 1024" enable-background="new 0 0 1024 1024" xml:space="preserve">
<g id="Female">
	<path id="F" d="M957.225,452.882h-56.887V286.866C774.956,86.021,606.617,68.607,554.375,62.802v141.437
		c21.308,13.876,35.409,37.891,35.409,65.213c0,42.96-34.827,77.784-77.784,77.784c-42.958,0-77.784-34.824-77.784-77.784
		c0-27.324,14.099-51.34,35.409-65.213V62.802c-52.243,5.805-220.581,23.219-345.963,224.064v166.016H66.775
		c0,0-5.805,21.877-5.805,59.118s5.805,59.118,5.805,59.118h56.887v166.016c125.383,200.845,293.721,218.259,345.963,224.063
		V819.764c-21.31-13.875-35.409-37.893-35.409-65.216c0-42.957,34.826-77.783,77.784-77.783c42.957,0,77.784,34.826,77.784,77.783
		c0,27.323-14.102,51.341-35.409,65.216v141.434c52.242-5.805,220.581-23.219,345.964-224.063V571.118h56.887
		c0,0,5.805-21.877,5.805-59.118S957.225,452.882,957.225,452.882z M267.812,571.506c-32.863,0-59.506-26.641-59.506-59.506
		c0-32.865,26.643-59.506,59.506-59.506c32.865,0,59.505,26.641,59.505,59.506C327.318,544.865,300.677,571.506,267.812,571.506z
		 M756.187,571.506c-32.865,0-59.506-26.646-59.506-59.506c0-32.865,26.641-59.506,59.506-59.506s59.506,26.641,59.506,59.506
		C815.691,544.86,789.051,571.506,756.187,571.506z"/>
</g>
</svg>
