<?xml version="1.0" encoding="utf-8"?>
<!-- Generator: Adobe Illustrator 14.0.0, SVG Export Plug-In . SVG Version: 6.00 Build 43363)  -->
<!DOCTYPE svg PUBLIC "-//W3C//DTD SVG 1.1//EN" "http://www.w3.org/Graphics/SVG/1.1/DTD/svg11.dtd">
<svg version="1.1" id="icon" xmlns="http://www.w3.org/2000/svg" xmlns:xlink="http://www.w3.org/1999/xlink" x="0px" y="0px"
	 width="1024px" height="1024px" viewBox="0 0 1024 1024" enable-background="new 0 0 1024 1024" xml:space="preserve">
<g>
	<path d="M512,64.544C265.274,64.544,64.544,265.271,64.544,512c0,246.727,200.73,447.456,447.456,447.456
		c246.727,0,447.456-200.729,447.456-447.456C959.456,265.271,758.726,64.544,512,64.544z M512,922.578
		c-226.393,0-410.579-184.186-410.579-410.578c0-226.393,184.186-410.579,410.579-410.579
		c226.393,0,410.578,184.186,410.578,410.579C922.578,738.393,738.392,922.578,512,922.578z"/>
	<path d="M801.507,423.681c-2.119-1.8-5.669-4.823-6.378-5.915l-0.99-2.046l-57.617-69.049l-1.678-60.628l-22.835,6.399
		c-45.671,12.788-82.787,74.938-86.873,81.981l-0.701,1.33c-20.94,44.051-59.265,72.122-74.898,70.242
		c-3.804-0.477-8.497-1.2-13.876-2.025c-18.229-2.805-45.78-7.028-73.431-7.028c-24.708,0-45.042,3.232-62.107,9.885
		c-4.324,1.121-9.371,3.124-14.585,6.023c-20.051-12.712-40.544-19.234-61.195-19.234c-38.729,0-68.405,23.819-78.022,38.83
		c-15.098,23.603-36.256,23.979-36.863,23.985l-46.141-1.294l32.46,32.813c1.2,1.215,29.806,29.647,71.008,29.647
		c25.598,0,49.879-10.658,72.15-31.693c3.24-3.059,6.284-5.756,9.154-8.164c-0.05,1.685-0.151,3.334-0.115,5.091v6.696
		c-1.678,30.464,8.381,50.363,19.523,61.926l-37.341,83.923c-31.917-21.354-51.571-40.429-54.333-43.169
		c-0.007-0.007-0.015-0.015-0.015-0.015l-13.059,13.117l-13.073,13.103c1.778,1.778,120.865,117.894,278.074,117.894
		c79.208,0,168.091-29.48,256.512-117.908l-26.176-26.176c-16.942,16.941-33.87,31.447-50.704,43.906l-53.885-99.072l55.613-89.006
		c16.848,4.404,33.465,7.954,43.335,7.954c3.738,0,6.949-0.441,9.812-1.33c31.867-9.964,52.359-19.741,56.011-37.659
		C821.58,440.775,809.019,430.073,801.507,423.681z M313.516,498.984c-15.178,14.332-30.897,21.592-46.733,21.592
		c-5.025,0-9.806-0.723-14.238-1.88c8.641-6.002,17.369-14.434,24.954-26.292c2.292-3.58,19.654-21.766,46.842-21.766
		c6.905,0,13.912,1.186,20.991,3.529C335.246,480.227,324.616,488.507,313.516,498.984z M473.429,474.226
		c20.956,0.882,41.202,3.97,56.611,6.334c5.785,0.89,10.825,1.663,14.918,2.169c1.895,0.239,3.847,0.362,5.843,0.362
		c0.462,0,0.946-0.087,1.409-0.102v63.524c-19.675,7.932-55.193,2.668-78.781-3.355V474.226z M401.12,713.752l61.102-76.128
		c18.663,5.567,37.63,6.884,51.405,6.884c20.001,0,39.741-2.777,55.014-7.535l66.93,80.531
		C547.055,754.621,464.68,740.383,401.12,713.752z M752.344,458.982c-13.002-0.072-57.696-12.972-85.362-22.141l-11.663,35.128
		l0.021,0.014c0.007,0,0.021,0,0.029,0.007l16.652,5.546l-61.377,98.232l60.061,110.425l-8.293,5.684l-83.389-100.33l-13.239,6.884
		c-8.388,4.36-28.295,9.054-52.157,9.054c-19.3,0-37.153-3.103-50.277-8.735l-12.929-5.553l-79.266,98.746l-6.06-3.999l42.2-94.863
		l10.34-18.157l-19.704-6.27c-0.601-0.303-14.744-7.729-12.966-37.499l0.029-0.55v-8.164c-0.673-31.802,20.702-38.83,24.73-39.857
		l2.95-0.911c6.768-2.733,14.751-4.686,23.732-5.973v94.718l12.676,4.209c5.836,1.938,40.53,12.95,75.708,12.95
		c20.963,0,42.106-3.912,57.4-15.98l7.043-5.561v-95.485c26.038-15.619,52.062-44.398,68.281-78.159
		c6.35-10.738,23.219-35.193,41.824-50.964l0.535,19.111l63.221,75.766c3.398,5.778,8.25,10.268,12.589,14.014
		C770.963,452.504,763.631,455.41,752.344,458.982z"/>
</g>
</svg>
