<?xml version="1.0" encoding="utf-8"?>
<!-- Generator: Adobe Illustrator 14.0.0, SVG Export Plug-In . SVG Version: 6.00 Build 43363)  -->
<!DOCTYPE svg PUBLIC "-//W3C//DTD SVG 1.1//EN" "http://www.w3.org/Graphics/SVG/1.1/DTD/svg11.dtd">
<svg version="1.1" id="icon" xmlns="http://www.w3.org/2000/svg" xmlns:xlink="http://www.w3.org/1999/xlink" x="0px" y="0px"
	 width="1024px" height="1024px" viewBox="0 0 1024 1024" enable-background="new 0 0 1024 1024" xml:space="preserve">
<g id="Female">
	<path id="C" d="M512.001,66.049C265.709,66.049,66.051,265.71,66.051,512c0,246.292,199.659,445.951,445.951,445.951
		c246.293,0,445.947-199.659,445.947-445.951C957.948,265.71,758.295,66.049,512.001,66.049z M327.419,581.415
		c-38.336,0-69.415-31.078-69.415-69.415s31.078-69.415,69.415-69.415c38.337,0,69.415,31.078,69.415,69.415
		S365.756,581.415,327.419,581.415z M696.582,581.415c-38.334,0-69.412-31.078-69.412-69.415s31.078-69.415,69.412-69.415
		c38.34,0,69.417,31.078,69.417,69.415S734.922,581.415,696.582,581.415z"/>
</g>
</svg>
