<?xml version="1.0" encoding="utf-8"?>
<!-- Generator: Adobe Illustrator 14.0.0, SVG Export Plug-In . SVG Version: 6.00 Build 43363)  -->
<!DOCTYPE svg PUBLIC "-//W3C//DTD SVG 1.1//EN" "http://www.w3.org/Graphics/SVG/1.1/DTD/svg11.dtd">
<svg version="1.1" id="icon" xmlns="http://www.w3.org/2000/svg" xmlns:xlink="http://www.w3.org/1999/xlink" x="0px" y="0px"
	 width="1024px" height="1024px" viewBox="0 0 1024 1024" enable-background="new 0 0 1024 1024" xml:space="preserve">
<g>
	<path d="M512,64.544C265.274,64.544,64.544,265.271,64.544,512c0,246.727,200.73,447.456,447.456,447.456
		c246.727,0,447.456-200.729,447.456-447.456C959.456,265.271,758.726,64.544,512,64.544z M512,922.578
		c-226.393,0-410.579-184.186-410.579-410.578c0-226.393,184.186-410.579,410.579-410.579
		c226.393,0,410.578,184.186,410.578,410.579C922.578,738.393,738.392,922.578,512,922.578z"/>
	<path d="M567.667,214.872L425.851,379.553l-57.984,57.97l13.61,13.61c35.245,35.846,24.992,80.009,21.188,92.263
		c-60.33,59.64-87.826,65.374-91.071,65.871l-7.685-0.964l-6.376,6.375c-31.791,31.791-32.007,62.475-26.581,82.615
		c5.677,21.084,18.615,34.462,20.076,35.915c2.36,2.36,23.991,23.062,56.315,23.07c22.336,0,43.434-9.786,62.719-29.071l7.001-6.994
		l-1.612-7.938c0.698-4.317,7.318-31.23,67.044-91.366c3.85-1.936,15.154-6.864,30.122-6.864c21.048,0,41.29,9.549,60.157,28.387
		l0.081,0.075l13.044,13.044l57.978-57.971l164.678-141.823L567.667,214.872z M461.513,590.449l-1.777,1.108l-1.475,1.482
		c-60.064,60.063-75.975,94.626-79.098,112.644c-10.563,9.132-21.242,13.752-31.82,13.752c-17.335-0.008-30.251-12.27-30.266-12.276
		c-0.072-0.072-7.412-7.786-10.549-19.443c-3.857-14.341,0.324-28.272,12.787-42.441c17.104-3.411,52.3-18.709,112.385-78.795
		l2.67-2.669l1.41-3.512c0.619-1.555,8.044-20.708,8.074-46.79l63.81,63.808C481.28,578.541,463.55,589.176,461.513,590.449z
		 M585.901,603.452l-165.922-165.93l29.802-29.809l165.962,165.955L585.901,603.452z M643.473,549.301L474.089,379.923
		l95.593-110.931l24.838,24.837l-79.426,88.509l27.424,24.603l78.09-87.026l23.958,23.957l-33.795,37.165l27.258,24.782
		l32.616-35.869l83.799,83.793L643.473,549.301z"/>
</g>
</svg>
