<?xml version="1.0" encoding="utf-8"?>
<!-- Generator: Adobe Illustrator 14.0.0, SVG Export Plug-In . SVG Version: 6.00 Build 43363)  -->
<!DOCTYPE svg PUBLIC "-//W3C//DTD SVG 1.1//EN" "http://www.w3.org/Graphics/SVG/1.1/DTD/svg11.dtd">
<svg version="1.1" id="icon" xmlns="http://www.w3.org/2000/svg" xmlns:xlink="http://www.w3.org/1999/xlink" x="0px" y="0px"
	 width="1024px" height="1024px" viewBox="0 0 1024 1024" enable-background="new 0 0 1024 1024" xml:space="preserve">
<g>
	<path d="M797.325,218.677C764.036,147.661,687.479,63,512,63c-175.496,0-252.036,84.661-285.325,155.677
		c-65.895,140.593-18.662,331.4,14.785,391.349c-10.927,16.224-16.82,35.184-16.82,54.635c0,54.477,44.321,98.78,98.78,98.78h26.94
		v125.72c0,7.366,4.542,71.84,161.64,71.84s161.64-64.474,161.64-71.84V763.44h26.94c54.459,0,98.78-44.304,98.78-98.78
		c0-19.451-5.894-38.411-16.82-54.635C815.987,550.077,863.22,359.27,797.325,218.677z M512,925.08
		c-98.78,0-124.282-26.729-125.72-35.92v-71.84h35.92v35.92c0,9.944,8.032,17.96,17.96,17.96c9.927,0,17.96-8.016,17.96-17.96
		v-35.92h35.92v35.92c0,9.944,8.033,17.96,17.96,17.96s17.96-8.016,17.96-17.96v-35.92h35.92v35.92c0,9.944,8.033,17.96,17.96,17.96
		c9.928,0,17.96-8.016,17.96-17.96v-35.92h35.938l0.035,70.734C636.282,898.351,610.78,925.08,512,925.08z M747.164,622.935
		c10.488,11.698,16.276,26.52,16.276,41.726c0,34.675-28.203,62.859-62.86,62.859h-44.9c-9.927,0-17.96,8.051-17.96,17.961
		l0.018,35.92H601.8v-35.92c0-9.91-8.032-17.961-17.96-17.961c-9.927,0-17.96,8.051-17.96,17.961v35.92h-35.92v-35.92
		c0-9.91-8.033-17.961-17.96-17.961s-17.96,8.051-17.96,17.961v35.92h-35.92v-35.92c0-9.91-8.033-17.961-17.96-17.961
		c-9.928,0-17.96,8.051-17.96,17.961v35.92h-35.92v-35.92c0-9.91-8.033-17.961-17.96-17.961h-44.9
		c-34.657,0-62.86-28.185-62.86-62.859c0-15.206,5.788-30.027,16.276-41.726c5.964-6.63,6.139-16.645,0.438-23.484
		c-25.08-30.15-82.434-228.201-18.064-365.497C300.374,146.1,383.018,100.85,504.739,99.096l44.725,44.725l-59.143,59.142
		c-3.385,3.385-5.262,7.945-5.262,12.698c0,4.788,1.877,9.349,5.262,12.716l95.992,95.974
		c-21.538,14.154-38.394,44.619-38.394,98.587c0,37.271,18.767,107.76,89.8,107.76c3.771,0,7.314-0.192,10.805-0.438l48.337,48.32
		c3.508,3.508,8.104,5.262,12.698,5.262c4.596,0,9.19-1.754,12.698-5.262c7.016-7.016,7.016-18.363,0-25.379l-33.534-33.552
		c29.605-15.417,38.796-43.479,38.796-60.791c0-78.137-51.003-137.523-99.691-143.785l-99.411-99.411l59.142-59.124
		c7.016-7.016,7.016-18.381,0-25.414l-30.045-30.027c100.955,9.962,170.567,54.529,207.276,132.858
		c64.369,137.296,7.016,335.347-18.064,365.497C741.025,606.29,741.2,616.305,747.164,622.935z M619.392,350.36
		c28.764,0,72.208,43.286,72.208,108.496c0,1.474-0.613,35.92-53.88,35.92c-52.862,0-53.862-68.945-53.88-71.84
		C583.84,377.511,597.135,350.36,619.392,350.36z"/>
	<path d="M404.591,314.44c-51.039,0-108.11,61.772-108.11,144.416c0,24.836,18.767,71.84,89.8,71.84s89.8-70.489,89.8-107.76
		C476.08,342.941,439.143,314.44,404.591,314.44z M386.28,494.776c-50.285,0-53.705-30.132-53.88-35.92
		c0-65.21,43.444-108.496,72.19-108.496c22.274,0,35.569,27.15,35.569,72.576C440.16,425.865,439.546,494.776,386.28,494.776z"/>
	<path d="M512,565.897c-33.43,0-53.88,48.513-53.88,74.927c0,20.258,20.644,32.851,53.88,32.851s53.88-12.593,53.88-32.851
		C565.88,614.41,545.43,565.897,512,565.897z M512,637.755c-8.033,0-14.031-1.175-17.521-2.28
		c2.21-14.645,12.418-32.219,17.153-33.692c5.385,1.474,15.662,19.048,17.89,33.692C526.031,636.58,520.033,637.755,512,637.755z"/>
</g>
</svg>
