<?xml version="1.0" encoding="utf-8"?>
<!-- Generator: Adobe Illustrator 14.0.0, SVG Export Plug-In . SVG Version: 6.00 Build 43363)  -->
<!DOCTYPE svg PUBLIC "-//W3C//DTD SVG 1.1//EN" "http://www.w3.org/Graphics/SVG/1.1/DTD/svg11.dtd">
<svg version="1.1" id="icon" xmlns="http://www.w3.org/2000/svg" xmlns:xlink="http://www.w3.org/1999/xlink" x="0px" y="0px"
	 width="1024px" height="1024px" viewBox="0 0 1024 1024" enable-background="new 0 0 1024 1024" xml:space="preserve">
<g>
	<path d="M451.108,385.456c-28.935,0-61.3,35.005-61.3,81.872c0,14.08,10.649,40.727,50.909,40.727
		c40.28,0,50.909-39.961,50.909-61.091C491.626,401.613,470.696,385.456,451.108,385.456z M440.717,487.691
		c-28.497,0-30.436-17.087-30.545-20.364c0-36.979,24.639-61.508,40.936-61.508c12.628,0,20.155,15.372,20.155,41.145
		C471.263,448.625,470.925,487.691,440.717,487.691z"/>
	<path d="M725.818,324.365v173.091h0.01l48.771,21.675c-30.605,10.301-65.764,18.764-105.02,25.297
		c18.295-40.986,38.828-139.319,4.176-213.262C654.883,290.906,611.492,242.91,512,242.91c-99.492,0-142.883,47.996-161.756,88.256
		c-34.662,73.942-14.119,172.275,4.176,213.262c-39.256-6.533-74.415-14.996-105.02-25.297l48.771-21.675h0.01V324.365H64v173.091
		h142.545v38.808v1.918v140.041l7.388,2.117c0.945,0.26,93.277,26.34,207.435,36.76c3.48,11.475,19.29,34.9,90.632,34.9
		c71.342,0,87.152-23.426,90.633-34.9c114.167-10.42,206.489-36.5,207.434-36.76l7.389-2.117V497.456H960V324.365H725.818z
		 M84.364,477.092v-71.272h20.363c5.628,0,10.182-4.564,10.182-10.182c0-5.633-4.554-10.182-10.182-10.182H84.364v-10.182h40.727
		c5.628,0,10.182-4.564,10.182-10.182c0-5.618-4.554-10.182-10.182-10.182H84.364v-10.182h193.455v132.363H84.364z M420.364,696.578
		c-92.501-8.691-169.87-27.643-193.455-33.828v-7.785c8.372,2.734,19.369,5.4,30.545,5.4c5.628,0,10.182-4.555,10.182-10.184
		c0-5.627-4.554-10.182-10.182-10.182c-11.763,0-23.744-3.986-30.545-6.691v-27.135c5.508,1.869,12.22,3.281,20.364,3.281
		c5.627,0,10.182-4.555,10.182-10.182s-4.554-10.182-10.182-10.182c-10.083,0-16.784-2.963-20.364-5.121V573.51
		c8.372,2.734,19.369,5.4,30.545,5.4c5.628,0,10.182-4.555,10.182-10.182c0-5.629-4.554-10.182-10.182-10.182
		c-11.763,0-23.744-3.988-30.545-6.693v-19.061c35.656,13.414,77.885,24.113,125.811,31.998c-2.297,6.145-3.629,12.607-3.629,19.209
		c0,30.875,25.126,56,56,56h15.273V696.578z M512,731.637c-56,0-70.458-15.162-71.273-20.363v-40.727h20.364v20.363
		c0,5.627,4.554,10.182,10.182,10.182c5.627,0,10.182-4.555,10.182-10.182v-20.363h20.364v20.363
		c0,5.627,4.554,10.182,10.182,10.182s10.182-4.555,10.182-10.182v-20.363h20.363v20.363c0,5.627,4.555,10.182,10.182,10.182
		c5.629,0,10.183-4.555,10.183-10.182v-20.363h20.384l0.01,40.08C582.457,716.475,568,731.637,512,731.637z M593.455,619.637
		c-5.629,0-10.182,4.555-10.182,10.182l0.01,20.363h-20.374v-20.363c0-5.627-4.554-10.182-10.183-10.182
		c-5.627,0-10.182,4.555-10.182,10.182v20.363h-20.363v-20.363c0-5.627-4.554-10.182-10.182-10.182s-10.182,4.555-10.182,10.182
		v20.363h-20.364v-20.363c0-5.627-4.554-10.182-10.182-10.182c-5.628,0-10.182,4.555-10.182,10.182v20.363h-20.364v-20.363
		c0-5.627-4.554-10.182-10.182-10.182h-25.455c-19.647,0-35.636-15.988-35.636-35.637c0-8.631,3.281-17.031,9.227-23.664
		c3.381-3.768,3.48-9.426,0.249-13.314c-14.219-17.082-46.733-129.37-10.241-207.21c23.336-49.791,70.189-75.449,139.194-76.448
		l25.355,25.365l-33.528,33.528c-1.909,1.904-2.983,4.499-2.983,7.199s1.074,5.295,2.983,7.199l54.418,54.409
		c-12.22,8.024-21.766,25.295-21.766,55.9c0,21.129,10.64,61.091,50.91,61.091c2.137,0,4.156-0.119,6.125-0.258l27.402,27.402
		c1.988,1.988,4.594,2.982,7.199,2.982s5.211-0.994,7.199-2.982c3.977-3.977,3.977-10.43,0-14.408l-19.012-19
		c16.784-8.745,21.994-24.649,21.994-34.463c0-44.302-28.914-77.964-56.518-81.514l-56.357-56.358l33.529-33.528
		c3.977-3.982,3.977-10.416,0-14.398l-17.033-17.033c57.232,5.658,96.697,30.914,117.508,75.315
		c36.492,77.84,3.979,190.128-10.24,207.21c-3.232,3.889-3.133,9.547,0.248,13.314c5.945,6.633,9.227,15.033,9.227,23.664
		c0,19.648-15.988,35.637-35.636,35.637H593.455z M572.893,405.819c16.297,0,40.926,24.53,40.926,61.508
		c0,0.825-0.348,20.364-30.545,20.364c-29.969,0-30.536-39.097-30.547-40.728C552.727,421.191,560.264,405.819,572.893,405.819z
		 M797.091,551.854c-6.802,2.705-18.782,6.693-30.546,6.693c-5.627,0-10.182,4.553-10.182,10.182
		c0,5.627,4.555,10.182,10.182,10.182c11.177,0,22.174-2.666,30.546-5.4v30.834c-3.599,2.158-10.302,5.111-20.364,5.111
		c-5.627,0-10.182,4.555-10.182,10.182c0,5.629,4.555,10.182,10.182,10.182c8.145,0,14.855-1.412,20.364-3.281v6.771
		c-6.802,2.705-18.782,6.691-30.546,6.691c-5.627,0-10.182,4.555-10.182,10.182c0,5.629,4.555,10.184,10.182,10.184
		c11.177,0,22.174-2.666,30.546-5.4v7.785c-23.575,6.186-100.942,25.137-193.454,33.828V640h15.272c30.874,0,56-25.125,56-56
		c0-6.602-1.333-13.064-3.63-19.209c47.927-7.885,90.166-18.594,125.812-31.998V551.854z M939.637,416.001h-20.363
		c-5.629,0-10.183,4.549-10.183,10.182c0,5.618,4.554,10.182,10.183,10.182h20.363v10.182h-40.728
		c-5.628,0-10.183,4.549-10.183,10.182c0,5.618,4.555,10.182,10.183,10.182h40.728v10.182H746.182V344.729h193.455V416.001z"/>
	<path d="M810.256,443.559c1.988,1.983,4.594,2.983,7.199,2.983c2.604,0,5.209-1,7.198-2.983l18.256-18.256l18.255,18.256
		c1.989,1.983,4.594,2.983,7.199,2.983s5.211-1,7.199-2.983c3.977-3.982,3.977-10.416,0-14.398l-18.256-18.255l18.256-18.256
		c3.977-3.982,3.977-10.416,0-14.397c-3.977-3.982-10.42-3.982-14.398,0l-18.255,18.255l-18.256-18.255
		c-3.978-3.982-10.421-3.982-14.397,0c-3.978,3.982-3.978,10.415,0,14.397l18.256,18.256l-18.256,18.255
		C806.278,433.143,806.278,439.576,810.256,443.559z"/>
	<path d="M213.744,378.252c-3.977-3.982-10.42-3.982-14.397,0l-18.256,18.255l-18.255-18.255c-3.978-3.982-10.421-3.982-14.398,0
		c-3.977,3.982-3.977,10.415,0,14.397l18.256,18.256l-18.256,18.255c-3.977,3.982-3.977,10.416,0,14.398
		c1.989,1.983,4.594,2.983,7.199,2.983c2.605,0,5.21-1,7.199-2.983l18.255-18.256l18.256,18.256
		c1.989,1.983,4.594,2.983,7.199,2.983s5.21-1,7.199-2.983c3.978-3.982,3.978-10.416,0-14.398l-18.255-18.255l18.255-18.256
		C217.722,388.667,217.722,382.234,213.744,378.252z"/>
	<path d="M512,528c-18.952,0-30.545,27.494-30.545,42.479c0,11.484,11.703,18.623,30.545,18.623
		c18.842,0,30.545-7.139,30.545-18.623C542.545,555.494,530.951,528,512,528z M512,568.738c-4.554,0-7.955-0.666-9.933-1.293
		c1.253-8.303,7.04-18.266,9.734-19.102c3.042,0.836,8.869,10.799,10.132,19.102C519.955,568.072,516.555,568.738,512,568.738z"/>
</g>
</svg>
