<?xml version="1.0" encoding="utf-8"?>
<!-- Generator: Adobe Illustrator 14.0.0, SVG Export Plug-In . SVG Version: 6.00 Build 43363)  -->
<!DOCTYPE svg PUBLIC "-//W3C//DTD SVG 1.1//EN" "http://www.w3.org/Graphics/SVG/1.1/DTD/svg11.dtd">
<svg version="1.1" id="icon" xmlns="http://www.w3.org/2000/svg" xmlns:xlink="http://www.w3.org/1999/xlink" x="0px" y="0px"
	 width="1024px" height="1024px" viewBox="0 0 1024 1024" enable-background="new 0 0 1024 1024" xml:space="preserve">
<g>
	<path d="M512,63.092C264.074,63.092,63.092,264.074,63.092,512S264.074,960.908,512,960.908
		c247.92,0,448.908-200.982,448.908-448.908S759.92,63.092,512,63.092 M512,881.029C308.187,881.029,142.97,715.808,142.97,512
		c0-203.813,165.216-369.029,369.029-369.029c203.803,0,369.024,165.216,369.024,369.029
		C881.024,715.808,715.802,881.029,512,881.029"/>
	<path d="M512,237.371c11.589,0,20.992-9.398,20.992-20.992c0-11.583-9.403-20.981-20.992-20.981s-20.992,9.398-20.992,20.981
		C491.008,227.973,500.411,237.371,512,237.371"/>
	<path d="M512,786.629c-11.589,0-20.992,9.397-20.992,20.986s9.403,20.986,20.992,20.986s20.992-9.397,20.992-20.986
		S523.589,786.629,512,786.629"/>
	<path d="M807.615,491.014c-11.589,0-20.991,9.397-20.991,20.986s9.402,20.986,20.991,20.986s20.992-9.397,20.992-20.986
		S819.204,491.014,807.615,491.014"/>
	<path d="M216.385,491.014c-11.589,0-20.992,9.397-20.992,20.986s9.403,20.986,20.992,20.986c11.588,0,20.991-9.397,20.991-20.986
		S227.973,491.014,216.385,491.014"/>
	<path d="M706.193,288.128c-8.196,8.197-8.196,21.481,0,29.683c8.197,8.191,21.477,8.191,29.673,0
		c8.207-8.202,8.207-21.492,0-29.683C727.67,279.937,714.39,279.932,706.193,288.128"/>
	<path d="M288.134,706.193c-8.197,8.191-8.197,21.481,0,29.678c8.186,8.197,21.476,8.197,29.683,0
		c8.186-8.196,8.186-21.486,0-29.678C309.61,697.997,296.32,697.997,288.134,706.193"/>
	<path d="M706.193,706.193c-8.196,8.191-8.196,21.481,0,29.678c8.197,8.197,21.477,8.197,29.673,0
		c8.207-8.196,8.207-21.486,0-29.678C727.67,697.997,714.39,697.997,706.193,706.193"/>
	<path d="M288.134,288.128c-8.197,8.191-8.197,21.481,0,29.683c8.186,8.191,21.476,8.191,29.683,0
		c8.186-8.202,8.186-21.492,0-29.683C309.61,279.937,296.32,279.937,288.134,288.128"/>
	<path d="M512,343.412v337.182c93.112,0,168.594-75.482,168.594-168.604C680.594,418.888,605.112,343.412,512,343.412"/>
</g>
</svg>
