<?xml version="1.0" encoding="utf-8"?>
<!-- Generator: Adobe Illustrator 14.0.0, SVG Export Plug-In . SVG Version: 6.00 Build 43363)  -->
<!DOCTYPE svg PUBLIC "-//W3C//DTD SVG 1.1//EN" "http://www.w3.org/Graphics/SVG/1.1/DTD/svg11.dtd">
<svg version="1.1" id="icon" xmlns="http://www.w3.org/2000/svg" xmlns:xlink="http://www.w3.org/1999/xlink" x="0px" y="0px"
	 width="1024px" height="1024px" viewBox="0 0 1024 1024" enable-background="new 0 0 1024 1024" xml:space="preserve">
<path fill-rule="evenodd" clip-rule="evenodd" d="M511.557,380.685c76.465-37.773,146.686-21.319,197.598,45.089
	c13.983,18.254,23.905,39.611,36.815,58.804c15.745,23.407,31.337,47.149,49.457,68.678c19.384,23.023,46.238,31.241,76.272,29.785
	c37.313-1.801,55.701-20.533,56.468-58.498c0.153-8.705,0.038-17.363,0.038-26.576c44.592,33.779,41.872,99.421-6.244,132.865
	c-15.554,10.803-33.942,19.307-52.292,23.904c-85.735,21.511-168.444,13.045-246.212-30.742
	c-44.284-24.939-72.097-56.908-110.022-124.227c-5.134,8.122-9.922,14.979-13.906,22.286
	C450.723,610.99,372.286,653.799,274.54,664.181c-47.618,5.057-95.178,1.532-140.517-16.646
	c-35.685-14.271-60.604-37.964-68.228-77.192c-5.919-30.437,3.026-51.4,32.333-71.571c0,12.144-0.651,23.474,0.115,34.698
	c1.916,27.871,17.89,44.842,45.434,48.634c38.922,5.382,72.136-6.589,95.466-37.964c20.649-27.765,38.884-57.454,56.391-87.373
	c24.25-41.393,56.391-72.979,101.557-90.562C437.545,350.459,475.317,357.393,511.557,380.685"/>
</svg>
