<?xml version="1.0" encoding="utf-8"?>
<!-- Generator: Adobe Illustrator 14.0.0, SVG Export Plug-In . SVG Version: 6.00 Build 43363)  -->
<!DOCTYPE svg PUBLIC "-//W3C//DTD SVG 1.1//EN" "http://www.w3.org/Graphics/SVG/1.1/DTD/svg11.dtd">
<svg version="1.1" id="icon" xmlns="http://www.w3.org/2000/svg" xmlns:xlink="http://www.w3.org/1999/xlink" x="0px" y="0px"
	 width="1024px" height="1024px" viewBox="0 0 1024 1024" enable-background="new 0 0 1024 1024" xml:space="preserve">
<path d="M959.191,382.896c-0.186-2.846-1.554-4.636-4.307-5.345c-1.941-0.498-3.866-1.047-5.825-1.351
	c-27.962-4.391-55.959-8.68-84.208-10.638c-22.56-1.57-45.152-2.566-67.763-3.58c-43.515-1.95-86.944-0.996-130.222,4.475
	c-26.443,3.344-52.616,8.13-78.046,16.345c-12.85,4.154-25.48,9-38.347,13.086c-20.078,6.357-40.683,9.22-61.52,5.311
	c-12.529-2.355-24.889-5.936-37.038-9.87c-21.985-7.109-43.954-14.117-66.758-18.312c-44.342-8.189-89.021-11.947-130.678-11.499
	c-33.957,0.05-64.461,1.208-94.83,4.854c-24.906,2.989-49.778,6.315-74.651,9.692c-5.285,0.726-10.452,2.28-15.627,3.647
	c-2.769,0.726-4.601,2.566-4.694,5.648c-0.481,14.69-0.988,29.373-1.359,44.08c-0.05,2.212,0.49,4.441,0.828,6.653
	c0.278,1.865,1.3,3.157,3.09,3.942c1.899,0.828,3.85,1.663,5.539,2.828c8.165,5.691,12.099,14.303,15.231,23.243
	c2.229,6.392,3.673,13.044,5.521,19.562c1.148,4.061,2.668,8.029,3.588,12.132c4.314,19.179,8.325,38.444,12.74,57.593
	c4.213,18.271,9.701,36.136,18.439,52.853c9.76,18.675,23.674,32.978,43.421,41.2c11.955,4.982,24.391,8.156,37.14,10.183
	c22.846,3.613,45.828,4.053,68.876,2.381c23.336-1.688,46.376-5.218,68.826-12.006c16.666-5.049,32.421-12.073,45.794-23.454
	c20.415-17.409,36.853-38.077,49.475-61.784c12.614-23.674,21.461-48.847,29.398-74.369c2.288-7.328,4.441-14.699,7.092-21.892
	c3.917-10.596,11.508-17.147,22.812-18.886c3.597-0.558,7.328-0.709,10.976-0.498c8.48,0.498,16.637,2.288,22.293,9.371
	c2.466,3.082,4.745,6.493,6.332,10.098c3.091,7.016,6.029,14.142,8.325,21.437c9.963,31.546,23.185,61.603,39.901,90.156
	c13.862,23.725,32.149,42.89,56.397,56.111c17.139,9.354,35.477,15.315,54.574,19.03c28.723,5.572,57.732,6.939,86.894,5.656
	c17.629-0.76,35.055-3.006,52.008-8.071c17.393-5.218,32.69-13.694,44.122-28.216c7.396-9.371,12.884-19.824,17.393-30.816
	c9.507-23.167,15.619-47.33,21.141-71.68c2.702-11.908,5.488-23.804,8.393-35.675c1.52-6.206,3.428-12.301,5.149-18.447
	c1.604-5.758,2.973-11.601,6.619-16.582c3.664-5.007,7.413-9.912,13.525-12.082c2.668-0.954,4.02-2.811,4.594-5.344
	c0.438-1.959,0.911-3.951,0.911-5.919c0.017-8.789,0.017-17.578-0.236-26.35C960.238,395.484,959.58,389.202,959.191,382.896
	 M100.855,410.715c-9.506,0-17.206-1.891-17.206-4.221c0-2.348,7.7-4.238,17.206-4.238c9.49,0,17.182,1.891,17.182,4.238
	C118.037,408.823,110.345,410.715,100.855,410.715 M433.156,503.653c-6.028,25.654-15.965,49.699-29.271,72.41
	c-7.261,12.411-15.501,24.028-25.953,33.991c-13.796,13.171-30.403,20.938-48.631,25.717c-36.904,9.658-74.229,12.073-111.985,6.417
	c-7.396-1.115-14.691-3.057-21.969-4.897c-14.986-3.85-26.358-12.579-35.004-25.446c-9.565-14.252-15.434-29.904-19.368-46.436
	c-5.133-21.58-8.021-43.515-10.199-65.563c-1.275-12.791-1.03-25.531,0.549-38.254c0.793-6.399,1.309-12.9,2.761-19.165
	c5.133-22.289,18.912-36.49,41.065-42.299c20.246-5.302,40.872-8.426,61.692-10.114c15.442-1.267,30.926-1.908,40.922-2.491
	c35.536,0.448,65.373,2.71,94.729,9.481c11.989,2.744,24.13,5.218,35.097,11.061c5.395,2.87,10.63,6.281,15.341,10.165
	c7.776,6.408,11.744,15.146,13.407,25.024C439.793,463.634,437.825,483.72,433.156,503.653 M892.966,494.138
	c-0.776,30.981-5.995,61.224-17.038,90.3c-4.457,11.77-10.52,22.645-19.638,31.476c-10.165,9.861-22.812,15.079-36.253,18.726
	c-16.887,4.576-34.16,5.674-51.553,5.826c-26.257,0.236-52.126-3.039-77.775-8.494c-25.412-5.402-45.676-18.709-61.801-38.854
	c-20.668-25.835-33.906-55.148-41.319-87.235c-3.428-14.826-6.315-29.744-5.944-45.051c0.169-6.585,0.845-13.238,2.044-19.731
	c2.954-16.176,12.884-26.739,27.844-32.817c15.028-6.079,30.749-9.793,46.604-12.934c17.646-3.504,35.443-6.121,53.393-7.278
	c14.016-0.912,28.064-1.292,37.57-1.706c37.604,1.841,70.48,4.61,102.445,13.728c5.877,1.671,11.499,4.348,17.055,6.957
	c5.269,2.466,9.32,6.501,11.938,11.728c2.888,5.783,5.858,11.566,8.139,17.586c2.668,7.059,3.259,14.623,3.546,22.112
	C892.678,470.363,893.269,482.268,892.966,494.138 M922.634,410.715c-9.489,0-17.189-1.891-17.189-4.221
	c0-2.348,7.7-4.238,17.189-4.238s17.189,1.891,17.189,4.238C939.823,408.823,932.123,410.715,922.634,410.715"/>
</svg>
