<?xml version="1.0" encoding="utf-8"?>
<!-- Generator: Adobe Illustrator 14.0.0, SVG Export Plug-In . SVG Version: 6.00 Build 43363)  -->
<!DOCTYPE svg PUBLIC "-//W3C//DTD SVG 1.1//EN" "http://www.w3.org/Graphics/SVG/1.1/DTD/svg11.dtd">
<svg version="1.1" id="icon" xmlns="http://www.w3.org/2000/svg" xmlns:xlink="http://www.w3.org/1999/xlink" x="0px" y="0px"
	 width="1024px" height="1024px" viewBox="0 0 1024 1024" enable-background="new 0 0 1024 1024" xml:space="preserve">
<g>
	<path d="M745.013,935.861l-23.42-8.655V235.661h16.292v-57.277h-16.292v-21.512h-23.421v-15.146H544.921v-10.756h-5.761V85.146
		h1.973h5.696v-5.348h-7.413c-4.457-9.354-15.021-15.783-27.368-15.783c-12.538,0-23.038,6.43-27.494,15.783h-7.509v5.348h5.727
		h1.91v45.823h-5.601v10.756h-153.38v15.146h-23.357v21.512h-15.847v57.277h15.847v691.545l-23.484,8.655l0,0v24.121h466.282
		v-24.121H745.013z M435.103,196.204h3.247v21.893h-3.247V196.204z M420.72,196.204h3.119v19.091h9.928v2.802H420.72V196.204z
		 M383.489,208.551v9.546h-3.119V196.14h6.937c2.037,0,3.819,0.573,4.965,1.719c1.273,1.143,1.844,2.671,1.844,4.519
		c0,1.207-0.254,2.417-0.954,3.5c-0.636,0.954-1.527,1.655-2.546,2.037c-1.145,0.509-2.672,0.637-4.772,0.637H383.489z
		 M412.955,410.172h-24.184v-48.433h24.184V410.172z M412.955,351.428h-24.184v-48.305h24.184V351.428z M414.802,215.231
		c-2.291,2.101-5.218,3.183-8.656,3.183c-3.309,0-6.045-1.082-8.272-3.183c-2.165-2.162-3.31-4.835-3.31-8.019
		c0-3.244,1.145-6.045,3.31-8.146c2.227-2.101,5.027-3.183,8.401-3.183c3.5,0,6.3,1.083,8.527,3.183
		c2.291,2.101,3.438,4.774,3.438,8.082C418.239,210.396,417.093,213.069,414.802,215.231z M442.614,410.172h-24.184v-48.433h24.184
		V410.172z M442.614,351.428h-24.184v-48.305h24.184V351.428z M442.486,212.877c-0.954-1.78-1.59-3.692-1.59-5.665
		c0-3.183,1.145-5.854,3.564-8.018c2.163-2.229,4.963-3.311,8.401-3.311c2.291,0,4.837,0.573,7.637,1.848v3.308
		c-2.546-1.463-5.091-2.161-7.511-2.161c-2.481,0-4.646,0.762-6.236,2.417c-1.782,1.527-2.545,3.5-2.545,5.917
		c0,2.418,0.764,4.394,2.417,5.921c1.718,1.527,3.819,2.354,6.364,2.354c2.674,0,5.22-0.826,7.765-2.417v3.5
		c-2.291,1.146-4.965,1.844-8.02,1.844c-2.417,0-4.454-0.509-6.236-1.463C444.841,215.932,443.442,214.533,442.486,212.877z
		 M472.208,410.172h-24.185v-48.433h24.185V410.172z M472.208,351.428h-24.185v-48.305h24.185V351.428z M476.027,218.097h-12.729
		v-21.893h12.41v2.798h-9.229v6.747h8.91v2.802h-8.91v6.744h9.547V218.097z M603.091,199.066c2.162-2.101,5.092-3.183,8.399-3.183
		c3.437,0,6.238,1.083,8.402,3.183c2.29,2.101,3.437,4.774,3.437,8.082c0,3.247-1.146,5.921-3.437,8.083
		c-2.164,2.101-5.091,3.183-8.53,3.183c-3.308,0-6.109-1.082-8.271-3.183c-2.293-2.162-3.311-4.835-3.311-8.019
		C599.78,203.969,600.927,201.167,603.091,199.066z M583.997,196.204h5.729c1.78,0,3.308,0.253,4.326,0.698
		c0.893,0.573,1.655,1.083,2.292,1.976c0.51,0.89,0.763,1.78,0.763,2.991c0,2.162-1.144,3.753-3.437,4.646
		c1.656,0.317,3.056,0.954,3.945,2.036c0.894,0.955,1.402,2.162,1.402,3.625c0,1.083-0.256,2.101-0.893,2.93
		c-0.635,0.954-1.399,1.591-2.546,2.226c-1.144,0.573-2.546,0.765-4.073,0.765h-7.509V196.204z M550.521,197.475
		c1.527-1.018,3.308-1.527,5.473-1.527c1.527,0,3.055,0.256,4.838,0.83v1.463c-1.527-0.509-3.311-0.89-4.838-0.89
		c-1.528,0-2.927,0.381-3.945,1.018c-1.019,0.826-1.527,1.78-1.527,2.799c0,1.21,0.509,2.037,1.527,2.802
		c1.019,0.698,2.417,1.079,3.945,1.079c1.783,0,3.311-0.381,4.963-1.207v1.655c-1.399,0.509-3.055,0.89-4.963,0.89
		c-1.656,0-2.927-0.256-4.073-0.637c-1.019-0.509-1.909-1.146-2.546-1.908c-0.638-0.766-1.019-1.656-1.019-2.674
		C548.356,199.768,549.122,198.493,550.521,197.475z M553.067,216.95v1.335h-8.403v-10.244h2.165v8.908H553.067z M543.806,196.075
		h2.004v10.183h-2.004V196.075z M542.98,216.95v1.335h-8.402v-10.244h2.036v8.908H542.98z M541.962,204.987v1.271h-8.146v-10.183
		h1.908v8.912H541.962z M490.155,85.146h43.661v45.823h-43.661V85.146z M530.885,201.804c0.637,0.445,0.894,1.018,0.894,1.655
		c0,0.57-0.129,1.019-0.51,1.463c-0.384,0.445-0.957,0.826-1.655,0.955c-0.637,0.253-1.655,0.381-2.609,0.381h-4.839v-10.183h3.756
		c1.146,0,2.037,0.128,2.674,0.317c0.638,0.256,1.146,0.573,1.464,0.958c0.253,0.381,0.445,0.762,0.445,1.335
		c0,1.083-0.638,1.72-2.037,2.229C529.55,201.039,530.252,201.295,530.885,201.804z M500.592,201.868h-1.527v4.39h-1.909v-10.183
		h4.454c1.273,0,2.292,0.192,3.246,0.766c0.701,0.634,1.083,1.271,1.083,2.097c0,0.637-0.19,1.21-0.573,1.592
		c-0.317,0.384-0.954,0.765-1.718,1.018C502.947,201.74,501.993,201.868,500.592,201.868z M517.904,217.459
		c-1.399,0.637-3.055,0.954-4.902,0.954c-1.718,0-2.99-0.253-4.009-0.698c-1.145-0.509-2.037-1.146-2.546-1.912
		c-0.699-0.826-1.082-1.652-1.082-2.609c0-1.463,0.828-2.735,2.229-3.753c1.527-1.019,3.246-1.527,5.408-1.527
		c1.466,0,3.118,0.253,4.902,0.762v1.656c-1.656-0.701-3.312-1.019-4.839-1.019c-1.653,0-2.926,0.381-3.944,1.083
		c-1.082,0.826-1.655,1.72-1.655,2.799c0,1.082,0.573,2.037,1.655,2.802c1.019,0.701,2.292,0.954,3.944,0.954
		c1.655,0,3.247-0.253,4.839-1.082V217.459z M518.666,204.603c-0.188,0.32-0.509,0.573-0.89,0.766
		c-1.146,0.637-2.546,1.018-4.326,1.018c-1.783,0-3.184-0.381-4.329-1.018c-0.446-0.192-0.764-0.445-0.956-0.766
		c-0.126-0.188-0.317-0.573-0.509-1.018c-0.19-0.381-0.19-0.89-0.19-1.716v-5.793h2.037v5.793c0,0.954,0,1.591,0.382,1.973
		c0.381,0.381,0.826,0.698,1.335,0.954c0.701,0.192,1.337,0.317,2.23,0.317c1.143,0,2.161-0.189,2.862-0.698
		c0.381-0.192,0.701-0.573,0.954-0.83c0.128-0.381,0.128-0.89,0.128-1.716v-5.793h2.037v5.793c0,0.826-0.064,1.335-0.257,1.716
		C518.986,204.03,518.922,204.414,518.666,204.603z M521.532,218.286h-2.101l5.981-10.308h1.464l6.173,10.308h-2.036l-1.78-3.055
		h-5.985L521.532,218.286z M533.178,505.507v39.46h-5.412v-39.46H533.178z M536.361,603.454c-4.711,0-8.595-3.881-8.595-8.527
		c0-4.71,3.884-8.466,8.595-8.466c4.643,0,8.56,3.756,8.56,8.466C544.921,599.573,541.004,603.454,536.361,603.454z
		 M575.978,410.172h-24.058v-48.433h24.058V410.172z M575.978,351.428h-24.058v-48.305h24.058V351.428z M605.509,410.172h-24.058
		v-48.433h24.058V410.172z M605.509,351.428h-24.058v-48.305h24.058V351.428z M635.167,410.172h-24.186v-48.433h24.186V410.172z
		 M635.167,351.428h-24.186v-48.305h24.186V351.428z M639.874,218.097l-7.509-9.165l-7.509,9.165h-3.82l9.293-11.329l-8.656-10.564
		h3.82l6.872,8.399l6.875-8.399h3.817l-8.784,10.564l9.421,11.329H639.874z"/>
	<path d="M595.198,213.643c0.381-0.509,0.509-1.146,0.509-1.784s-0.128-1.271-0.509-1.909c-0.382-0.509-1.019-0.89-1.781-1.146
		c-0.637-0.317-1.783-0.445-3.438-0.445h-2.927v6.936h3.183c1.655,0,2.799-0.125,3.564-0.381
		C594.307,214.661,594.816,214.212,595.198,213.643z"/>
	<path d="M611.49,215.487c2.546,0,4.582-0.826,6.238-2.417c1.527-1.591,2.417-3.564,2.417-5.985c0-2.29-0.89-4.262-2.417-5.917
		c-1.656-1.527-3.692-2.29-6.11-2.29c-2.417,0-4.582,0.762-6.109,2.29c-1.655,1.655-2.546,3.628-2.546,6.045
		c0,2.357,0.891,4.394,2.546,5.921C607.036,214.661,609.072,215.487,611.49,215.487z"/>
	<path d="M592.78,204.603c0.762-0.634,1.019-1.399,1.019-2.481c0-2.101-1.274-3.119-3.945-3.119h-2.802v6.619h2.164
		C590.872,205.621,592.142,205.24,592.78,204.603z"/>
	<path d="M406.401,198.877c-2.418,0-4.519,0.762-6.11,2.354c-1.654,1.591-2.417,3.564-2.417,5.981c0,2.357,0.764,4.394,2.417,5.921
		c1.656,1.588,3.564,2.354,6.11,2.354c2.419,0,4.392-0.765,6.11-2.417c1.655-1.591,2.419-3.564,2.419-5.985
		c0-2.29-0.764-4.262-2.419-5.854C410.792,199.64,408.82,198.877,406.401,198.877z"/>
	<path d="M499.129,197.35v3.18h2.227c0.828,0,1.463-0.125,1.782-0.381c0.509-0.317,0.764-0.701,0.764-1.271
		c0-1.019-0.955-1.527-2.672-1.527H499.129z"/>
	<path d="M386.672,198.938h-3.183v6.811h3.438c1.209,0,2.291-0.253,2.927-0.826c0.7-0.637,1.019-1.463,1.019-2.609
		C390.872,200.148,389.472,198.938,386.672,198.938z"/>
	<path d="M524.266,197.411v3.055h1.274c1.082,0,1.78-0.189,2.226-0.509c0.573-0.253,0.701-0.698,0.701-1.079
		c0-1.019-0.89-1.467-2.546-1.467H524.266z"/>
	<path d="M526.051,201.74h-1.784v3.247h1.912c1.207,0,1.78-0.064,2.161-0.192c0.509-0.128,0.766-0.317,1.019-0.573
		c0.256-0.253,0.384-0.637,0.384-0.89c0-0.256-0.128-0.509-0.384-0.765c-0.253-0.317-0.635-0.509-1.019-0.634
		C527.766,201.804,527.068,201.74,526.051,201.74z"/>
	<polygon points="524.013,213.959 528.34,213.959 526.051,210.203 	"/>
</g>
</svg>
