<?xml version="1.0" encoding="utf-8"?>
<!-- Generator: Adobe Illustrator 14.0.0, SVG Export Plug-In . SVG Version: 6.00 Build 43363)  -->
<!DOCTYPE svg PUBLIC "-//W3C//DTD SVG 1.1//EN" "http://www.w3.org/Graphics/SVG/1.1/DTD/svg11.dtd">
<svg version="1.1" id="icon" xmlns="http://www.w3.org/2000/svg" xmlns:xlink="http://www.w3.org/1999/xlink" x="0px" y="0px"
	 width="1024px" height="1024px" viewBox="0 0 1024 1024" enable-background="new 0 0 1024 1024" xml:space="preserve">
<g>
	<path d="M894.924,273.453L748.359,420.016c-14.766,14.656-14.766,59.5,0,74.266l146.564,146.455
		c14.656,14.768,65.078,14.768,65.078-15.859V289.314C960.002,258.797,909.58,258.797,894.924,273.453z"/>
	<path d="M511.998,64h-336h-112v112v52.499V662.5V736l336,224V848h112c61.792,0,112-50.203,112-112V176
		C623.998,114.094,573.788,64,511.998,64z M511.954,736.002h-112v-448L231.954,176h280V736.002z"/>
</g>
</svg>
