<?xml version="1.0" encoding="utf-8"?>
<!-- Generator: Adobe Illustrator 14.0.0, SVG Export Plug-In . SVG Version: 6.00 Build 43363)  -->
<!DOCTYPE svg PUBLIC "-//W3C//DTD SVG 1.1//EN" "http://www.w3.org/Graphics/SVG/1.1/DTD/svg11.dtd">
<svg version="1.1" id="icon" xmlns="http://www.w3.org/2000/svg" xmlns:xlink="http://www.w3.org/1999/xlink" x="0px" y="0px"
	 width="1024px" height="1024px" viewBox="0 0 1024 1024" enable-background="new 0 0 1024 1024" xml:space="preserve">
<g>
	<path d="M948.927,420.016L802.364,273.453c-14.656-14.656-65.078-14.656-65.078,15.861v335.562
		c0,30.627,50.422,30.627,65.078,15.859l146.562-146.455C963.69,479.516,963.69,434.672,948.927,420.016z"/>
	<path d="M512.001,64h-336h-112v112v52.499V662.5V736l336,224V848h112c61.794,0,112.001-50.203,112.001-112V176
		C624.002,114.094,573.793,64,512.001,64z M511.958,736.002h-112v-448L231.958,176h280V736.002z"/>
</g>
</svg>
