<?xml version="1.0" encoding="utf-8"?>
<!-- Generator: Adobe Illustrator 14.0.0, SVG Export Plug-In . SVG Version: 6.00 Build 43363)  -->
<!DOCTYPE svg PUBLIC "-//W3C//DTD SVG 1.1//EN" "http://www.w3.org/Graphics/SVG/1.1/DTD/svg11.dtd">
<svg version="1.1" id="icon" xmlns="http://www.w3.org/2000/svg" xmlns:xlink="http://www.w3.org/1999/xlink" x="0px" y="0px"
	 width="1024px" height="1024px" viewBox="0 0 1024 1024" enable-background="new 0 0 1024 1024" xml:space="preserve">
<path d="M934.466,662.671l-176.444-71.768c-2.064-8.634-5.132-16.77-9.01-24.526c21.773-7.76,37.604-27.656,39.481-51.62
	c46.739,0.719,83.029-24.403,99.359-52.652c2.941,0.938,6.132,1.845,9.449,1.845c16.392,0,29.721-13.265,29.721-29.659
	c0-16.486-13.329-29.721-29.721-29.721c-0.126,0-0.313,0.064-0.439,0.064c-4.13-43.393-24.527-99.955-87.534-99.456l-677.942,5.132
	c-2.314-15.112-11.699-26.779-23.964-27.812c-13.64-1.097-25.966,11.136-29.469,28.187h-0.563l-0.501,6.039c0,0.062,0,0.062,0,0.062
	l-4.569,56.562l-6.693,82.718l0,0c-1.314,19.928,9.511,36.979,24.527,38.199c15.016,1.22,28.468-13.86,30.345-33.727l282,22.963
	c-4.003,8.009-6.505,16.957-6.505,26.592c0,33.131,26.903,60.037,60.066,60.037h73.143c-6.819,15.142-10.887,31.973-10.887,49.681
	c0,67.261,54.497,121.76,121.698,121.76c48.928,0,90.726-28.908,110.185-70.454l155.11,63.134
	c19.646,8.071,42.297-1.439,50.307-21.212C963.688,693.266,954.115,670.742,934.466,662.671z M640.016,650.908
	c-17.145,0-31.034-13.891-31.034-31.097c0-17.145,13.89-31.034,31.034-31.034c17.269,0,31.097,13.89,31.097,31.034
	C671.112,637.018,657.284,650.908,640.016,650.908z"/>
</svg>
