<?xml version="1.0" encoding="utf-8"?>
<!-- Generator: Adobe Illustrator 14.0.0, SVG Export Plug-In . SVG Version: 6.00 Build 43363)  -->
<!DOCTYPE svg PUBLIC "-//W3C//DTD SVG 1.1//EN" "http://www.w3.org/Graphics/SVG/1.1/DTD/svg11.dtd">
<svg version="1.1" id="icon" xmlns="http://www.w3.org/2000/svg" xmlns:xlink="http://www.w3.org/1999/xlink" x="0px" y="0px"
	 width="1024px" height="1024px" viewBox="0 0 1024 1024" enable-background="new 0 0 1024 1024" xml:space="preserve">
<g>
	<path fill-rule="evenodd" clip-rule="evenodd" d="M694.046,484.874C680.84,395.694,604.767,327.045,512,327.045
		c-92.765,0-168.838,68.649-182.042,157.829H65.798C79.881,250.148,273.965,63.998,512,63.998
		c238.037,0,432.119,186.15,446.201,420.875H694.046z M435.627,507.889c0-42.673,34.559-77.269,77.195-77.269
		c42.634,0,77.196,34.596,77.196,77.269c0,42.675-34.562,77.271-77.196,77.271C470.187,585.16,435.627,550.564,435.627,507.889
		 M512,696.956c93.329,0,169.701-69.503,182.21-159.474h264.074C945.016,772.979,750.591,960.002,512,960.002
		c-238.59,0-433.013-187.022-446.284-422.52h264.075C342.297,627.453,418.671,696.956,512,696.956"/>
</g>
</svg>
