<?xml version="1.0" encoding="utf-8"?>
<!-- Generator: Adobe Illustrator 14.0.0, SVG Export Plug-In . SVG Version: 6.00 Build 43363)  -->
<!DOCTYPE svg PUBLIC "-//W3C//DTD SVG 1.1//EN" "http://www.w3.org/Graphics/SVG/1.1/DTD/svg11.dtd">
<svg version="1.1" id="icon" xmlns="http://www.w3.org/2000/svg" xmlns:xlink="http://www.w3.org/1999/xlink" x="0px" y="0px"
	 width="1024px" height="1024px" viewBox="0 0 1024 1024" enable-background="new 0 0 1024 1024" xml:space="preserve">
<path fill-rule="evenodd" clip-rule="evenodd" d="M914.319,727.511c-76.271,138.544-223.691,232.491-393.152,232.491
	C273.478,960.002,72.689,759.424,72.689,512c0-247.424,200.788-448.002,448.478-448.002c203.804,0,375.577,135.92,430.144,321.882
	L492.363,542.818L914.319,727.511z M678.34,382.943c43.631,0,78.998-35.7,78.998-79.736c0-44.039-35.367-79.735-78.998-79.735
	c-43.63,0-78.999,35.696-78.999,79.735C599.341,347.243,634.71,382.943,678.34,382.943"/>
</svg>
