<?xml version="1.0" encoding="utf-8"?>
<!-- Generator: Adobe Illustrator 14.0.0, SVG Export Plug-In . SVG Version: 6.00 Build 43363)  -->
<!DOCTYPE svg PUBLIC "-//W3C//DTD SVG 1.1//EN" "http://www.w3.org/Graphics/SVG/1.1/DTD/svg11.dtd">
<svg version="1.1" id="icon" xmlns="http://www.w3.org/2000/svg" xmlns:xlink="http://www.w3.org/1999/xlink" x="0px" y="0px"
	 width="1024px" height="1024px" viewBox="0 0 1024 1024" enable-background="new 0 0 1024 1024" xml:space="preserve">
<g>
	<path d="M944.952,436.899c-49.028-89.614-186.479-68.749-227.498,17.033c-41.023-85.782-178.509-106.649-227.5-17.033
		c-41.135,75.194,17.437,190.609,62.596,251.293c40.66,54.834,103.672,101.856,164.901,131.594
		c-72.481-61.642-53.715-118.593-4.439-119.247C941.023,703.917,985.991,512.094,944.952,436.899z"/>
	<path d="M442.271,410.844c29.522-54.029,85.573-86.237,149.896-86.237c42.538,0,83.562,14.515,116.615,38.659
		c0.396-29.183-5.03-57.055-18.443-81.649c-65.31-119.499-248.732-91.778-303.415,22.68
		c-54.57-114.458-237.975-142.179-303.302-22.68c-54.836,100.145,5.235,355.973,309.201,351.539
		c65.784,0.856,90.774,76.812-5.899,158.963c40.624-19.708,81.797-45.159,119.648-74.744
		C479.877,680.836,378.119,528.123,442.271,410.844z"/>
</g>
</svg>
