<?xml version="1.0" encoding="utf-8"?>
<!-- Generator: Adobe Illustrator 14.0.0, SVG Export Plug-In . SVG Version: 6.00 Build 43363)  -->
<!DOCTYPE svg PUBLIC "-//W3C//DTD SVG 1.1//EN" "http://www.w3.org/Graphics/SVG/1.1/DTD/svg11.dtd">
<svg version="1.1" id="icon" xmlns="http://www.w3.org/2000/svg" xmlns:xlink="http://www.w3.org/1999/xlink" x="0px" y="0px"
	 width="1024px" height="1024px" viewBox="0 0 1024 1024" enable-background="new 0 0 1024 1024" xml:space="preserve">
<g>
	<path d="M946.945,323.868c-23.614-88.842-99.295-157.28-193.877-157.28c-51.578,0-101.744,18.491-142.331,51.191
		c-12.891-30.257-31.911-57.492-55.979-79.631C419.474,13.719,224.525,134.252,141,260.484
		C33.053,423.619,35.77,635.408,165.488,786.148C279.652,918.806,441.829,965.445,610.74,922.895
		c49.558-12.485,79.449-29.874,113.691-52.311c37.525-24.587,77.792-64.158,106.229-98.807
		c79.212-96.515,127.311-216.425,129.459-341.674C960.731,394.592,956.078,358.224,946.945,323.868z M500.991,847.813
		c-57.279,0-103.711-46.43-103.711-103.707c0-57.28,46.433-103.713,103.711-103.713c57.275,0,103.707,46.433,103.707,103.713
		C604.701,801.383,558.269,847.813,500.991,847.813z M904.094,525.971C873.3,652.72,794.39,780.601,677.357,853.454
		c12.949-8.064,22.939-51.306,26.757-65.192c18.187-66.183-6.058-135.854-56.179-186.604
		c-59.218-59.965-144.879-69.969-223.844-93.267c-38.574-11.374-84.464-24.604-117.995-46.644
		c-121.574-79.916-63.49-331.335,95.88-331.335c186.174,0,187.358,173.555,187.358,173.555s41.934-91.245,164.636-91.245
		c75.462,0,133.747,72.703,150.333,135.089C920.145,407.403,918.25,467.694,904.094,525.971z"/>
</g>
</svg>
