<?xml version="1.0" encoding="utf-8"?>
<!-- Generator: Adobe Illustrator 14.0.0, SVG Export Plug-In . SVG Version: 6.00 Build 43363)  -->
<!DOCTYPE svg PUBLIC "-//W3C//DTD SVG 1.1//EN" "http://www.w3.org/Graphics/SVG/1.1/DTD/svg11.dtd">
<svg version="1.1" id="icon" xmlns="http://www.w3.org/2000/svg" xmlns:xlink="http://www.w3.org/1999/xlink" x="0px" y="0px"
	 width="1024px" height="1024px" viewBox="0 0 1024 1024" enable-background="new 0 0 1024 1024" xml:space="preserve">
<path d="M923.344,356.02l-0.963-1.813c-8.24-15.534-26.101-34.053-64.373-34.053c-16.364,0-32.629,3.38-44.508,5.847
	c-3.53,0.734-6.868,1.428-9.266,1.827c-17.451,2.908-66.723,24.426-103.912,41.444c-0.675-7.015-1.584-14.301-2.81-20.844
	c-3.072-16.384-14.265-36.143-23.715-49.171c-17.259-23.793-35.354-35.857-53.789-35.857c-2.895,0-5.785,0.303-8.583,0.904
	c-15.347,3.288-42.265,19.862-66.542,36.553c-4.035-1.141-8.19-1.727-12.399-1.727c-14.83,0.002-25.312,7.128-29.451,10.517
	c-78.101,62.503-176.903,131.493-240.335,167.822c-30.853,17.667-62.491,31.92-93.09,45.699
	c-15.482,6.972-31.492,14.179-47.266,21.768c-53.526,25.75-59.582,85.058-54.72,116.046l1.286,8.197l5.151,6.51
	c17.512,22.115,61.586,51.215,248.531,80.125c20.564,3.18,42.594,4.79,65.492,4.79c95.217,0,189.038-27.78,225.81-45.294
	c3.704-1.766,7.985-3.588,12.63-5.435c9.485,3.73,20.335,5.611,32.51,5.611c8.379,0,17.482-0.917,27.053-2.729
	c69.187-13.069,127.593-15.02,156.252-15.02c14.554,0,22.933,0.489,23.018,0.497l1.58,0.093l1.21-1.029
	c1.195-1.018,2.212-2.047,3.053-3.087h58.506c4.109,0,7.438-3.33,7.438-7.435c0-4.105-3.329-7.435-7.438-7.435h-58.706
	c-3.168-3.411-7.646-5.165-8.356-5.419l-0.517-0.186l-0.547-0.038c-0.139-0.008-14.099-0.929-35.59-0.929
	c-28.281,0-67.132,1.557-106.783,7.896c0.94-0.246,1.923-0.509,2.76-0.725c11.119-1.78,77.434-12.491,121.792-21.914
	c52.617-11.186,96.046-40.068,97.872-41.29l12.942-8.691l0.964-15.56C965.34,434.955,940.072,387.454,923.344,356.02z
	 M683.018,412.133c0,0,105.146-49.619,126.413-53.163c11.446-1.908,30.779-7.244,48.577-7.244c6.846,0,12.095,0.486,16.89,3.827
	c3.129,2.575,4.94,5.953,4.902,9.83c-0.062,6.581-3.407,12.871-9.943,18.697c-1.72,1.532-3.87,3.526-6.391,5.868
	c-20.428,18.959-68.296,63.345-104.209,59.414c-33.655-3.688-49.989-13.999-78.009-38.744L683.018,412.133z M757.967,461.133
	c41.34,4.517,90.114-40.747,113.555-62.507c2.451-2.276,4.541-4.218,6.213-5.708c9.166-8.165,13.845-17.426,13.906-27.522
	c0-0.28-0.031-0.545-0.031-0.823c1.049,1.351,2.021,2.817,2.884,4.434c12.888,24.291,31.589,54.802,31.681,154.386
	c-38.472,21.46-91.267,33.778-91.69,33.875c-0.81,0.143-81.273,14.256-106.437,20.106c-10.515,2.444-29.462,8.264-51.399,15.009
	c-20.358,6.255-43.93,13.485-66.797,19.888c1.407-16.08,5.35-33.505,11.905-51.068c35.736-95.745,20.782-145.077,15.864-161.287
	c-1.053-3.479-2.837-7.701-5.3-12.281c6.688,2.676,13.424,6.829,20.115,12.921l1.973,1.802
	C696.268,440.49,713.594,456.269,757.967,461.133z M618.041,295.174c0.64-0.137,1.299-0.202,1.969-0.202
	c16.728,0,43.062,41.101,46.47,59.273c3.3,17.59,4.04,43.338,4.124,46.831c-2.636-2.388-5.35-4.858-8.217-7.472l-1.98-1.802
	c-12.712-11.578-25.577-17.326-37.979-19.227c-13.875-17.716-36.245-35.154-65.868-35.158h-0.008c-3.202,0-6.451,0.268-9.716,0.678
	C550.789,335.259,602.142,298.581,618.041,295.174z M532.485,330.702c3.978,0,8.857,1.702,13.944,7.444
	c-4.701,0.613-9.446,1.619-14.206,3.068l-6.013-9.079C527.838,331.384,529.965,330.702,532.485,330.702z M517.77,328.886
	c0.683,0,1.249,0.065,1.646,0.129l8.876,13.404l14.808,22.364l17.232,26.025l-1.337,1.212c-0.023,0.016-0.047,0.033-0.069,0.048
	c0,0.001,0.008,0.005,0.008,0.007l-0.779,0.709c-2.605,1.896-4.995,3.765-7.176,5.583c-4.348-2.401-9.111-4.665-14.33-6.669
	l-0.471-0.222c-12.642-11.774-28.488-46.396-30.955-51.895C508.73,330.765,513.957,328.886,517.77,328.886z M596.08,386.022
	c0.979-0.307,1.988-0.562,2.982-0.84c3.153,4.303,6.274,9.329,9.331,15.186c-2.625,2.231-4.32,5.515-4.32,9.229
	c0,6.669,5.372,12.073,12.024,12.15c9.782,43.602-7.87,100.929-25.938,152.567c-4.771,13.636-7.993,29.484-8.825,45.525
	c-2.498,0.62-5.034,1.264-7.466,1.838c-69.161,16.365-133.719,23.114-197.351,20.624c-24.89-0.972-54.265-4.54-83.688-9.273
	c0.937-6.617,1.556-12.938,1.817-18.924c0,0,22.121-29.993,39.135-46.643c5.774,3.522,19.949,10.68,19.949,10.68
	s-0.069-0.085-0.169-0.22c2.154,1.958,4.972,3.191,8.113,3.191c6.718,0,12.164-5.442,12.164-12.164
	c0-5.704-3.947-10.46-9.246-11.771c-2.571-1.95-5.889-4.494-9.913-7.646c4.741-3.496,9.239-6.414,13.197-8.418
	c4.055-2.05,8.171-4.216,12.279-6.397c5.049,3.453,9.497,6.702,12.757,9.431c0.22,6.525,5.542,11.751,12.118,11.751
	c6.722,0,12.164-5.445,12.164-12.163c0-4.54-2.521-8.456-6.205-10.545c-1.734-2.267-4.783-5.989-9.13-10.36
	c7.766-4.382,15.189-8.684,21.934-12.668c6.206,4.571,13.104,10.514,20.628,18.25l0.601,0.616l0.301-0.008
	c2.212,2.306,5.311,3.754,8.756,3.754c6.718,0,12.164-5.441,12.164-12.163c0-1.804-0.42-3.508-1.125-5.049
	c-0.096-0.208-0.216-0.394-0.324-0.594l-0.374-0.485c-0.212-0.271-1.137-1.445-2.594-3.176c-2.844-3.376-7.87-9.011-14.615-15.251
	c5.465-3.365,8.765-5.446,8.919-5.546c0.721-0.485,6.17-4.186,14.226-9.905c4.525,3.893,16.076,14.646,16.635,14.676
	c2.139,3.477,5.947,5.812,10.333,5.812c6.714,0,12.164-5.446,12.164-12.164c0-3.218-1.272-6.12-3.314-8.298
	c0.054-0.374-5.658-9.146-13.27-16.523c4.764-3.584,9.701-7.38,14.704-11.324c5.469,3.762,11.276,8.372,17.311,13.968
	c1.92,4.193,6.128,7.123,11.038,7.123c6.722,0,12.164-5.45,12.164-12.164c0-2.166-0.608-4.17-1.604-5.932
	c-0.863-1.762-5.851-11.228-17.382-20.786c4.517-3.935,8.814-7.855,12.8-11.709c7.924,5.419,13.131,9.019,22.959,19.286
	c2.212,3.037,5.77,5.034,9.812,5.034c6.722,0,12.164-5.45,12.164-12.164c0-3.457-1.453-6.56-3.77-8.772
	c-0.162-0.293-4.154-9.427-21.622-21.739c4.344-3.509,9.212-7.017,14.522-10.146c6.021-3.369,12.657-6.41,19.864-8.688
	c0.077-0.02,0.146-0.048,0.224-0.069C596.083,386.024,596.083,386.024,596.08,386.022z M562.598,434.878
	c-0.224-0.2-0.447-0.401-0.736-0.663c-27.631-25.25-47.661-28.59-52.696-29.006l-10.048-17.586
	c14.253,0.94,26.503,3.976,36.901,8.055l13.744,6.511c11.475,6.431,19.784,13.796,25.311,19.678
	c0.562,0.602,1.029,1.118,1.441,1.592c3.199,3.658,2.336,3.874,2.983,4.891c0.64,6.571-8.931,10.044-12.19,11.031
	C564.383,436.347,564.764,436.828,562.598,434.878z M531.483,416.893c-3.01,2.838-6.209,5.714-9.527,8.612l-10.327-16.007
	C515.492,410.159,522.326,411.996,531.483,416.893z M525.656,437.252c5.534,4.437,9.551,8.884,12.321,12.495
	c2.733,3.562,4.259,6.31,4.822,7.416c-1.388,5.705-10.091,8.684-12.773,8.942c-2.065-1.993-4.101-3.854-6.112-5.619
	c-28.65-25.164-51.451-28.329-56.793-28.722l-1.103-1.893c-2.02-4.031-4.209-8.29-6.444-12.505
	c10.06-0.15,19.001,0.729,26.945,2.311c0,0,4.066,0.906,8.352,2.016c9.45,2.702,17.243,6.41,23.593,10.437
	C520.807,433.76,525.656,437.252,525.656,437.252z M496.867,446.121c-4.417,3.438-8.745,6.737-12.927,9.871
	c-2.667-2.251-5.508-4.51-8.495-6.687c-1.411-3.01-3.662-7.754-6.398-13.324C473.835,436.682,483.855,438.971,496.867,446.121z
	 M475.022,454.049c11.277,8.556,20.269,17.979,24.732,22.963c1.145,1.28,2.07,2.336,2.563,2.929
	c-1.361,9.913-9.416,11.424-14.18,11.424c-0.351,0-0.655-0.008-0.898-0.023c-0.702-0.736-1.365-1.388-2.05-2.097
	c-27.473-28.352-46.258-32.745-55.13-32.745c-1.264,0-2.29,0.092-3.068,0.2l-2.598-5.928l-4.949-11.273
	c4.386-1.927,9.104-2.902,14.06-2.902c1.156,0,2.316,0.15,3.477,0.255C441.498,437.984,465.062,443.203,475.022,454.049z
	 M430.059,460.446c4.702,0,15.147,1.573,30.583,12.511c-6.648,4.694-10.873,7.562-10.996,7.647
	c-0.124,0.077-3.739,2.359-9.682,6.012l-0.57-1.634L428.656,460.5C429.072,460.47,429.527,460.446,430.059,460.446z
	 M453.935,508.462c3.18,3.399,5.461,6.097,6.571,7.454c-4.189,7.369-11.454,8.803-13.906,9.08c-1.588-1.619-3.129-3.122-4.664-4.59
	c-27.353-26.197-46.042-29.203-53.064-29.203c-0.409,0-0.771,0.011-1.095,0.027l-8.996-21.487c1.619-0.154,3.253-0.231,4.895-0.231
	c9.952,0,19.664,2.836,28.667,7.099c8.028,4.949,16.712,10.36,21.73,13.613C442.358,496.664,449.176,503.371,453.935,508.462z
	 M388.873,495.149c3.191,0,11.47,0.879,23.811,7.809c-5.265,3.08-10.85,6.298-16.635,9.559l-0.262-1.021
	c-0.093-0.2-3.246-6.903-7.362-16.326C388.588,495.165,388.68,495.149,388.873,495.149z M404.552,531.617
	c2.174,2.506,3.662,4.44,4.355,5.393c-0.948,3.981-3.021,8.329-7.569,8.329c-0.671,0-1.233-0.097-1.588-0.178
	c-1.399-1.557-3.523-3.427-6.128-5.5c-16.242-12.899-51.989-33.874-59.283-38.114c1.698-5.295,9.788-6.117,11.279-6.221
	C375.803,502.241,395.907,521.666,404.552,531.617z M368.901,527.267c-2.128,1.105-4.263,2.216-6.367,3.283
	c-3.669,1.854-7.701,4.371-11.91,7.319c-0.316-0.671-0.655-1.38-1.056-2.224c-3.141-6.61-8.078-17.001-13.021-28.225
	C343.648,511.607,356.641,519.377,368.901,527.267z M588.341,376.281c-0.008-0.006-0.016-0.012-0.02-0.018
	c-0.158,0.058-0.312,0.129-0.467,0.187c-0.4,0.152-0.79,0.316-1.187,0.472c-8.075,3.108-15.787,7.306-22.602,11.767
	c-0.1,0.062-0.185,0.122-0.281,0.185l-17.066-25.773c2.486-0.909,6.903-2.158,12.473-2.158c8.656,0,19.961,3.057,31.539,14.513
	C589.935,375.734,589.127,375.986,588.341,376.281z M504.938,348.371c5.018,10.555,14.44,29.122,23.601,40.546
	c-9.628-2.923-20.541-4.934-32.851-5.429l-0.871-0.035l-11.748-18.194C490.477,359.61,497.769,353.975,504.938,348.371z
	 M474.837,359.787l43.604,67.544c-8.204-5.195-16.926-8.063-22.908-9.574c-2.185-0.615-4.463-1.172-6.822-1.671l-31.319-39.923
	C456.614,368.815,468.562,362.344,474.837,359.787z M458.387,383.828l24.466,31.182c-7.608-1.208-16.041-1.789-25.368-1.526
	c-4.17-7.672-8.417-14.916-12.094-20.057C449.738,390.237,454.071,387.038,458.387,383.828z M437.59,390.285
	c3.63,2.948,9.45,12.345,15.478,23.341l9.408,17.995c2.363,4.706,4.575,9.231,6.51,13.262c-9.62-6.136-20.335-10.946-31.149-11.994
	l-16.261-31.913C425.75,391.532,434.958,390.41,437.59,390.285z M421.965,410.425l11.332,22.233
	c-5.435,0.03-10.592,1.167-15.409,3.287l-7.554-17.228C414.207,415.971,418.08,413.21,421.965,410.425z M403.45,412.848
	l10.865,24.767l-0.004,0.004l9.705,22.127l0.17,0.381l11.493,26.201c-6.591-5.045-14.053-9.87-22.108-13.601
	c-2.613-1.607-5.13-3.145-7.388-4.525l-17.193-45.688C391.455,414.772,400.135,413.175,403.45,412.848z M388.981,433.695
	l13.042,34.661c-5.928-1.75-12.071-2.791-18.346-2.791c-2.389,0-4.771,0.177-7.111,0.478c-2.609-7.069-4.856-13.875-6.255-19.541
	C376.478,442.312,382.699,438.046,388.981,433.695z M364.885,437.638c0.883,19.329,26.197,73.129,27.203,75.18l0.019,0.069
	c-9.362-7.57-26.066-15.271-30.02-17.043l-15.208-47.314C351.049,441.881,360.476,438.771,364.885,437.638z M347.086,462.073
	l10.499,32.656c-3.635-1.26-7.385-2.417-11.37-3.318l-0.247-0.054l-0.254,0.008c-0.47,0.015-9.379,0.413-13.534,5.874
	c-2.943-7.053-5.681-14.087-7.797-20.423C331.76,472.105,339.332,467.191,347.086,462.073z M317.502,467.269
	c2.237,9.574,7.238,22.608,12.628,35.254l0.646,1.522c5.646,13.143,11.617,25.695,15.232,33.292
	c0.124,0.259,1.099,2.302,1.099,2.302l-2.617,2.374c0,0-18.598-15.524-24.992-21.187c-0.077-0.065-0.145-0.123-0.22-0.189
	c-0.896-0.805-1.729-1.61-2.477-2.416c-8.448-9.135-15.149-35.566-16.093-39.428C303.124,470.259,313.431,467.885,317.502,467.269z
	 M345.086,541.924c-0.003,0.004-0.003,0.008-0.007,0.008c-0.012-0.012-0.027-0.023-0.042-0.035
	C345.052,541.908,345.067,541.916,345.086,541.924z M300.26,491.889c1.729,5.573,4.018,12.118,6.737,17.907
	c-5.924-5.458-10.442-9.982-13.848-13.602C295.483,494.795,297.857,493.357,300.26,491.889z M281.536,488.721
	c2.492,3.407,11.876,15.186,35.994,35.62c17.394,14.734,31.822,26.112,40.752,32.984c4.193,3.226,7.188,5.469,8.691,6.583
	c-2.544,8.009-7.654,9.735-11.593,9.735c-1.288,0-2.247-0.2-2.355-0.2c-0.008,0-0.012,0.004-0.012,0.008
	c-1.037-0.49-2.066-1.002-3.091-1.511c0.1,0.385,0.3,0.725,0.436,1.095c-0.189-0.394-0.351-0.775-0.436-1.095
	c-46.196-22.929-82.092-67.163-86.351-72.547C264.094,491.7,277.549,489.272,281.536,488.721z M267.881,510.651
	c10.414,11.867,30.45,32.822,55.699,50.193c-11.538,11.4-22.243,24.077-29.238,35.447c-1.687-20.177-8.187-35.732-19.506-46.412
	c-17.729-16.728-42.059-16.77-53.509-15.663C236.784,526.938,252.31,519.181,267.881,510.651z M214.079,537.588
	c0.349-0.073,36.092-5.55,58.049,15.162c11.688,11.027,17.907,27.777,18.643,49.946c0.077,3.607-0.037,10.321-0.037,10.321
	c-0.235,6.105-0.842,12.572-1.802,19.379c-18.282-3.002-36.489-6.429-53.59-9.947c2.401-29.985-2.958-51.512-16.041-63.891
	c-9.562-9.042-20.714-10.804-27.05-10.977C199.915,544.121,214.079,537.588,214.079,537.588z M124.566,580.48
	c0,0,6.355-4.636,11.464-7.091c17.023-8.19,49.372-22.709,49.372-22.709c0.158-0.027,18.67-1.138,31.232,10.788
	c12.069,11.458,17.008,31.738,14.806,60.175c-37.324-7.785-68.805-15.864-82.98-20.589c-19.472-6.49-23.774-12.121-24.605-14.9
	C123.332,584.412,124.479,580.589,124.566,580.48z M388.083,729.028c-20.269,0-40.677-1.329-60.667-4.421
	c-114.595-17.721-206.154-40.168-228.601-68.523c0,0-1.838-11.84,0.168-26.975c12.491,10.992,32.857,24.416,85.389,33.173
	c0.347,0.054,0.694,0.054,1.037,0.054c4.989,0,9.273-3.773,9.801-8.842c0.566-5.423-3.421-9.901-8.788-10.838
	c-58.688-10.26-79.98-33.909-80.429-34.494c-0.358-0.486-0.765-0.918-1.191-1.322c3.266-7.866,8.028-15.583,14.933-22.2
	c-0.033,0.729,0.033,1.534,0.274,2.424c1.713,6.321,10.865,12.287,27.201,17.729c14.324,4.779,46.229,12.958,84.004,20.82
	c-0.609,10.414,1.825,18.77,7.498,25.453c14.63,17.229,48.829,19.749,85.035,22.416c50.457,3.715,107.599,7.939,127,51.63
	C430.475,727.549,409.37,729.028,388.083,729.028z M454.849,724.604c-20.111-46.404-79.03-51.245-130.812-55.061
	c-35.358-2.602-68.754-5.061-82.315-21.032c-4.879-5.746-7.024-13.004-6.6-22.088c45.92,9.427,99.771,18.203,141.242,19.821
	c8.599,0.336,17.205,0.506,25.85,0.506c55.666,0,112.39-6.992,172.564-21.229c2.074-0.489,4.244-1.044,6.367-1.568
	c-0.59,22.859,3.889,45.769,16.084,62.962c0.234,0.331,0.493,0.64,0.732,0.967C573.51,699.035,519.632,716.575,454.849,724.604z
	 M722.423,684.158c0.544-0.085,1.091-0.178,1.639-0.262c2.952-0.447,5.896-0.863,8.826-1.261c0.87-0.119,1.734-0.224,2.598-0.335
	c2.089-0.273,4.17-0.536,6.243-0.787c1.068-0.123,2.128-0.246,3.188-0.365c1.904-0.22,3.797-0.424,5.686-0.621
	c1.04-0.111,2.085-0.224,3.121-0.323c2.066-0.208,4.109-0.397,6.151-0.582c0.786-0.069,1.58-0.15,2.366-0.216
	c2.783-0.243,5.539-0.463,8.264-0.667c0.651-0.046,1.287-0.085,1.935-0.131c2.089-0.154,4.167-0.293,6.221-0.424
	c0.972-0.059,1.928-0.116,2.895-0.17c1.734-0.101,3.45-0.2,5.153-0.285c0.971-0.05,1.935-0.101,2.891-0.146
	c1.758-0.085,3.488-0.158,5.203-0.228c0.802-0.035,1.607-0.065,2.397-0.097c2.443-0.092,4.856-0.173,7.207-0.238
	c0.301-0.008,0.586-0.016,0.879-0.023c2.073-0.054,4.108-0.101,6.097-0.139c0.81-0.016,1.596-0.027,2.391-0.038
	c1.464-0.023,2.905-0.047,4.316-0.059c0.824-0.012,1.642-0.02,2.443-0.022c1.372-0.008,2.713-0.016,4.031-0.02
	c0.471,0,0.972-0.004,1.426-0.004c0.332,0,0.641,0.004,0.964,0.004c0.447,0,0.887,0,1.334,0c1.202,0.008,2.374,0.012,3.522,0.022
	c0.362,0,0.74,0.004,1.103,0.008c1.449,0.012,2.859,0.031,4.216,0.047c0.023,0,0.047,0,0.069,0.004
	c1.411,0.02,2.76,0.046,4.07,0.073c0.27,0.008,0.524,0.012,0.794,0.015c1.01,0.023,1.981,0.047,2.922,0.074
	c0.301,0.007,0.594,0.015,0.879,0.022c1.04,0.027,2.05,0.058,2.998,0.089c0.069,0.004,0.146,0.008,0.208,0.008
	c1.063,0.034,2.059,0.069,2.991,0.107c0.177,0.008,0.331,0.012,0.509,0.02c0.693,0.027,1.349,0.054,1.966,0.081
	c0.246,0.008,0.485,0.02,0.725,0.03c0.585,0.023,1.125,0.051,1.626,0.078c0.123,0.004,0.255,0.007,0.37,0.015
	c0.624,0.031,1.187,0.058,1.665,0.085c0.046,0,0.077,0.004,0.123,0.008c0.424,0.023,0.786,0.042,1.095,0.062
	c0.115,0.004,0.2,0.008,0.309,0.016c0.192,0.012,0.354,0.023,0.478,0.03c0.085,0.004,0.131,0.008,0.185,0.008
	c0.124,0.008,0.201,0.016,0.201,0.016s0.085,0.031,0.224,0.085c0.054,0.023,0.092,0.038,0.161,0.065
	c0.139,0.058,0.293,0.123,0.502,0.212c0.092,0.043,0.185,0.085,0.293,0.131c0.223,0.104,0.462,0.22,0.731,0.354
	c0.108,0.055,0.208,0.104,0.332,0.166c4.085,2.116,11.493,7.496,2.127,15.56c-0.038,0.026-0.054,0.054-0.092,0.085
	c0,0-0.14-0.008-0.255-0.016c-0.069-0.004-0.2-0.012-0.309-0.016c-0.185-0.012-0.447-0.023-0.739-0.038
	c-0.116-0.004-0.239-0.012-0.37-0.016c-0.439-0.023-0.972-0.046-1.58-0.069c-0.077,0-0.139-0.004-0.216-0.008
	c-0.702-0.027-1.519-0.058-2.421-0.085c-0.162-0.008-0.339-0.012-0.501-0.016c-0.778-0.022-1.634-0.046-2.552-0.069
	c-0.238-0.008-0.485-0.016-0.74-0.022c-1.024-0.023-2.135-0.047-3.314-0.065c-0.154-0.004-0.293-0.004-0.446-0.008
	c-1.364-0.02-2.837-0.043-4.401-0.055c-0.17-0.004-0.355-0.004-0.524-0.004c-1.356-0.008-2.798-0.015-4.294-0.015
	c-0.385,0-0.771,0-1.164,0c-1.549,0-3.16,0.007-4.841,0.019c-0.277,0.004-0.539,0.004-0.824,0.008
	c-1.981,0.02-4.047,0.043-6.198,0.081c-0.308,0.008-0.64,0.016-0.955,0.023c-1.812,0.03-3.692,0.077-5.62,0.123
	c-0.585,0.016-1.171,0.035-1.765,0.05c-2.004,0.059-4.062,0.124-6.183,0.201c-0.339,0.012-0.67,0.022-1.01,0.034
	c-2.489,0.093-5.064,0.204-7.708,0.328c-0.485,0.022-1.002,0.05-1.495,0.073c-2.144,0.104-4.332,0.22-6.571,0.347
	c-0.752,0.042-1.508,0.085-2.271,0.131c-2.413,0.143-4.872,0.297-7.385,0.467c-0.4,0.026-0.786,0.05-1.187,0.081
	c-2.914,0.2-5.897,0.424-8.935,0.662c-0.709,0.055-1.434,0.12-2.15,0.178c-2.39,0.196-4.81,0.404-7.272,0.624
	c-0.895,0.085-1.793,0.162-2.694,0.247c-2.829,0.262-5.696,0.543-8.614,0.844c-0.382,0.043-0.76,0.073-1.145,0.115
	c-3.276,0.344-6.614,0.714-9.998,1.106c-0.887,0.101-1.78,0.208-2.675,0.316c-2.605,0.308-5.237,0.636-7.901,0.975
	c-1.017,0.132-2.027,0.259-3.052,0.394c-3.284,0.432-6.599,0.883-9.96,1.364c-0.254,0.034-0.5,0.069-0.751,0.104
	c-3.585,0.516-7.227,1.071-10.892,1.646c-1.049,0.165-2.108,0.335-3.165,0.505c-2.767,0.447-5.558,0.909-8.367,1.388
	c-1.113,0.192-2.231,0.377-3.349,0.578c-3.793,0.663-7.608,1.345-11.475,2.073c-2.986,0.566-5.862,1.002-8.684,1.384
	c-0.794,0.107-1.572,0.196-2.351,0.289c-2.204,0.262-4.363,0.47-6.472,0.624c-0.604,0.039-1.229,0.101-1.83,0.139
	c-2.382,0.139-4.726,0.224-6.984,0.224c-0.185,0-0.354-0.016-0.539-0.02c-0.972-0.003-1.885-0.065-2.829-0.096
	c-1.642-0.054-3.284-0.104-4.856-0.228c-1.04-0.081-2.035-0.216-3.049-0.328c-1.387-0.157-2.771-0.315-4.104-0.527
	c-1.056-0.166-2.073-0.374-3.095-0.582c-1.206-0.239-2.409-0.486-3.569-0.775c-1.028-0.254-2.03-0.535-3.025-0.828
	c-0.582-0.17-1.202-0.305-1.772-0.485c0.03-0.016,0.073-0.031,0.107-0.043c-13.335-4.267-23.379-11.798-30.663-21.433
	c-0.008,0-0.012,0.008-0.016,0.008c-0.043-0.055-0.073-0.116-0.116-0.17c-1.519-2.02-2.921-4.132-4.204-6.324
	c-0.112-0.197-0.216-0.397-0.328-0.594c-1.133-1.974-2.166-4.009-3.122-6.098c-0.177-0.393-0.362-0.782-0.535-1.184
	c-2.023-4.629-3.646-9.5-4.884-14.549c-0.104-0.42-0.192-0.841-0.293-1.261c-0.509-2.2-0.955-4.429-1.333-6.683
	c-0.062-0.394-0.139-0.783-0.201-1.18c-0.408-2.637-0.747-5.296-0.986-7.979c-0.008-0.069-0.008-0.146-0.016-0.219
	c-0.219-2.529-0.354-5.068-0.432-7.62c-0.015-0.544-0.026-1.087-0.038-1.627c-0.046-2.439-0.038-4.879,0.03-7.314
	c0.008-0.146,0-0.293,0.004-0.439l0.004-0.004c0.047-1.376,0.128-2.748,0.209-4.116c0,0-0.008,0-0.008,0.004
	c0.008-0.189,0.03-0.374,0.038-0.563c0.101-1.561,0.224-3.118,0.366-4.671c0.035-0.408,0.081-0.821,0.119-1.229
	c0.154-1.522,0.32-3.029,0.513-4.536c0.058-0.455,0.12-0.902,0.186-1.356c0.196-1.445,0.404-2.884,0.636-4.31
	c0.089-0.531,0.185-1.056,0.277-1.588c0.231-1.337,0.467-2.671,0.725-3.989c0.127-0.628,0.262-1.244,0.394-1.865
	c0.254-1.206,0.509-2.412,0.786-3.6c0.177-0.759,0.37-1.499,0.555-2.251c0.254-1.033,0.509-2.069,0.778-3.079
	c0.263-0.968,0.548-1.904,0.817-2.853c0.231-0.778,0.447-1.572,0.679-2.336c0.527-1.703,1.071-3.376,1.642-5.002
	c18.654-53.296,35.759-110.58,26.101-154.506c-1.723-7.826-4.278-15.236-7.848-22.115c-0.123-0.239-0.246-0.453-0.37-0.688
	c-0.709-1.339-1.418-2.648-2.131-3.912c-0.479-0.842-0.96-1.657-1.441-2.463c-0.273-0.462-0.551-0.919-0.825-1.368
	c-1.398-2.274-2.81-4.415-4.228-6.415c0.016-0.004,0.023-0.006,0.038-0.008c-2.782-3.933-5.596-7.312-8.401-10.231
	c-0.51-0.526-1.01-1.021-1.52-1.517c-0.4-0.393-0.801-0.786-1.202-1.16c-0.509-0.474-1.01-0.933-1.519-1.376
	c-0.393-0.351-0.79-0.686-1.187-1.017c-0.505-0.424-1.01-0.848-1.515-1.245c-0.39-0.305-0.775-0.586-1.16-0.873
	c-0.91-0.68-1.819-1.316-2.722-1.912c-0.393-0.262-0.794-0.538-1.187-0.783c-0.482-0.298-0.956-0.568-1.434-0.844
	c-0.409-0.237-0.817-0.474-1.227-0.696c-0.462-0.25-0.921-0.485-1.379-0.717c-0.425-0.212-0.849-0.417-1.265-0.613
	c-0.436-0.202-0.871-0.403-1.303-0.59c-0.466-0.2-0.933-0.383-1.396-0.564c-0.373-0.146-0.751-0.305-1.121-0.438
	c-0.79-0.287-1.576-0.545-2.348-0.776c-0.315-0.097-0.632-0.172-0.943-0.258c-0.514-0.141-1.025-0.28-1.53-0.399
	c-0.332-0.077-0.655-0.146-0.983-0.216c-0.493-0.103-0.982-0.201-1.465-0.283c-0.3-0.052-0.601-0.104-0.897-0.15
	c-0.536-0.081-1.063-0.15-1.588-0.208c-0.228-0.027-0.455-0.058-0.679-0.079c-0.747-0.073-1.487-0.127-2.204-0.16
	c-0.054-0.002-0.108-0.002-0.162-0.004c-0.647-0.025-1.279-0.033-1.904-0.029c-0.543,0.004-1.067,0.023-1.588,0.046
	c-0.254,0.011-0.517,0.015-0.767,0.031c-0.736,0.044-1.445,0.108-2.132,0.187c-0.285,0.033-0.551,0.077-0.824,0.113
	c-0.416,0.056-0.829,0.11-1.222,0.176c-0.297,0.048-0.578,0.106-0.867,0.16c-0.348,0.066-0.702,0.131-1.033,0.201
	c-0.254,0.056-0.497,0.113-0.74,0.171c-0.354,0.083-0.709,0.167-1.036,0.254c-0.178,0.046-0.351,0.094-0.521,0.141
	c-0.412,0.116-0.81,0.231-1.18,0.347c-0.058,0.018-0.119,0.037-0.177,0.054c-0.933,0.299-1.728,0.591-2.367,0.848
	c0,0-1.202,0.474,0-0.006l-10.545-14.937c4.464-1.413,7.3-1.912,11.501-2.542c0.27-0.041,0.54-0.079,0.81-0.118
	c1.364-0.19,2.721-0.343,4.059-0.457c0.566-0.05,1.137-0.1,1.699-0.137c1.057-0.065,2.097-0.1,3.134-0.12
	c0.466-0.01,0.952-0.054,1.414-0.054c0.247,0,0.49,0.023,0.74,0.025c0.852,0.01,1.688,0.048,2.532,0.088
	c0.759,0.035,1.522,0.064,2.271,0.122c0.848,0.068,1.68,0.166,2.513,0.26c0.717,0.083,1.441,0.156,2.15,0.26
	c0.848,0.125,1.673,0.281,2.505,0.434c0.679,0.125,1.357,0.237,2.02,0.379c0.856,0.183,1.688,0.401,2.529,0.613
	c0.616,0.158,1.24,0.3,1.85,0.474c0.879,0.249,1.738,0.53,2.598,0.81c0.547,0.177,1.103,0.339,1.642,0.53
	c0.925,0.326,1.831,0.686,2.736,1.046c0.447,0.177,0.91,0.341,1.35,0.528c1.028,0.43,2.031,0.896,3.029,1.368
	c0.301,0.145,0.616,0.273,0.913,0.42c1.249,0.613,2.475,1.255,3.677,1.925c0.035,0.021,0.077,0.041,0.112,0.06
	c17.69,9.894,30.34,25.846,37.246,38.91c0.116,0.22,0.224,0.436,0.34,0.653c1.279,2.471,2.351,4.826,3.202,7.013
	c0.097,0.247,0.189,0.488,0.282,0.73c0.393,1.056,0.759,2.085,1.048,3.047c6.906,22.784,17.047,70.799-15.787,158.763
	c-0.824,2.209-1.61,4.425-2.358,6.652c-0.15,0.439-0.277,0.887-0.424,1.326c-0.594,1.788-1.176,3.58-1.719,5.377
	c-0.154,0.52-0.293,1.044-0.447,1.568c-0.505,1.727-1.01,3.445-1.465,5.172c-0.139,0.509-0.254,1.018-0.385,1.522
	c-0.447,1.738-0.895,3.477-1.296,5.211c-0.123,0.552-0.23,1.106-0.354,1.657c-0.373,1.688-0.747,3.376-1.075,5.061
	c-0.115,0.586-0.204,1.172-0.315,1.758c-0.305,1.642-0.605,3.283-0.867,4.918c-0.101,0.624-0.174,1.244-0.267,1.869
	c-0.235,1.584-0.466,3.172-0.659,4.744c-0.077,0.659-0.131,1.311-0.204,1.974c-0.165,1.522-0.335,3.045-0.458,4.552
	c-0.124,1.538-0.213,3.057-0.293,4.575c-0.154,2.96-0.224,5.889-0.201,8.764c0,0.101,0.008,0.193,0.008,0.293
	c0.031,2.718,0.15,5.389,0.348,8.009c0.019,0.286,0.038,0.571,0.062,0.856c0.442,5.457,1.256,10.684,2.466,15.624
	c0.055,0.231,0.108,0.463,0.17,0.694c1.257,4.964,2.902,9.624,4.979,13.905c0.062,0.124,0.124,0.247,0.186,0.37
	c2.139,4.329,4.706,8.279,7.747,11.748c11.238,12.834,28.836,19.232,54.081,15.316c1.156-0.178,2.328-0.378,3.516-0.594
	c2.026-0.378,4.069-0.782,6.197-1.295c2.944-0.709,5.904-1.38,8.872-2.027c0.952-0.208,1.904-0.4,2.859-0.602
	c2.043-0.432,4.086-0.848,6.129-1.248c1.087-0.216,2.166-0.421,3.245-0.625c2-0.377,4.001-0.739,6.001-1.091
	c1.01-0.177,2.02-0.358,3.025-0.527C717.586,684.918,720.007,684.528,722.423,684.158z M924.023,590.525
	c0,0-39.574,26.574-86.834,36.614C789.936,637.184,715.505,649,715.505,649s-51.06,13.15-90.265,27.562
	c-1.519-1.618-2.968-3.33-4.286-5.223c-9.007-12.98-12.811-32.452-11.45-54.875c23.353-6.514,47.502-13.922,68.308-20.312
	c21.86-6.718,40.746-12.519,51.129-14.936c25.06-5.823,105.42-19.922,106.321-20.08c0.517-0.119,52.055-11.944,90.92-33.35
	C926.151,546.302,925.488,567.08,924.023,590.525z"/>
</svg>
