<?xml version="1.0" encoding="utf-8"?>
<!-- Generator: Adobe Illustrator 14.0.0, SVG Export Plug-In . SVG Version: 6.00 Build 43363)  -->
<!DOCTYPE svg PUBLIC "-//W3C//DTD SVG 1.1//EN" "http://www.w3.org/Graphics/SVG/1.1/DTD/svg11.dtd">
<svg version="1.1" id="icon" xmlns="http://www.w3.org/2000/svg" xmlns:xlink="http://www.w3.org/1999/xlink" x="0px" y="0px"
	 width="1024px" height="1024px" viewBox="0 0 1024 1024" enable-background="new 0 0 1024 1024" xml:space="preserve">
<g>
	<path fill="#231F20" d="M885.131,462.2c0.064-1.769,15.378-3.184,15.378-4.954c0.065-1.802-15.184-3.732-15.184-5.534
		c0-3.827,15.184-7.914,15.055-11.742c-0.128-3.828-15.506-7.044-15.698-10.841c-0.259-3.86,14.605-8.847,14.284-12.675
		c-0.322-3.828-15.893-5.983-16.344-9.812c-0.451-3.829,14.091-9.684,13.513-13.512c-0.581-3.764-16.214-5.051-16.923-8.848
		c-0.643-3.764,13.576-10.488,12.74-14.251c-0.773-3.763-16.536-4.085-17.437-7.817c-0.902-3.699,12.867-11.26,11.838-14.991
		c-1.028-3.7-16.729-3.089-17.886-6.756c-1.159-3.635,12.159-12.032,10.872-15.635c-1.223-3.667-16.857-2.059-18.207-5.662
		c-1.417-3.603,11.323-12.772,9.907-16.343c-1.479-3.539-17.05-1.03-18.594-4.504c-1.609-3.475,10.552-13.479,8.879-16.922
		c-1.674-3.442-17.05,0-18.788-3.377c-1.801-3.443,9.717-14.059,7.849-17.405c-1.865-3.346-16.984,1.093-18.979-2.22
		c-1.995-3.249,8.943-14.638,6.821-17.855c-2.125-3.216-16.923,2.059-19.11-1.093c-2.187-3.121,7.979-15.152,5.727-18.208
		c-2.316-3.089-16.729,3.088-19.109,0.064c-2.316-3.024,7.078-15.571,4.632-18.53c-2.444-2.928-16.536,4.118-19.045,1.222
		c-2.574-2.863,6.113-15.956,3.475-18.723c-2.639-2.831-16.214,5.083-18.916,2.38c-2.768-2.702,5.083-16.342,2.315-18.981
		c-2.831-2.638-15.893,6.017-18.788,3.476c-2.831-2.542,4.183-16.568,1.225-19.046c-2.961-2.444-15.508,7.013-18.531,4.633
		c-3.025-2.381,3.152-16.857,0.064-19.11c-3.09-2.251-15.057,7.915-18.209,5.759c-3.152-2.188,2.123-17.018-1.095-19.077
		c-3.215-2.059-14.54,8.815-17.822,6.82c-3.28-1.994,1.159-17.05-2.188-18.948c-3.345-1.898-14.026,9.652-17.371,7.882
		c-3.41-1.802,0.064-17.116-3.41-18.82c-3.411-1.641-13.383,10.52-16.857,8.911c-3.474-1.543-0.965-17.082-4.504-18.53
		c-3.539-1.48-12.74,11.323-16.344,9.908c-3.539-1.351-1.995-16.986-5.597-18.241c-3.669-1.254-12.031,12.064-15.7,10.905
		c-3.666-1.157-3.022-16.857-6.756-17.854c-3.667-1.03-11.194,12.708-14.928,11.807c-3.666-0.901-3.988-16.601-7.784-17.405
		c-3.731-0.804-10.487,13.416-14.283,12.707c-3.733-0.707-5.019-16.342-8.816-16.922c-3.796-0.579-9.585,13.994-13.446,13.512
		c-3.796-0.45-6.048-15.988-9.844-16.31c-3.796-0.354-8.751,14.573-12.612,14.316c-3.796-0.226-6.948-15.603-10.81-15.699
		c-3.86-0.128-7.979,15.056-11.805,15.056c-3.86,0-7.947-15.184-11.774-15.056c-3.827,0.096-7.013,15.474-10.841,15.699
		c-3.86,0.257-8.816-14.67-12.644-14.316c-3.829,0.322-6.082,15.924-9.844,16.31c-3.829,0.482-9.684-14.09-13.48-13.512
		c-3.796,0.58-5.083,16.215-8.879,16.922c-3.765,0.708-10.488-13.511-14.22-12.707c-3.796,0.804-4.118,16.536-7.85,17.405
		c-3.699,0.964-11.26-12.805-14.991-11.774c-3.7,1.029-3.088,16.696-6.724,17.854c-3.667,1.158-12.064-12.128-15.667-10.906
		c-3.667,1.287-2.059,16.921-5.663,18.273c-3.603,1.351-12.803-11.388-16.342-9.909c-3.539,1.48-1.03,16.986-4.504,18.594
		c-3.474,1.577-13.447-10.583-16.921-8.942c-3.443,1.737,0,17.05-3.346,18.819c-3.411,1.802-14.092-9.716-17.438-7.849
		c-3.346,1.898,1.03,16.954-2.22,18.98c-3.313,1.963-14.638-8.911-17.823-6.82c-3.249,2.091,2.028,16.89-1.125,19.077
		c-3.121,2.188-15.152-7.979-18.209-5.661c-3.089,2.252,3.089,16.696,0.096,19.044c-3.056,2.381-15.602-7.078-18.498-4.568
		c-2.96,2.413,4.053,16.536,1.157,19.045c-2.863,2.542-15.956-6.113-18.787-3.475c-2.767,2.574,5.147,16.214,2.444,18.917
		c-2.702,2.703-16.342-5.147-18.98-2.348c-2.639,2.798,6.048,15.924,3.474,18.755c-2.509,2.895-16.6-4.118-19.044-1.158
		c-2.446,2.896,7.012,15.474,4.631,18.499c-2.348,2.992-16.857-3.122-19.108-0.065c-2.285,3.12,7.914,15.088,5.727,18.241
		c-2.188,3.088-16.987-2.188-19.046,1.03c-2.059,3.217,8.815,14.541,6.82,17.823c-1.994,3.281-17.114-1.094-18.98,2.252
		c-1.866,3.313,9.683,13.994,7.914,17.371c-1.802,3.411-17.114-0.063-18.82,3.378c-1.64,3.442,10.52,13.351,8.911,16.857
		c-1.544,3.507-17.082,0.998-18.53,4.537c-1.48,3.538,11.324,12.675,9.909,16.278c-1.352,3.604-16.987,1.995-18.241,5.663
		c-1.255,3.603,12.064,11.999,10.906,15.667c-1.158,3.635-16.857,3.024-17.887,6.724c-1.029,3.667,12.74,11.26,11.839,14.927
		c-0.902,3.731-16.601,4.053-17.405,7.85c-0.805,3.731,13.416,10.456,12.707,14.219c-0.707,3.796-16.342,5.019-16.921,8.815
		c-0.58,3.796,13.994,9.651,13.544,13.512c-0.483,3.731-16.022,5.951-16.344,9.779c-0.353,3.829,14.574,8.815,14.316,12.644
		c-0.224,3.829-15.603,6.981-15.699,10.81c-0.128,3.86,15.056,7.946,15.056,11.806c0,2.993-15.249,6.146-15.152,9.137
		c0.064,2.959,15.41,5.404,15.538,8.364c0.128,2.96-14.927,6.82-14.67,9.78c0.128,2.992,15.603,4.697,15.892,7.657
		c0.258,2.959-14.541,7.527-14.219,10.52c0.353,2.959,15.828,3.957,16.278,6.949c0.386,2.927-14.251,8.203-13.769,11.163
		c0.515,2.895,16.021,3.153,16.536,6.112c0.611,2.896-13.77,8.815-13.126,11.774c0.644,2.896,16.15,2.445,16.826,5.341
		c0.675,2.895-13.351,9.458-12.611,12.354c0.74,2.831,16.247,1.672,17.082,4.504c0.805,2.895-12.899,10.166-12.031,12.997
		c0.965,2.83,16.279,0.9,17.308,3.667c0.933,2.831-12.449,10.745-11.388,13.512c1.029,2.831,16.31,0.129,17.373,2.896
		c1.157,2.767-11.872,11.323-10.713,14.026c1.126,2.767,16.31-0.644,17.534,2.123c1.222,2.702-11.325,11.774-10.038,14.477
		c1.254,2.638,16.214-1.415,17.564,1.223c1.352,2.639-10.745,12.354-9.329,14.992c1.416,2.573,16.15-2.188,17.629,0.386
		c1.48,2.573-10.166,12.804-8.653,15.378c1.544,2.509,16.053-2.896,17.662-0.387c1.576,2.51-9.587,13.255-7.946,15.7
		c1.64,2.509,15.923-3.668,17.629-1.224c1.672,2.445-8.976,13.705-7.239,16.086c1.802,2.445,15.764-4.375,17.565-2.06
		c1.801,2.381-8.3,14.221-6.435,16.472c1.898,2.316,15.507-5.146,17.437-2.895c1.866,2.252-7.625,14.477-5.695,16.728
		c1.963,2.188,15.281-5.854,17.276-3.731c2.026,2.188-6.95,14.862-4.891,16.986c2.06,2.124,14.959-6.563,17.115-4.439
		c2.091,2.059-6.274,15.12-4.118,17.179c2.188,1.994,14.605-7.27,16.857-5.34c2.188,1.994-5.534,15.441-3.282,17.372
		c2.252,1.93,14.285-7.914,16.536-6.049c2.317,1.867-4.793,15.636-2.444,17.438c2.316,1.801,13.897-8.558,16.278-6.82
		c2.381,1.737-4.118,15.893-1.672,17.564c2.444,1.737,13.512-9.2,15.957-7.526c2.477,1.607-3.346,16.021-0.836,17.564
		c2.509,1.608,13.029-9.779,15.57-8.235c2.509,1.479-2.574,16.148,0,17.629s12.514-10.423,15.153-9.008
		c2.605,1.352-1.834,16.278,0.804,17.63c2.251,1.157,9.393-7.496,13.061-9.104c0.773,2.606,1.608,5.115,2.478,7.689
		c-0.289,4.246-0.611,8.62,0.804,9.264c0.515,0.226,1.416-0.385,2.252-0.965c34.197,91.044,121.927,156.093,224.743,156.093
		c132.479,0,240.252-107.74,240.252-240.187c0-11.292-1.095-22.454-2.704-33.555c1.803,0.741,3.282,1.224,3.604,0.805
		c0.514-0.707-1.995-3.699-4.505-6.723c-0.321-1.995-0.514-4.021-0.9-6.017c4.375,1.673,11.066,5.115,11.84,4.117
		c1.029-1.479-10.36-11.773-9.33-13.189c1.029-1.479,14.54,5.791,15.505,4.311c1.03-1.415-10.614-11.453-9.649-12.932
		c0.965-1.48,14.67,5.404,15.635,3.924c0.966-1.479-10.938-11.065-10.038-12.61c0.966-1.479,14.862,4.954,15.765,3.474
		c0.9-1.479-11.26-10.809-10.359-12.353c0.9-1.48,14.927,4.632,15.827,3.089c0.902-1.545-11.58-10.488-10.68-12.033
		c0.835-1.544,14.991,4.183,15.827,2.639c0.838-1.545-11.839-10.294-11.001-11.839c0.771-1.544,15.184,3.796,16.02,2.188
		c0.772-1.544-12.159-9.845-11.389-11.453c0.709-1.544,15.313,3.346,16.022,1.802c0.771-1.672-12.418-9.522-11.71-11.131
		c0.706-1.608,15.376,2.896,16.084,1.222c0.709-1.607-12.609-9.136-11.966-10.809c0.708-1.608,15.44,2.51,16.084,0.836
		c0.644-1.608-12.867-8.813-12.224-10.487c0.644-1.608,15.506,1.995,16.149,0.322c0.578-1.609-13.191-8.364-12.612-10.038
		c0.581-1.672,15.572,1.545,16.151-0.128c0.514-1.673-13.384-8.043-12.869-9.779c0.578-1.674,15.635,1.222,16.148-0.451
		c0.517-1.673-13.64-7.721-13.188-9.395c0.514-1.672,15.636,0.708,16.085-0.964c0.516-1.674-13.768-7.271-13.384-9.009
		c0.451-1.672,15.7,0.258,16.151-1.415c0.385-1.737-14.026-6.948-13.643-8.622c0.387-1.737,15.636-0.257,16.022-1.994
		c0.321-1.737-14.219-6.498-13.897-8.235c0.387-1.737,15.636-0.515,15.957-2.317c0.322-1.672-14.349-6.111-14.092-7.881
		c0.322-1.769,15.636-0.998,15.893-2.734c0.257-1.737-14.54-5.727-14.283-7.463c0.192-1.737,15.57-1.48,15.763-3.25
		c0.257-1.737-14.67-5.308-14.476-7.044c0.191-1.737,15.57-1.995,15.697-3.732c0.194-1.77-14.862-4.826-14.668-6.627
		c0.128-1.737,15.441-2.38,15.57-4.118c0.128-1.802-14.927-4.472-14.864-6.209c0.13-1.77,15.379-2.767,15.508-4.537
		C900.315,466.318,885.131,464.001,885.131,462.2z M618.759,533.876c-0.257-1.352-0.644-2.639-0.773-4.021
		c-2.058-23.484,15.379-44.298,38.863-46.389c1.286-0.097,2.573-0.161,3.796-0.161c21.94,0,40.663,17.179,42.594,39.086
		c2.06,23.484-15.379,44.268-38.863,46.357c-21.488,2.253-40.469-12.738-45.229-32.941l0.191-0.032
		C619.208,535.131,618.885,534.52,618.759,533.876z M463.116,477.9c-41.789,0-75.762,33.972-75.762,75.729
		c0,6.401,1.062,12.515,2.542,18.434c-6.177,8.011-12.418,15.989-17.501,24.771l-1.479-9.941l-12.74-1.254
		c-23.034-2.316-40.407-21.555-40.407-44.813c0-28.246,25.994-50.701,55.784-43.591l12.29,2.96l6.048-11.164
		c30.948-57.522,90.753-93.231,156.026-93.231c50.188,0,96.514,21.812,129.263,56.877c-7.465-1.737-15.184-2.702-23.228-2.026
		c-28.566,2.542-51.729,20.847-62.474,45.424c-15.379-8.718-34.424-10.39-51.538-2.542c-7.013,3.218-12.805,7.915-17.76,13.32
		C508.283,489.353,487.116,477.9,463.116,477.9z M505.905,553.629c0,23.581-19.208,42.786-42.788,42.786
		c-23.613,0-42.819-19.205-42.819-42.786c0-23.613,19.206-42.786,42.819-42.786C486.697,510.843,505.905,530.016,505.905,553.629z
		 M579.123,927.709c-114.301,0-207.307-92.973-207.307-207.243c0-22.134,3.731-44.46,11.259-66.626
		c5.727-17.983,14.412-34.067,24.386-49.253c13.833,15.12,33.554,24.771,55.655,24.771c41.758,0,75.729-33.972,75.729-75.729
		c0-1.19-0.321-2.316-0.386-3.475l1.737-0.354c-2.187-10.874,3.345-21.684,13.384-26.316c11.774-5.372,25.993-0.128,31.333,11.389
		c0.773,1.802,1.287,3.797,1.738,5.823c6.948,34.841,37.768,61.156,73.862,61.156c2.252,0,4.504-0.097,6.756-0.29
		c31.785-2.83,57.199-25.093,65.821-53.981l2.382,0.192c23.033,1.995,41.05,21.651,41.05,44.782c0,9.168-2.639,17.886-7.656,25.156
		l-7.335,3.989l7.784,16.826c11.325,26.283,17.114,53.854,17.114,81.938C786.43,834.736,693.459,927.709,579.123,927.709z"/>
	<path fill="#231F20" d="M438.409,553.693c0,13.64,11.035,24.643,24.675,24.643c13.641,0,24.676-11.003,24.676-24.643
		c0-13.641-11.035-24.708-24.676-24.708C449.444,528.985,438.409,540.053,438.409,553.693z M471.867,547.26
		c4.824,0,8.75,3.988,8.75,8.75c0,4.89-3.925,8.814-8.75,8.814c-4.891,0-8.815-3.925-8.815-8.814
		C463.052,551.248,466.977,547.26,471.867,547.26z"/>
	<path fill="#231F20" d="M670.488,550.733c13.64,0,24.706-11.002,24.706-24.643c0-13.64-11.066-24.707-24.706-24.707
		s-24.642,11.067-24.642,24.707C645.846,539.731,656.848,550.733,670.488,550.733z M679.302,519.721
		c4.825,0,8.751,3.925,8.751,8.751c0,4.825-3.926,8.75-8.751,8.75c-4.889,0-8.814-3.925-8.814-8.75
		C670.488,523.646,674.414,519.721,679.302,519.721z"/>
	<path fill="#231F20" d="M528.615,656.125c7.4,0,13.384-5.983,13.384-13.384c0-7.398-5.983-13.383-13.384-13.383
		c-7.335,0-13.35,5.984-13.35,13.383C515.265,650.142,521.28,656.125,528.615,656.125z"/>
	<path fill="#231F20" d="M623.842,645.315c7.397,0,13.383-5.983,13.383-13.384c0-7.398-5.985-13.383-13.383-13.383
		c-7.335,0-13.318,5.984-13.318,13.383C610.523,639.332,616.507,645.315,623.842,645.315z"/>
	<path fill="#231F20" d="M573.719,712.745c-55.622,12.097-90.818,67.623-78.592,123.985c12.226,56.428,67.269,92.395,122.924,80.363
		c55.59-12.097,90.722-67.623,78.496-124.051C684.258,736.68,629.31,700.714,573.719,712.745z M595.852,856.549
		c-30.819,0-55.85-24.965-55.85-55.849c0-30.819,25.03-55.849,55.85-55.849c30.885,0,55.848,25.029,55.848,55.849
		C651.7,831.584,626.737,856.549,595.852,856.549z"/>
	<polygon fill="#231F20" points="560.142,784.518 566.256,816.882 626.929,805.364 620.816,773.001 	"/>
</g>
</svg>
