<?xml version="1.0" encoding="utf-8"?>
<!-- Generator: Adobe Illustrator 14.0.0, SVG Export Plug-In . SVG Version: 6.00 Build 43363)  -->
<!DOCTYPE svg PUBLIC "-//W3C//DTD SVG 1.1//EN" "http://www.w3.org/Graphics/SVG/1.1/DTD/svg11.dtd">
<svg version="1.1" id="icon" xmlns="http://www.w3.org/2000/svg" xmlns:xlink="http://www.w3.org/1999/xlink" x="0px" y="0px"
	 width="1024px" height="1024px" viewBox="0 0 1024 1024" enable-background="new 0 0 1024 1024" xml:space="preserve">
<g>
	<path d="M413.31,398.763c-67.403,0-122.518,52.566-126.613,118.938h-0.254v111.008h253.733V517.7h-0.254
		C535.827,451.329,480.712,398.763,413.31,398.763z M406.261,596.991H318.16v-74.198l0.194-3.14
		c2.939-47.643,40.941-85.449,87.908-88.914V596.991z M508.459,596.991h-88.102V430.739c46.968,3.465,84.969,41.271,87.908,88.914
		l0.193,3.14V596.991z"/>
	<path d="M945.458,222.969c-0.001-0.004-0.005-0.009-0.007-0.015c-30.501-71.173-101.21-121.041-183.59-121.041
		c-82.379,0-153.087,49.868-183.591,121.041c-4.144,10.359-7.764,20.673-10.486,31.513c12.582,8.295,25.8,15.599,39.459,21.954
		v44.411l-23.149-23.149L424.873,232.25l-159.219,65.432L134.319,429.015l-66.258,136.26h23.788h7.929h47.575v356.812h139.09
		h253.733h133.144h29.073h129.387h46.252h46.377V272.598c0.735-0.367,17.847-9.636,28.09-15.948c-1.17,0.8-1.194,0.874,3.441-2.184
		C955.89,254.271,950.543,236.362,945.458,222.969z M605.746,239.996c8.317-21.131,20.976-40.525,37.527-57.065
		c29.312-29.296,67.571-46.401,108.621-48.791c-17.026,16.743-54.561,61.325-63.344,135.794
		c-10.848-2.304-21.516-5.128-31.971-8.474C638.498,255.676,621.506,248.493,605.746,239.996z M390.883,795.22l-72.723,72.724
		V722.497L390.883,795.22z M340.587,700.07h145.446l-72.723,72.724L340.587,700.07z M340.587,890.37l72.723-72.724l72.723,72.724
		H340.587z M508.459,867.943l-72.723-72.724l72.723-72.723V867.943z M670.676,636.637V890.37h-130.5V668.354H286.443V890.37H179.069
		V620.779v-55.505v-31.716v-2.298l11.729-24.711l110.158-119.738l123.915-60.101l123.914,60.101L658.945,506.55l11.73,19.079
		V636.637z M682.404,488.17L564.205,359.692l-139.333-64.009L285.54,359.692L167.339,488.17l-20.305,45.388h-0.318h-30.575
		l44.245-85.756l122.399-122.399l142.087-61.436l142.087,61.435l122.399,122.399l44.245,85.756h-30.892v0.001L682.404,488.17z
		 M743.095,890.37h-40.702V565.274h40.702V890.37z M892.692,890.37h-14.661V332.708l-46.252,9.691V890.37h-42.433V342.466h-46.252
		v143.45l-27.669-56.902l-14.25-14.25V342.84l-46.252-11.453v37.125l-15.965-15.964V289.24
		c37.427,12.962,79.048,20.19,122.902,20.19c46.979,0,91.394-8.3,130.831-23.054V890.37z M867.145,261.46
		c-11.567,3.7-23.397,6.75-35.438,9.176c0.153-0.233,0.308-0.466,0.45-0.701c-8.812-74.706-46.553-119.332-63.502-135.951
		c42.248,1.671,81.729,18.895,111.798,48.947c16.552,16.54,29.208,35.932,37.526,57.065
		C902.217,248.493,885.225,255.676,867.145,261.46z"/>
</g>
</svg>
