<?xml version="1.0" encoding="utf-8"?>
<!-- Generator: Adobe Illustrator 14.0.0, SVG Export Plug-In . SVG Version: 6.00 Build 43363)  -->
<!DOCTYPE svg PUBLIC "-//W3C//DTD SVG 1.1//EN" "http://www.w3.org/Graphics/SVG/1.1/DTD/svg11.dtd">
<svg version="1.1" id="icon" xmlns="http://www.w3.org/2000/svg" xmlns:xlink="http://www.w3.org/1999/xlink" x="0px" y="0px"
	 width="1024px" height="1024px" viewBox="0 0 1024 1024" enable-background="new 0 0 1024 1024" xml:space="preserve">
<g>
	<path fill="#231F20" d="M526.214,786.334v62.395c0,0,56.916,14.236,99.624-14.236c0,0-28.473,48.381-113.86,48.381
		c-85.417,0-113.889-48.381-113.889-48.381c42.708,28.473,99.653,14.236,99.653,14.236v-61.615
		c-15.015-8.342-28.472-24.691-28.472-24.691c-29.362-2.669-59.614-25.803-71.181-42.708c-11.567-16.906,9.565-35.702,29.362-41.819
		c43.598-13.401,125.43-14.236,169.025-0.89c19.909,6.117,40.93,25.803,29.362,42.709c-11.566,16.905-41.818,40.039-71.178,42.708
		C554.66,762.422,541.313,778.326,526.214,786.334 M440.797,613.275c0,0,71.181-28.472,142.333,0c0,0-14.233-28.472-71.152-28.472
		C455.033,584.804,440.797,613.275,440.797,613.275 M901.441,351.936c18.796,41.596,61.505,204.396,18.24,319.397
		c-48.381,125.901-154.818,132.129-154.818,132.129C666.878,941.82,584.909,945.824,511.978,945.824
		c-72.293,0-154.93-4.004-252.803-142.362c0,0-106.438-6.228-154.93-132.129c-43.265-115.002-0.556-277.801,18.24-319.397
		c-24.469-19.908-112.11-105.325,6.339-223.217c104.77-105.325,171.279-18.796,191.855,15.905
		c86.529-30.141,142.917-30.697,191.298-30.697c48.465,0,104.74,0.556,191.38,30.697c20.465-34.701,87.085-121.23,191.854-15.905
		C1013.662,246.61,925.91,332.027,901.441,351.936 M918.569,521.046c-2.892,0.611-6.896,0.611-12.012,0.611
		c-20.465,0-60.837-4.004-137.245-19.408c21.688,52.358-3.894,88.226-3.894,88.226s28.473,71.181,0,99.653
		c-9.676,9.676-23.912,12.568-39.928,9.12c23.356,34.2,20.576,62.061,20.576,62.061c-10.899-39.872-34.812-63.173-49.049-74.017
		c-4.004-2.836-6.784-4.561-9.12-5.673c-0.556-0.556-0.556-1.167-1.111-1.724c-19.353-15.403-38.149-40.429-49.493-75.185
		c-19.353-58.613-39.372-110.971-26.248-142.335c-167.468-60.948-277.242-193.634-285.25-300.07
		c-26.137,7.953-42.708,15.349-46.156,17.684c-51.829,27.859-92.757,75.128-115.001,114.444
		c-2.225,3.948-191.299,417.938,106.994,495.959c0,0,67.844,141.194,240.347,141.194c172.584,0,240.317-141.194,240.317-141.194
		C898.661,752.245,927.578,632.628,918.569,521.046 M859.289,294.435c-22.133-39.316-63.173-86.584-115.002-114.444
		c-9.119-5.171-104.213-47.268-232.309-47.268c-55.721,0-105.325,7.896-144.586,17.628
		c0.556,99.652,116.114,232.282,290.922,282.998c19.353-2.836,46.156,0.556,69.513,16.516
		c143.474,31.309,180.51,29.64,186.183,28.473C898.661,379.852,860.512,296.103,859.289,294.435 M370.84,433.905
		c-31.364-6.229-85.417,2.335-113.89,59.28c-28.472,56.862,0,97.291,0,97.291s-28.472,71.181,0,99.653
		c9.009,9.12,23.245,12.568,38.705,9.676c-23.356,33.645-21.132,61.505-21.132,61.505c10.232-38.148,33.033-60.893,47.269-71.736
		c5.116-4.004,9.12-6.841,11.456-7.953c1.112-0.556,1.668-1.167,1.668-1.167c19.909-15.349,38.705-40.985,50.161-75.741
		C413.548,519.322,442.02,448.141,370.84,433.905 M686.787,679.896l-0.557,0.557c0,0,0.557,0.611,1.668,1.167
		C687.343,681.064,687.343,680.453,686.787,679.896"/>
</g>
</svg>
