<?xml version="1.0" encoding="utf-8"?>
<!-- Generator: Adobe Illustrator 14.0.0, SVG Export Plug-In . SVG Version: 6.00 Build 43363)  -->
<!DOCTYPE svg PUBLIC "-//W3C//DTD SVG 1.1//EN" "http://www.w3.org/Graphics/SVG/1.1/DTD/svg11.dtd">
<svg version="1.1" id="icon" xmlns="http://www.w3.org/2000/svg" xmlns:xlink="http://www.w3.org/1999/xlink" x="0px" y="0px"
	 width="1024px" height="1024px" viewBox="0 0 1024 1024" enable-background="new 0 0 1024 1024" xml:space="preserve">
<g>
	<path d="M516.802,730.65c-120.568,0-218.66-98.098-218.66-218.676c0-120.546,98.092-218.624,218.66-218.624
		c120.533,0,218.582,98.078,218.582,218.624C735.385,632.553,637.336,730.65,516.802,730.65L516.802,730.65z M516.802,312.412
		c-110.058,0-199.599,89.528-199.599,199.562c0,110.067,89.541,199.614,199.599,199.614c110.023,0,199.521-89.547,199.521-199.614
		C716.323,401.94,626.826,312.412,516.802,312.412L516.802,312.412z"/>
	<polygon points="526.295,956.758 507.231,956.758 507.231,767.19 526.295,767.19 526.295,956.758 	"/>
	<polygon points="526.295,256.112 507.231,256.112 507.231,67.242 526.295,67.242 526.295,256.112 	"/>
	<polygon points="951.993,521.53 772.911,521.53 772.911,502.47 951.993,502.47 951.993,521.53 	"/>
	<polygon points="261.144,521.53 72.007,521.53 72.007,502.47 261.144,502.47 261.144,521.53 	"/>
	<polygon points="780.01,790.868 698.751,709.604 712.228,696.128 793.485,777.391 780.01,790.868 	"/>
	<polygon points="326.883,337.711 242.498,253.314 255.975,239.837 340.36,324.235 326.883,337.711 	"/>
	<polygon points="712.228,334.575 698.751,321.098 780.01,239.84 793.485,253.317 712.228,334.575 	"/>
	<polygon points="255.969,790.868 242.492,777.391 326.883,693 340.36,706.477 255.969,790.868 	"/>
</g>
</svg>
